<svg xmlns="http://www.w3.org/2000/svg" width="25" height="25" viewBox="0 0 25 25">
  <g id="ac_offer_icon" transform="translate(-0.002)">
    <g id="XMLID_1625_" transform="translate(8.485 2.102)">
      <circle id="XMLID_579_" cx="1.074" cy="1.074" r="1.074" fill="#ff7d97"/>
    </g>
    <g id="XMLID_1617_" transform="translate(10.061 13.574)">
      <path id="XMLID_574_" d="M206,278h14.453v10.937H206Z" transform="translate(-206.002 -278)" fill="#d5ea79"/>
    </g>
    <g id="XMLID_1616_" transform="translate(16.115 13.574)">
      <path id="Path_1385" data-name="Path 1385" d="M330,278h2.344v10.937H330Z" transform="translate(-330.002 -278)" fill="#fff"/>
    </g>
    <g id="XMLID_1580_" transform="translate(0.49 9.042)">
      <g id="XMLID_1583_">
        <g id="XMLID_1586_">
          <path id="XMLID_471_" d="M0,0H15.625V3.878H0Z" transform="matrix(0.5, -0.866, 0.866, 0.5, 0, 13.531)" fill="#d5ea79"/>
        </g>
        <g id="XMLID_1585_" transform="translate(3.32 5.751)">
          <path id="Path_1386" data-name="Path 1386" d="M0,0H2.344V3.878H0Z" transform="matrix(0.5, -0.866, 0.866, 0.5, 0, 2.03)" fill="#fff"/>
        </g>
      </g>
      <g id="XMLID_1582_" transform="translate(2.272 3.935)">
        <path id="Path_1387" data-name="Path 1387" d="M56.691,266.356a1.2,1.2,0,0,0,.438,1.634l1.036.6.6-1.036a1.2,1.2,0,1,0-2.072-1.2Z" transform="translate(-56.53 -265.758)" fill="#fff"/>
      </g>
      <g id="XMLID_1581_" transform="translate(1.076 6.007)">
        <path id="Path_1388" data-name="Path 1388" d="M32.191,308.792a1.2,1.2,0,0,1,1.634-.438l1.036.6-.6,1.036a1.2,1.2,0,0,1-2.072-1.2Z" transform="translate(-32.03 -308.194)" fill="#fff"/>
      </g>
    </g>
    <g id="XMLID_580_" transform="translate(0.002)">
      <path id="XMLID_593_" d="M24.514,179.7h-13.5l1.075-1.862a.488.488,0,0,0-.179-.667l-3.358-1.939a.488.488,0,0,0-.667.179l-2.543,4.405a1.684,1.684,0,0,0-3,1.413l-.008,0a1.685,1.685,0,0,0,.285,3.305L.067,188.943a.488.488,0,0,0,.179.667L3.6,191.549a.488.488,0,0,0,.667-.179l5.3-9.181v8.937a.488.488,0,0,0,.488.488H24.514a.488.488,0,0,0,.488-.488V180.188A.488.488,0,0,0,24.514,179.7ZM8.481,176.322l2.512,1.451-2.832,4.905-2.512-1.451ZM6.99,184.708l-2.512-1.451.684-1.184,2.512,1.451Zm-3.645-4.275a.708.708,0,0,1,1.226.708l-.354.613L3.6,181.4A.709.709,0,0,1,3.345,180.433Zm.03,2.78a.708.708,0,1,1-.259-.967l.613.354Zm.294,7.246-2.512-1.451L3.989,184.1,6.5,185.554Zm6.879-9.782h5.078v9.961H10.549Zm13.476,9.961H18.947v-2.649a.488.488,0,1,0-.977,0v2.649H16.6v-9.961h1.367v2.917a.488.488,0,1,0,.977,0v-2.917h5.078Z" transform="translate(-0.002 -166.614)"/>
      <path id="XMLID_600_" d="M344.49,114.082a.488.488,0,0,0,.488-.488v-5.279a.488.488,0,0,0-.977,0v5.279A.488.488,0,0,0,344.49,114.082Z" transform="translate(-327.205 -102.561)"/>
      <path id="XMLID_601_" d="M405.184,114.082a.488.488,0,0,0,.488-.488,6.932,6.932,0,0,1,2.044-4.934.488.488,0,1,0-.691-.691,7.9,7.9,0,0,0-2.33,5.624A.488.488,0,0,0,405.184,114.082Z" transform="translate(-384.936 -102.561)"/>
      <path id="XMLID_602_" d="M240.711,113.594a.488.488,0,1,0,.977,0,7.9,7.9,0,0,0-2.33-5.624.488.488,0,0,0-.69.691A6.932,6.932,0,0,1,240.711,113.594Z" transform="translate(-226.878 -102.561)"/>
      <path id="XMLID_603_" d="M391.156,1.628a.488.488,0,0,0,.488-.488V.488a.488.488,0,0,0-.977,0v.651A.488.488,0,0,0,391.156,1.628Z" transform="translate(-371.593)"/>
      <path id="XMLID_604_" d="M391.156,68.294a.488.488,0,0,0,.488-.488v-.651a.488.488,0,0,0-.977,0v.651A.488.488,0,0,0,391.156,68.294Z" transform="translate(-371.593 -63.411)"/>
      <path id="XMLID_605_" d="M417.823,40.977h.651a.488.488,0,1,0,0-.977h-.651a.488.488,0,1,0,0,.977Z" transform="translate(-396.958 -38.047)"/>
      <path id="XMLID_606_" d="M351.156,40.977h.651a.488.488,0,1,0,0-.977h-.651a.488.488,0,0,0,0,.977Z" transform="translate(-333.546 -38.047)"/>
      <path id="XMLID_679_" d="M165.306,36.171a1.562,1.562,0,1,0-1.562-1.562A1.564,1.564,0,0,0,165.306,36.171Zm0-2.148a.586.586,0,1,1-.586.586A.587.587,0,0,1,165.306,34.023Z" transform="translate(-155.749 -31.432)"/>
      <path id="XMLID_772_" d="M283.8,45.308a.488.488,0,1,0-.346-.143A.49.49,0,0,0,283.8,45.308Z" transform="translate(-269.479 -42.166)"/>
      <path id="XMLID_777_" d="M467.785,183.444a.488.488,0,1,0-.143-.345A.492.492,0,0,0,467.785,183.444Z" transform="translate(-444.808 -173.694)"/>
      <path id="XMLID_779_" d="M492.49,67.648a.488.488,0,1,0-.345-.143A.492.492,0,0,0,492.49,67.648Z" transform="translate(-467.979 -63.416)"/>
      <path id="XMLID_1177_" d="M368.49,382.751a.488.488,0,1,0,.345.143A.49.49,0,0,0,368.49,382.751Z" transform="translate(-350.033 -364.062)"/>
    </g>
  </g>
</svg>
