<svg id="user_5_" data-name="user (5)" xmlns="http://www.w3.org/2000/svg" width="50" height="50" viewBox="0 0 50 50">
  <path id="Path_1" data-name="Path 1" d="M32.167,8A24.166,24.166,0,0,0,13.556,47.583,19.191,19.191,0,0,1,26.634,33.828a10,10,0,1,1,11.064,0A19.191,19.191,0,0,1,50.777,47.583,24.166,24.166,0,0,0,32.167,8Z" transform="translate(-7.167 -7.167)" fill="#efece8"/>
  <path id="Path_2" data-name="Path 2" d="M85.486,98.328a10,10,0,1,0-11.063,0,19.191,19.191,0,0,0-13.078,13.754h0c.263.317.537.628.816.932.067.074.138.145.207.218.215.228.433.453.656.673.092.091.187.178.281.268.207.2.416.391.629.58.106.093.213.186.32.277q.314.269.637.527c.113.091.228.18.342.269q.328.253.664.492c.116.082.23.167.347.247.237.163.478.32.72.475.109.069.216.141.326.209.28.173.565.338.853.5.076.042.15.088.227.13q.557.305,1.133.583l.028.012q.549.263,1.113.5c.117.049.236.092.353.139.272.108.543.215.82.313.147.053.3.1.442.15.252.085.505.168.76.243.162.048.324.093.487.138q.37.1.746.194.254.061.51.117c.251.055.5.1.756.152.172.032.342.064.516.092.262.043.525.078.789.113.167.022.332.046.5.063.292.032.586.054.88.075.142.01.283.025.426.033.439.025.88.039,1.325.039s.886-.014,1.325-.038c.143-.007.284-.023.426-.033.295-.021.589-.043.88-.075.167-.018.333-.042.5-.063.264-.034.527-.07.789-.112.173-.028.344-.06.516-.092.253-.047.506-.1.756-.152q.256-.056.51-.118.375-.091.746-.194c.162-.045.326-.09.488-.138.256-.077.508-.159.76-.243.147-.05.3-.1.442-.15.276-.1.548-.205.82-.313.117-.047.237-.091.353-.139.374-.157.744-.321,1.108-.5l.033-.015q.575-.276,1.132-.583c.077-.042.151-.088.227-.13.287-.162.573-.327.853-.5.11-.067.217-.139.326-.209.243-.155.483-.312.72-.475.117-.081.232-.164.348-.248q.336-.241.664-.492c.115-.088.228-.178.342-.269q.323-.257.637-.527c.107-.092.215-.184.32-.278.213-.189.423-.383.629-.58.093-.089.188-.178.281-.268q.335-.33.656-.673c.068-.073.139-.144.208-.217.279-.3.552-.614.816-.932h0A19.186,19.186,0,0,0,85.486,98.328Z" transform="translate(-54.954 -71.667)" fill="#c6c3bd"/>
  <path id="Path_3" data-name="Path 3" d="M25,0A24.987,24.987,0,0,0,5.728,40.907c.009.012.01.028.02.04a24.993,24.993,0,0,0,9.44,7.044l.124.054c.293.123.588.238.885.349.117.044.233.089.352.132q.384.138.772.262c.166.053.332.106.5.156q.344.1.691.2c.2.055.408.106.613.155s.416.1.625.144c.233.05.469.094.706.138.19.035.379.072.571.1.263.042.527.076.792.11.171.022.341.047.513.065.3.032.6.054.906.075.141.01.281.025.422.033Q24.323,50,25,50c.451,0,.9-.013,1.343-.037.142-.008.282-.023.423-.033.3-.022.606-.043.906-.075.172-.018.342-.043.513-.065.265-.034.529-.068.792-.11.191-.031.381-.067.571-.1.236-.043.472-.087.706-.137.209-.045.417-.094.625-.144s.41-.1.613-.155c.232-.062.462-.128.691-.2.168-.05.333-.1.5-.156q.389-.125.772-.262c.117-.042.234-.087.352-.132.3-.112.592-.227.885-.349l.124-.054a25,25,0,0,0,9.44-7.044c.01-.012.011-.028.02-.04A24.989,24.989,0,0,0,25,0Zm4.987,26.014a8.827,8.827,0,0,1-1.021.571l-.124.06a9.376,9.376,0,0,1-7.683,0l-.124-.06a8.759,8.759,0,0,1-1.021-.571,9.167,9.167,0,1,1,9.973,0ZM19.7,27.774c.07.039.139.081.21.118.248.132.5.255.757.366.2.087.4.16.605.235l.12.044a10.635,10.635,0,0,0,7.208,0l.12-.044c.2-.075.408-.148.605-.235.257-.111.509-.234.758-.366.071-.038.14-.079.21-.118.119-.067.241-.13.358-.2A18.4,18.4,0,0,1,42.691,40.188a23.47,23.47,0,0,1-7.56,5.828l-.037.018c-.3.143-.6.278-.9.41l-.207.088q-.4.167-.808.319c-.113.042-.227.084-.341.124-.241.086-.482.168-.727.247-.152.048-.3.094-.457.139-.217.065-.434.127-.654.186-.185.049-.372.094-.558.138s-.391.094-.588.136c-.216.046-.433.085-.65.124-.176.033-.351.067-.528.095-.244.038-.491.069-.737.1-.156.02-.311.043-.468.06-.281.03-.564.049-.847.069-.126.008-.251.022-.378.029q-.619.033-1.241.033T23.76,48.3c-.127-.007-.252-.02-.378-.029-.283-.019-.566-.039-.847-.069-.157-.017-.312-.04-.468-.06-.246-.031-.492-.062-.737-.1-.177-.028-.353-.062-.528-.095-.218-.039-.435-.079-.65-.124-.2-.042-.393-.089-.588-.136s-.373-.089-.558-.138c-.219-.058-.437-.122-.654-.186-.152-.045-.3-.091-.457-.139q-.366-.117-.727-.247l-.341-.124q-.407-.152-.808-.319c-.069-.028-.137-.058-.206-.088-.3-.131-.608-.267-.906-.41l-.037-.018a23.446,23.446,0,0,1-7.56-5.828A18.393,18.393,0,0,1,19.348,27.573C19.463,27.644,19.584,27.708,19.7,27.774ZM43.941,38.6A20.079,20.079,0,0,0,32.235,26.374a10.834,10.834,0,1,0-14.469,0A20.081,20.081,0,0,0,6.06,38.6,23.327,23.327,0,1,1,48.333,25,23.2,23.2,0,0,1,43.941,38.6Z" fill="#646464"/>
</svg>
