<svg xmlns="http://www.w3.org/2000/svg" width="30" height="30" viewBox="0 0 30 30">
  <g id="birthday-cake" transform="translate(0 0)">
    <g id="Group_10" data-name="Group 10" transform="translate(10.261 0.586)">
      <path id="Path_105" data-name="Path 105" d="M176.631,10c-.593,0-1.516,1.824-1.516,2.642a1.517,1.517,0,0,0,3.033,0C178.148,11.824,177.224,10,176.631,10Z" transform="translate(-175.115 -10)" fill="#ffe6b4" fill-rule="evenodd"/>
    </g>
    <g id="Group_11" data-name="Group 11" transform="translate(16.707 0.586)">
      <path id="Path_106" data-name="Path 106" d="M286.641,10c-.593,0-1.516,1.824-1.516,2.642a1.516,1.516,0,0,0,3.031,0C288.156,11.824,287.233,10,286.641,10Z" transform="translate(-285.125 -10)" fill="#ffe6b4" fill-rule="evenodd"/>
    </g>
    <g id="Group_12" data-name="Group 12" transform="translate(6.675 7.319)">
      <path id="Path_107" data-name="Path 107" d="M125.465,124.914H115.292a1.379,1.379,0,0,0-1.375,1.377v1.868h3.32a.929.929,0,0,1,.925.927v1.754a1.266,1.266,0,0,0,2.531,0v-1.754a1.266,1.266,0,0,1,2.531,0,1.266,1.266,0,1,0,2.531,0,.929.929,0,0,1,.927-.927h3.885v-1.868a1.381,1.381,0,0,0-1.377-1.377Z" transform="translate(-113.917 -124.914)" fill="#ff7b79" fill-rule="evenodd"/>
    </g>
    <g id="Group_13" data-name="Group 13" transform="translate(6.675 10.226)">
      <path id="Path_108" data-name="Path 108" d="M123.223,175.785a1.266,1.266,0,0,0-2.531,0v1.754a1.266,1.266,0,0,1-2.531,0v-1.754a.929.929,0,0,0-.925-.927h-3.32v6.428h16.65v-6.428h-3.885a.929.929,0,0,0-.927.927,1.266,1.266,0,1,1-2.531,0Z" transform="translate(-113.915 -174.519)" fill="#ffbdbc" fill-rule="evenodd"/>
    </g>
    <g id="Group_14" data-name="Group 14" transform="translate(3.82 16.992)">
      <path id="Path_109" data-name="Path 109" d="M84.695,290H66.7a1.516,1.516,0,0,0-1.511,1.511v2.124l.525.565a1.794,1.794,0,0,0,2.594,0l.525-.565a1.8,1.8,0,0,1,2.594,0l.525.565a1.794,1.794,0,0,0,2.594,0l.525-.565a1.8,1.8,0,0,1,2.594,0l.525.565a1.8,1.8,0,0,0,2.6,0l.523-.565a1.8,1.8,0,0,1,2.6,0l.523.565a1.8,1.8,0,0,0,2.6,0l.523-.565v-2.124A1.514,1.514,0,0,0,86.038,290Z" transform="translate(-65.189 -290.001)" fill="#ff7b79" fill-rule="evenodd"/>
    </g>
    <g id="Group_15" data-name="Group 15" transform="translate(3.82 20.075)">
      <path id="Path_110" data-name="Path 110" d="M70.231,349.2a1.451,1.451,0,1,1,1.45-1.452A1.451,1.451,0,0,1,70.231,349.2Zm6.14,0a1.451,1.451,0,1,1,1.45-1.452A1.451,1.451,0,0,1,76.371,349.2Zm3.119-4.918a1.561,1.561,0,0,1-1.3-.555l-.525-.565a1.8,1.8,0,0,0-2.594,0l-.525.565a1.794,1.794,0,0,1-2.594,0l-.525-.565a1.8,1.8,0,0,0-2.594,0l-.525.565a1.794,1.794,0,0,1-2.594,0l-.525-.565V349.2H82.455a1.451,1.451,0,1,1,.115,0h4.981v-6.037l-.523.565a1.8,1.8,0,0,1-2.6,0l-.523-.565a1.8,1.8,0,0,0-2.6,0l-.523.565A1.566,1.566,0,0,1,79.49,344.283Z" transform="translate(-65.192 -342.61)" fill="#ffbdbc" fill-rule="evenodd"/>
    </g>
    <g id="Group_16" data-name="Group 16" transform="translate(7.409 23.764)">
      <path id="Path_111" data-name="Path 111" d="M127.895,405.567a1.451,1.451,0,1,0,1.45,1.45A1.45,1.45,0,0,0,127.895,405.567Z" transform="translate(-126.445 -405.567)" fill="#ff7b79" fill-rule="evenodd"/>
    </g>
    <g id="Group_17" data-name="Group 17" transform="translate(13.549 23.764)">
      <path id="Path_112" data-name="Path 112" d="M232.69,405.567a1.451,1.451,0,1,0,1.45,1.45A1.45,1.45,0,0,0,232.69,405.567Z" transform="translate(-231.24 -405.567)" fill="#ff7b79" fill-rule="evenodd"/>
    </g>
    <g id="Group_18" data-name="Group 18" transform="translate(19.691 23.765)">
      <path id="Path_113" data-name="Path 113" d="M337.513,405.6a1.451,1.451,0,0,0-.058,2.9h.115a1.451,1.451,0,0,0-.056-2.9Z" transform="translate(-336.063 -405.596)" fill="#ff7b79" fill-rule="evenodd"/>
    </g>
    <g id="Group_19" data-name="Group 19" transform="translate(2.222 26.665)">
      <path id="Path_114" data-name="Path 114" d="M56.782,455.087H37.921l1.468,2.749H62.007l1.47-2.749h-6.7Z" transform="translate(-37.921 -455.087)" fill="#fff" fill-rule="evenodd"/>
    </g>
    <g id="Group_20" data-name="Group 20" transform="translate(0 0)">
      <path id="Path_115" data-name="Path 115" d="M29.414,26.079H26.765V18.5a2.1,2.1,0,0,0-2.1-2.1h-.758V8.7a1.965,1.965,0,0,0-1.963-1.963H18.809V5.215a2.077,2.077,0,0,0,1.515-1.987,4.592,4.592,0,0,0-.607-1.909C19.238.444,18.736,0,18.223,0s-1.017.444-1.495,1.319a4.589,4.589,0,0,0-.608,1.909,2.077,2.077,0,0,0,1.516,1.987V6.733H12.363V5.215a2.077,2.077,0,0,0,1.516-1.987,4.589,4.589,0,0,0-.608-1.909C12.794.444,12.291,0,11.777,0s-1.017.444-1.495,1.319a4.589,4.589,0,0,0-.608,1.909,2.077,2.077,0,0,0,1.516,1.987V6.733H8.05A1.964,1.964,0,0,0,6.089,8.7v7.71H5.331a2.1,2.1,0,0,0-2.1,2.1v7.576H.586a.586.586,0,0,0,0,1.172H1.871l1.3,2.439A.586.586,0,0,0,3.69,30H26.308a.586.586,0,0,0,.517-.31l1.3-2.439h1.285a.586.586,0,0,0,0-1.172ZM17.293,3.228a4.054,4.054,0,0,1,.93-2.011,4.061,4.061,0,0,1,.929,2.011.93.93,0,0,1-1.859,0Zm-6.446,0a4.054,4.054,0,0,1,.93-2.012,4.054,4.054,0,0,1,.93,2.012.931.931,0,0,1-1.861,0ZM7.261,8.7a.791.791,0,0,1,.789-.791h13.9a.792.792,0,0,1,.791.791V9.979h-3.3a1.514,1.514,0,0,0-1.513,1.513.68.68,0,1,1-1.359,0,1.852,1.852,0,1,0-3.7,0v1.754a.68.68,0,0,1-1.359,0V11.491A1.514,1.514,0,0,0,9.995,9.979H7.261V8.7ZM4.406,18.5a.927.927,0,0,1,.925-.925h7.037a.586.586,0,0,0,0-1.172H7.261V11.151H10a.345.345,0,0,1,.339.341v1.754a1.852,1.852,0,0,0,3.7,0V11.491a.68.68,0,1,1,1.359,0,1.852,1.852,0,1,0,3.7,0,.345.345,0,0,1,.341-.341h3.3v5.256H17.63a.586.586,0,0,0,0,1.172h7.039a.926.926,0,0,1,.924.925V20.4l-.368.4a1.21,1.21,0,0,1-1.736,0l-.525-.567a2.385,2.385,0,0,0-3.454,0l-.522.564a1,1,0,0,1-.87.368.989.989,0,0,1-.868-.368l-.525-.565A2.15,2.15,0,0,0,15,19.489a2.15,2.15,0,0,0-1.726.74l-.526.566a.988.988,0,0,1-.867.366.989.989,0,0,1-.868-.368l-.525-.565a2.15,2.15,0,0,0-1.726-.74,2.15,2.15,0,0,0-1.726.74l-.526.566a.988.988,0,0,1-.867.366.989.989,0,0,1-.868-.368l-.368-.4V18.5Zm0,3.507a2.234,2.234,0,0,0,1.236.323,2.144,2.144,0,0,0,1.726-.742l.525-.565a.993.993,0,0,1,.868-.366.993.993,0,0,1,.868.366l.524.563a2.145,2.145,0,0,0,1.728.743,2.144,2.144,0,0,0,1.726-.742l.525-.565A.993.993,0,0,1,15,20.661a.993.993,0,0,1,.868.366l.524.563a2.145,2.145,0,0,0,1.728.743,2.154,2.154,0,0,0,1.729-.742l.523-.564a1.214,1.214,0,0,1,1.737,0l.523.564a2.146,2.146,0,0,0,1.729.743,2.235,2.235,0,0,0,1.234-.322v4.068H22.984a2.036,2.036,0,1,0-3.686,0H16.842a2.036,2.036,0,1,0-3.685,0H10.7a2.036,2.036,0,1,0-3.685,0H4.406Zm17.6,3.205a.864.864,0,1,1-.864-.864A.865.865,0,0,1,22.005,25.215Zm-6.142,0A.864.864,0,1,1,15,24.35.866.866,0,0,1,15.863,25.214Zm-6.14,0a.864.864,0,1,1-.864-.864A.866.866,0,0,1,9.723,25.214Zm16.234,3.614H4.042L3.2,27.251H26.8Z" transform="translate(0 0)"/>
      <path id="Path_116" data-name="Path 116" d="M246.573,281.173h0a.586.586,0,1,0-.589-.586A.585.585,0,0,0,246.576,281.173Z" transform="translate(-231.574 -263.595)"/>
    </g>
  </g>
</svg>
