<svg xmlns="http://www.w3.org/2000/svg" width="10.045" height="25" viewBox="0 0 10.045 25">
  <g id="Group_4477" data-name="Group 4477" transform="translate(-217.026 -166.744)">
    <path id="Path_1421" data-name="Path 1421" d="M217.779,91.162a3.017,3.017,0,0,1,.769,2.38c-.225,1.953-2.241,3.484-4.589,3.484a4.194,4.194,0,0,1-3.16-1.3,3.041,3.041,0,0,1-.769-2.4c.226-1.923,2.272-3.486,4.56-3.486A4.233,4.233,0,0,1,217.779,91.162Zm-1.067,2.166a1.185,1.185,0,0,0-.313-.939,2.431,2.431,0,0,0-1.809-.7c-1.336,0-2.609.866-2.725,1.851a1.189,1.189,0,0,0,.313.959,2.394,2.394,0,0,0,1.781.677C215.335,95.178,216.6,94.331,216.712,93.329Z" transform="translate(8.503 76.901)" fill="#1e0478"/>
    <path id="Path_1422" data-name="Path 1422" d="M198.455,199.538a4.975,4.975,0,0,1,.733,4.077l0,.01c-.313,1.491-.6,2.828-.757,3.547-.067.315-.112.518-.123.573-.436,2.517.1,2.88.335,3.035a1.473,1.473,0,0,1,.5.491,1.143,1.143,0,0,1-.013,1.149,5.379,5.379,0,0,1-4.429,2.337,4.585,4.585,0,0,1-3.5-1.567,4.912,4.912,0,0,1-.839-4.057.048.048,0,0,0,0-.01c.093-.509.8-4.091.845-4.321.5-2.511-.027-2.889-.254-3.05a1.466,1.466,0,0,1-.488-.5,1.144,1.144,0,0,1,.042-1.149,5.388,5.388,0,0,1,4.73-2.207A4.365,4.365,0,0,1,198.455,199.538Zm-1.079,3.712a3.2,3.2,0,0,0-.394-2.6,2.52,2.52,0,0,0-1.887-.917,3.79,3.79,0,0,0-1.873.4,3.671,3.671,0,0,0-.759.481c.655.677,1.1,1.87.559,4.553,0,0,0,.006,0,.009-.03.142-.735,3.725-.835,4.272a3.2,3.2,0,0,0,.462,2.587,2.522,2.522,0,0,0,1.91.867,3.791,3.791,0,0,0,1.862-.449,3.617,3.617,0,0,0,.746-.5c-.672-.66-1.146-1.84-.677-4.536,0,0,0-.007,0-.01.008-.041.03-.14.134-.626C196.776,206.066,197.063,204.735,197.376,203.25Z" transform="translate(26.768 -23.013)" fill="#1e0478"/>
    <path id="Path_1423" data-name="Path 1423" d="M239.121,115.119a1.185,1.185,0,0,1,.313.939c-.115,1-1.376,1.85-2.753,1.85a2.394,2.394,0,0,1-1.781-.677,1.189,1.189,0,0,1-.313-.959c.116-.986,1.389-1.851,2.725-1.851A2.432,2.432,0,0,1,239.121,115.119Z" transform="translate(-14.219 54.171)" fill="#94e7ef"/>
    <path id="Path_1424" data-name="Path 1424" d="M219.744,223.392a3.2,3.2,0,0,1,.394,2.6c-.312,1.485-.6,2.816-.754,3.532-.1.487-.126.586-.134.626,0,0,0,.006,0,.01-.469,2.7.006,3.875.677,4.536a3.622,3.622,0,0,1-.746.5,3.79,3.79,0,0,1-1.862.449,2.522,2.522,0,0,1-1.91-.867,3.2,3.2,0,0,1-.462-2.587c.1-.547.806-4.13.835-4.272,0,0,0-.006,0-.009.54-2.683.1-3.875-.559-4.553a3.664,3.664,0,0,1,.759-.481,3.789,3.789,0,0,1,1.873-.4A2.52,2.52,0,0,1,219.744,223.392Z" transform="translate(4.005 -45.754)" fill="#94e7ef"/>
  </g>
</svg>
