<svg xmlns="http://www.w3.org/2000/svg" width="300" height="78" viewBox="0 0 300 78">
  <g id="d_t_graph-most-scan" transform="translate(-8876 -9128)">
    <rect id="Rectangle_3831" data-name="Rectangle 3831" width="300" height="78" rx="10" transform="translate(8876 9128)" fill="#fff"/>
    <path id="Path_1411" data-name="Path 1411" d="M1.416,0h.616V-5.6H1.52L.248-4.976v.56l1.168-.552Zm3.9.112A1.807,1.807,0,0,0,7.28-1.752v-2.1A1.807,1.807,0,0,0,5.32-5.712,1.807,1.807,0,0,0,3.36-3.848v2.1A1.807,1.807,0,0,0,5.32.112Zm0-.5A1.238,1.238,0,0,1,3.976-1.728V-3.872A1.238,1.238,0,0,1,5.32-5.208,1.238,1.238,0,0,1,6.664-3.872v2.144A1.238,1.238,0,0,1,5.32-.392Zm5.04.5a1.807,1.807,0,0,0,1.96-1.864v-2.1a1.807,1.807,0,0,0-1.96-1.864A1.807,1.807,0,0,0,8.4-3.848v2.1A1.807,1.807,0,0,0,10.36.112Zm0-.5A1.238,1.238,0,0,1,9.016-1.728V-3.872A1.238,1.238,0,0,1,10.36-5.208,1.238,1.238,0,0,1,11.7-3.872v2.144A1.238,1.238,0,0,1,10.36-.392ZM13.608,0h.624V-2.784L16.848,0H17.6L14.912-2.832l2.6-2.768H16.76L14.232-2.872V-5.6h-.624Z" transform="translate(9022.5 9199)"/>
    <path id="Path_1412" data-name="Path 1412" d="M.56,0H4.176V-.5h-2.9L3.248-2.52a2.484,2.484,0,0,0,.92-1.656,1.58,1.58,0,0,0-1.76-1.536A1.573,1.573,0,0,0,.648-4.1v.152h.584V-4.08A1.064,1.064,0,0,1,2.408-5.208,1.045,1.045,0,0,1,3.552-4.176a1.77,1.77,0,0,1-.624,1.208L.56-.48ZM7.248.112a1.807,1.807,0,0,0,1.96-1.864v-2.1a1.807,1.807,0,0,0-1.96-1.864,1.807,1.807,0,0,0-1.96,1.864v2.1A1.807,1.807,0,0,0,7.248.112Zm0-.5A1.238,1.238,0,0,1,5.9-1.728V-3.872A1.238,1.238,0,0,1,7.248-5.208,1.238,1.238,0,0,1,8.592-3.872v2.144A1.238,1.238,0,0,1,7.248-.392Zm5.04.5a1.807,1.807,0,0,0,1.96-1.864v-2.1a1.807,1.807,0,0,0-1.96-1.864,1.807,1.807,0,0,0-1.96,1.864v2.1A1.807,1.807,0,0,0,12.288.112Zm0-.5a1.238,1.238,0,0,1-1.344-1.336V-3.872a1.238,1.238,0,0,1,1.344-1.336,1.238,1.238,0,0,1,1.344,1.336v2.144A1.238,1.238,0,0,1,12.288-.392ZM15.536,0h.624V-2.784L18.776,0h.752L16.84-2.832,19.44-5.6h-.752L16.16-2.872V-5.6h-.624Z" transform="translate(9117.5 9199)"/>
    <path id="Path_1413" data-name="Path 1413" d="M1.416,0h.616V-5.6H1.52L.248-4.976v.56l1.168-.552ZM5.28.112A1.91,1.91,0,0,0,7.3-1.784,1.788,1.788,0,0,0,5.48-3.632a1.74,1.74,0,0,0-1.312.544L4.52-5.1h2.3v-.5H4.032L3.5-2.472h.584A1.546,1.546,0,0,1,5.36-3.128,1.314,1.314,0,0,1,6.7-1.768,1.329,1.329,0,0,1,5.28-.392a1.285,1.285,0,0,1-1.312-.984H3.384A1.831,1.831,0,0,0,5.28.112Zm5.032,0a1.807,1.807,0,0,0,1.96-1.864v-2.1a1.807,1.807,0,0,0-1.96-1.864,1.807,1.807,0,0,0-1.96,1.864v2.1A1.807,1.807,0,0,0,10.312.112Zm0-.5A1.238,1.238,0,0,1,8.968-1.728V-3.872a1.238,1.238,0,0,1,1.344-1.336,1.238,1.238,0,0,1,1.344,1.336v2.144A1.238,1.238,0,0,1,10.312-.392ZM13.56,0h.624V-2.784L16.8,0h.752L14.864-2.832l2.6-2.768h-.752L14.184-2.872V-5.6H13.56Z" transform="translate(9070.5 9199)"/>
    <path id="Path_1409" data-name="Path 1409" d="M.91-7V0H3.54A2.539,2.539,0,0,0,6.3-2.69V-4.31A2.539,2.539,0,0,0,3.54-7ZM3.43-.64H1.68V-6.36H3.43a1.906,1.906,0,0,1,2.1,2.05v1.62A1.906,1.906,0,0,1,3.43-.64ZM9.81.12A2.021,2.021,0,0,0,11.9-1.45h-.68a1.357,1.357,0,0,1-1.41.99A1.444,1.444,0,0,1,8.28-2.07v-.18h3.67v-.76A2.037,2.037,0,0,0,9.78-5.24,2.092,2.092,0,0,0,7.55-2.93v.82A2.113,2.113,0,0,0,9.81.12ZM8.28-2.99c0-.94.4-1.67,1.5-1.67a1.4,1.4,0,0,1,1.46,1.59v.24H8.28ZM17.51,0V-3.4a1.857,1.857,0,0,0-2.03-1.84,1.937,1.937,0,0,0-1.99,1.37h.7a1.3,1.3,0,0,1,1.28-.77A1.186,1.186,0,0,1,16.75-3.4v.95a2.241,2.241,0,0,0-1.64-.64c-1.22,0-2.03.61-2.03,1.6,0,.93.73,1.61,1.94,1.61a2.165,2.165,0,0,0,1.76-.76V0ZM15.18-.37c-.79,0-1.38-.4-1.38-1.11s.57-1.11,1.42-1.11c.77,0,1.53.45,1.53,1.09C16.75-.84,15.98-.37,15.18-.37ZM19.12,0h.76V-7.3h-.76Zm4.44.12a2.021,2.021,0,0,0,2.09-1.57h-.68a1.357,1.357,0,0,1-1.41.99,1.444,1.444,0,0,1-1.53-1.61v-.18H25.7v-.76a2.037,2.037,0,0,0-2.17-2.23A2.092,2.092,0,0,0,21.3-2.93v.82A2.113,2.113,0,0,0,23.56.12ZM22.03-2.99c0-.94.4-1.67,1.5-1.67a1.4,1.4,0,0,1,1.46,1.59v.24H22.03ZM27.09,0h.76V-2.51c0-1.29.62-1.93,1.59-1.93h.15v-.71h-.12A1.519,1.519,0,0,0,27.8-3.94V-5.12h-.71Z" transform="translate(8971 9142)"/>
    <rect id="Rectangle_2986" data-name="Rectangle 2986" width="8" height="8" transform="translate(8958 9135)" fill="#0288d1"/>
    <path id="Path_1410" data-name="Path 1410" d="M2.42,0H3.2V-6.35H5.34V-7H.28v.65H2.42ZM7.54.12A2.021,2.021,0,0,0,9.63-1.45H8.95a1.357,1.357,0,0,1-1.41.99A1.444,1.444,0,0,1,6.01-2.07v-.18H9.68v-.76A2.037,2.037,0,0,0,7.51-5.24,2.092,2.092,0,0,0,5.28-2.93v.82A2.113,2.113,0,0,0,7.54.12ZM6.01-2.99c0-.94.4-1.67,1.5-1.67A1.4,1.4,0,0,1,8.97-3.07v.24H6.01ZM13.09.12A2.043,2.043,0,0,0,15.28-1.8H14.6A1.418,1.418,0,0,1,13.1-.48a1.453,1.453,0,0,1-1.54-1.64V-3A1.453,1.453,0,0,1,13.1-4.64a1.418,1.418,0,0,1,1.5,1.32h.68a2.043,2.043,0,0,0-2.19-1.92,2.136,2.136,0,0,0-2.27,2.25v.86A2.136,2.136,0,0,0,13.09.12ZM16.67,0h.76V-3.01a1.407,1.407,0,0,1,1.48-1.57c.92,0,1.31.59,1.31,1.46V0h.76V-3.23A1.817,1.817,0,0,0,19.1-5.24a1.769,1.769,0,0,0-1.67.91V-7.3h-.76Zm5.88,0h.76V-3.01a1.407,1.407,0,0,1,1.48-1.57c.92,0,1.31.59,1.31,1.46V0h.76V-3.23a1.817,1.817,0,0,0-1.88-2.01,1.714,1.714,0,0,0-1.71.99v-.87h-.72Zm5.93,0h.76V-5.12h-.76Zm-.1-6.47a.446.446,0,0,0,.48.46.446.446,0,0,0,.48-.46.446.446,0,0,0-.48-.46A.446.446,0,0,0,28.38-6.47ZM32.93.12A2.043,2.043,0,0,0,35.12-1.8h-.68a1.418,1.418,0,0,1-1.5,1.32A1.453,1.453,0,0,1,31.4-2.12V-3a1.453,1.453,0,0,1,1.54-1.64,1.418,1.418,0,0,1,1.5,1.32h.68a2.043,2.043,0,0,0-2.19-1.92,2.136,2.136,0,0,0-2.27,2.25v.86A2.136,2.136,0,0,0,32.93.12ZM36.56,0h.76V-5.12h-.76Zm-.1-6.47a.446.446,0,0,0,.48.46.446.446,0,0,0,.48-.46.446.446,0,0,0-.48-.46A.446.446,0,0,0,36.46-6.47ZM43.19,0V-3.4a1.857,1.857,0,0,0-2.03-1.84,1.937,1.937,0,0,0-1.99,1.37h.7a1.3,1.3,0,0,1,1.28-.77A1.186,1.186,0,0,1,42.43-3.4v.95a2.241,2.241,0,0,0-1.64-.64c-1.22,0-2.03.61-2.03,1.6,0,.93.73,1.61,1.94,1.61a2.165,2.165,0,0,0,1.76-.76V0ZM40.86-.37c-.79,0-1.38-.4-1.38-1.11s.57-1.11,1.42-1.11c.77,0,1.53.45,1.53,1.09C42.43-.84,41.66-.37,40.86-.37ZM44.75,0h.76V-3.01a1.407,1.407,0,0,1,1.48-1.57c.92,0,1.31.59,1.31,1.46V0h.76V-3.23a1.817,1.817,0,0,0-1.88-2.01,1.714,1.714,0,0,0-1.71.99v-.87h-.72Z" transform="translate(9044 9142)"/>
    <rect id="Rectangle_2987" data-name="Rectangle 2987" width="8" height="8" transform="translate(9031 9135)" fill="#81d4fa"/>
    <line id="Line_2573" data-name="Line 2573" y2="78" transform="translate(8886.5 9128)" fill="none" stroke="rgba(0,0,0,0.2)" stroke-width="1"/>
    <line id="Line_2574" data-name="Line 2574" x2="300" transform="translate(8876 9188.504)" fill="none" stroke="rgba(0,0,0,0.2)" stroke-width="1"/>
    <path id="Path_1414" data-name="Path 1414" d="M1.416,0h.616V-5.6H1.52L.248-4.976v.56l1.168-.552Zm3.9.112A1.807,1.807,0,0,0,7.28-1.752v-2.1A1.807,1.807,0,0,0,5.32-5.712,1.807,1.807,0,0,0,3.36-3.848v2.1A1.807,1.807,0,0,0,5.32.112Zm0-.5A1.238,1.238,0,0,1,3.976-1.728V-3.872A1.238,1.238,0,0,1,5.32-5.208,1.238,1.238,0,0,1,6.664-3.872v2.144A1.238,1.238,0,0,1,5.32-.392ZM8.568,0h.624V-2.784L11.808,0h.752L9.872-2.832l2.6-2.768H11.72L9.192-2.872V-5.6H8.568Z" transform="translate(8928.5 9199)"/>
    <path id="Path_1415" data-name="Path 1415" d="M2.48.112A1.91,1.91,0,0,0,4.5-1.784,1.788,1.788,0,0,0,2.68-3.632a1.74,1.74,0,0,0-1.312.544L1.72-5.1h2.3v-.5H1.232L.7-2.472h.584A1.546,1.546,0,0,1,2.56-3.128,1.314,1.314,0,0,1,3.9-1.768,1.329,1.329,0,0,1,2.48-.392a1.285,1.285,0,0,1-1.312-.984H.584A1.831,1.831,0,0,0,2.48.112Zm5.032,0a1.807,1.807,0,0,0,1.96-1.864v-2.1a1.807,1.807,0,0,0-1.96-1.864,1.807,1.807,0,0,0-1.96,1.864v2.1A1.807,1.807,0,0,0,7.512.112Zm0-.5A1.238,1.238,0,0,1,6.168-1.728V-3.872A1.238,1.238,0,0,1,7.512-5.208,1.238,1.238,0,0,1,8.856-3.872v2.144A1.238,1.238,0,0,1,7.512-.392ZM10.76,0h.624V-2.784L14,0h.752L12.064-2.832l2.6-2.768h-.752L11.384-2.872V-5.6H10.76Z" transform="translate(8975.5 9199)"/>
    <line id="Line_2585" data-name="Line 2585" y2="35.504" transform="translate(8934.5 9153)" fill="none" stroke="rgba(0,0,0,0.1)" stroke-width="1" stroke-dasharray="3"/>
    <line id="Line_2585-2" data-name="Line 2585" y2="35.504" transform="translate(8982.5 9153)" fill="none" stroke="rgba(0,0,0,0.1)" stroke-width="1" stroke-dasharray="3"/>
    <line id="Line_2585-3" data-name="Line 2585" y2="35.504" transform="translate(9031.5 9153)" fill="none" stroke="rgba(0,0,0,0.1)" stroke-width="1" stroke-dasharray="3"/>
    <line id="Line_2585-4" data-name="Line 2585" y2="35.504" transform="translate(9079.5 9153)" fill="none" stroke="rgba(0,0,0,0.1)" stroke-width="1" stroke-dasharray="3"/>
    <line id="Line_2585-5" data-name="Line 2585" y2="35.504" transform="translate(9127.5 9153)" fill="none" stroke="rgba(0,0,0,0.1)" stroke-width="1" stroke-dasharray="3"/>
    <path id="Rectangle_3840" data-name="Rectangle 3840" d="M0,0H131a2,2,0,0,1,2,2V8a2,2,0,0,1-2,2H0a0,0,0,0,1,0,0V0A0,0,0,0,1,0,0Z" transform="translate(8886 9171)" fill="#81d4fa"/>
  </g>
</svg>
