<svg id="doc" xmlns="http://www.w3.org/2000/svg" width="17.931" height="26" viewBox="0 0 17.931 26">
  <path id="Path_1066" data-name="Path 1066" d="M17.931,24.655H0V0H13.9l4.034,4.035Zm0,0" fill="#e3e4d8"/>
  <path id="Path_1067" data-name="Path 1067" d="M273.656,0V4.035h4.034Zm0,0" transform="translate(-259.759)" fill="#d0cebd"/>
  <path id="Path_1068" data-name="Path 1068" d="M0,353.1H17.931v8.069H0Zm0,0" transform="translate(0 -335.171)" fill="#2c81e4"/>
  <path id="Path_1069" data-name="Path 1069" d="M241.482,384.966h-1.789a1.35,1.35,0,0,1-1.349-1.349v-2.681a1.351,1.351,0,0,1,1.349-1.349h1.789a.448.448,0,1,1,0,.9h-1.789a.453.453,0,0,0-.452.452v2.681a.453.453,0,0,0,.452.452h1.789a.448.448,0,1,1,0,.9Zm0,0" transform="translate(-226.241 -360.31)" fill="#fff"/>
  <path id="Path_1070" data-name="Path 1070" d="M79.449,132.414h9.862v8.517H79.449Zm0,0" transform="translate(-75.415 -125.69)" fill="#2c81e4"/>
  <g id="Group_4036" data-name="Group 4036" transform="translate(2.241 8.517)">
    <path id="Path_1071" data-name="Path 1071" d="M119.235,172.649a.449.449,0,0,1-.425-.307l-.919-2.759-.919,2.759a.448.448,0,0,1-.851,0l-1.345-4.035a.449.449,0,0,1,.851-.284l.919,2.759.919-2.759a.448.448,0,0,1,.851,0l.919,2.759.919-2.759a.448.448,0,0,1,.851.284l-1.345,4.034A.449.449,0,0,1,119.235,172.649Zm0,0" transform="translate(-111.166 -167.718)" fill="#fff"/>
    <path id="Path_1072" data-name="Path 1072" d="M45.033,384.966h-.448a.448.448,0,0,1-.448-.448v-4.483a.448.448,0,0,1,.448-.448h.448a2.69,2.69,0,1,1,0,5.379Zm0-.9h0Zm0-3.586v3.586a1.793,1.793,0,0,0,0-3.586Zm0,0" transform="translate(-44.137 -368.827)" fill="#fff"/>
    <path id="Path_1073" data-name="Path 1073" d="M143.484,384.966h-.9a1.346,1.346,0,0,1-1.345-1.345v-2.69a1.346,1.346,0,0,1,1.345-1.345h.9a1.347,1.347,0,0,1,1.345,1.345v2.69A1.346,1.346,0,0,1,143.484,384.966Zm-.9-4.483a.449.449,0,0,0-.448.448v2.69a.449.449,0,0,0,.448.448h.9a.449.449,0,0,0,.448-.448v-2.69a.449.449,0,0,0-.448-.448Zm0,0" transform="translate(-136.311 -368.827)" fill="#fff"/>
  </g>
</svg>
