<svg id="pdf" xmlns="http://www.w3.org/2000/svg" width="17.931" height="26" viewBox="0 0 17.931 26">
  <path id="Path_1056" data-name="Path 1056" d="M17.931,24.655H0V0H13.9l4.034,4.035Zm0,0" fill="#e3e4d8"/>
  <path id="Path_1057" data-name="Path 1057" d="M273.656,0V4.035h4.034Zm0,0" transform="translate(-259.759)" fill="#d0cebd"/>
  <path id="Path_1058" data-name="Path 1058" d="M0,353.1H17.931v8.069H0Zm0,0" transform="translate(0 -335.171)" fill="#b53438"/>
  <g id="Group_4035" data-name="Group 4035" transform="translate(2.241 19.276)">
    <path id="Path_1059" data-name="Path 1059" d="M44.585,384.966a.448.448,0,0,1-.448-.448v-4.483a.448.448,0,0,1,.9,0v4.483A.448.448,0,0,1,44.585,384.966Zm0,0" transform="translate(-44.137 -379.586)" fill="#fff"/>
    <path id="Path_1060" data-name="Path 1060" d="M241.482,380.482h-2.69a.448.448,0,0,1,0-.9h2.69a.448.448,0,1,1,0,.9Zm0,0" transform="translate(-228.482 -379.586)" fill="#fff"/>
    <path id="Path_1061" data-name="Path 1061" d="M241.482,424.619h-2.69a.448.448,0,1,1,0-.9h2.69a.448.448,0,0,1,0,.9Zm0,0" transform="translate(-228.482 -421.481)" fill="#fff"/>
    <path id="Path_1062" data-name="Path 1062" d="M238.792,384.966a.448.448,0,0,1-.448-.448v-4.483a.448.448,0,0,1,.9,0v4.483A.448.448,0,0,1,238.792,384.966Zm0,0" transform="translate(-228.482 -379.586)" fill="#fff"/>
  </g>
  <path id="Path_1063" data-name="Path 1063" d="M84.05,80.246a1.048,1.048,0,0,0,.043,1.419c.424-.933-.024-1.425-.043-1.419m.271,3.734a31.263,31.263,0,0,1-1.195,3.337,22.54,22.54,0,0,1,2.9-.891,15.1,15.1,0,0,1-1.707-2.446m3.337,2.9c.364.277.453.416.691.416a.569.569,0,0,0,.643-.377c-.055-.029-.128-.087-.525-.087a6.55,6.55,0,0,0-.809.047m-6.092,1.96c-.955.529-1.344.965-1.372,1.21,0,.041-.017.148.192.305.067-.021.455-.2,1.179-1.516M80.377,91.1a.723.723,0,0,1-.432-.144,1.054,1.054,0,0,1-.5-.99c.081-.718.98-1.47,2.674-2.236a29.379,29.379,0,0,0,1.692-4.743c-.446-.958-.879-2.2-.564-2.931a.853.853,0,0,1,.507-.537,2.25,2.25,0,0,1,.454-.075c.234,0,.46.28.568.462a1.816,1.816,0,0,1,.171,1.11,9.843,9.843,0,0,1-.166,1.1c-.053.266-.112.531-.176.8a14.08,14.08,0,0,0,2.272,3.335,8.816,8.816,0,0,1,1.5-.157c.7,0,1.123.161,1.3.492a.884.884,0,0,1-.174.953,1.19,1.19,0,0,1-.991.525,2.982,2.982,0,0,1-1.881-1.008A21.621,21.621,0,0,0,82.685,88.3a12.482,12.482,0,0,1-1.065,1.876c-.457.635-.852.93-1.243.93" transform="translate(-75.407 -75.415)" fill="#b53438"/>
  <path id="Path_1064" data-name="Path 1064" d="M45.93,383.172H44.585a.448.448,0,0,1-.448-.448v-2.69a.448.448,0,0,1,.448-.448H45.93a1.793,1.793,0,0,1,0,3.586Zm-.9-.9h.9a.9.9,0,0,0,0-1.793h-.9Zm0,0" transform="translate(-41.895 -360.31)" fill="#fff"/>
  <path id="Path_1065" data-name="Path 1065" d="M142.138,384.966h-.448a.448.448,0,0,1-.448-.448v-4.483a.448.448,0,0,1,.448-.448h.448a2.69,2.69,0,1,1,0,5.379Zm0-.9h0Zm0-3.586v3.586a1.793,1.793,0,0,0,0-3.586Zm0,0" transform="translate(-134.069 -360.31)" fill="#fff"/>
</svg>
