<svg xmlns="http://www.w3.org/2000/svg" width="121.025" height="121.125" viewBox="0 0 121.025 121.125">
  <g id="g18" transform="translate(334 -246.9)">
    <path id="path4" d="M-288.8,297.7l5.7-5.7,42.4,42.4-5.7,5.7Z" fill="#9a9a9a"/>
    <path id="path6" d="M-240.7,334.5l-5.7,5.7a3.984,3.984,0,0,0,0,5.7l19.8,19.8a8.028,8.028,0,0,0,11.3,0,8.028,8.028,0,0,0,0-11.3l-19.8-19.9A3.866,3.866,0,0,0-240.7,334.5Z" fill="#cfd8dc"/>
    <circle id="circle8" cx="48" cy="48" r="48" transform="translate(-334 246.9)" fill="#cfd8dc"/>
    <circle id="circle10" cx="36" cy="36" r="36" transform="translate(-322 258.9)" fill="#fff"/>
    <circle id="circle12" cx="5" cy="5" r="5" transform="translate(-309 285.9)" fill="#9a9a9a"/>
    <circle id="circle14" cx="5" cy="5" r="5" transform="translate(-273 285.9)" fill="#9a9a9a"/>
    <path id="path16" d="M-276.2,312.9a2.025,2.025,0,0,0,2-2.3,12.108,12.108,0,0,0-11.8-9.7,12.108,12.108,0,0,0-11.8,9.7,2.025,2.025,0,0,0,2,2.3Z" fill="#9a9a9a"/>
  </g>
</svg>
