<svg xmlns="http://www.w3.org/2000/svg" width="30" height="30" viewBox="0 0 30 30">
  <g id="gift" transform="translate(-32.482 0)">
    <path id="Path_96" data-name="Path 96" d="M60.943,242.089l-3.261-1.037a1.065,1.065,0,0,0-.342-.053h-20.9a.94.94,0,0,0-1.007.879v12.363a2.844,2.844,0,0,0,3.02,2.637H58.588a2.844,2.844,0,0,0,3.02-2.637V242.915A.887.887,0,0,0,60.943,242.089Z" transform="translate(-2.755 -226.878)" fill="#fc1a40"/>
    <path id="Path_97" data-name="Path 97" d="M243.521,242.915v11.326a2.844,2.844,0,0,1-3.02,2.637H230.435V241h8.818a1.064,1.064,0,0,1,.342.053l3.261,1.037A.887.887,0,0,1,243.521,242.915Z" transform="translate(-184.668 -226.878)" fill="#c60034"/>
    <path id="Path_98" data-name="Path 98" d="M175.473,5.73a3.811,3.811,0,0,0-2.758-2.549,4.454,4.454,0,0,0-3.906.738l-2.335,1.793-.463-2.689a3.685,3.685,0,0,0-2.476-2.76,4.261,4.261,0,0,0-.785-.193,4.466,4.466,0,0,0-3.181.615,3.386,3.386,0,0,0-1.651,3.375,3.71,3.71,0,0,0,2.658,2.848l2.174.686,2.678.861h.02L170.1,9.949a4.89,4.89,0,0,0,1.409.211,4.422,4.422,0,0,0,2.718-.914A3.3,3.3,0,0,0,175.473,5.73Z" transform="translate(-116.983 0)" fill="#fe9923"/>
    <path id="Path_99" data-name="Path 99" d="M241.911,10.363a4.422,4.422,0,0,1-2.718.914,4.89,4.89,0,0,1-1.409-.211l-4.651-1.494h-.02l-2.678-.861V1.187a4.266,4.266,0,0,1,.785.193A3.685,3.685,0,0,1,233.7,4.14l.463,2.689,2.335-1.793A4.454,4.454,0,0,1,240.4,4.3a3.811,3.811,0,0,1,2.758,2.549A3.3,3.3,0,0,1,241.911,10.363Z" transform="translate(-184.668 -1.117)" fill="#fe8821"/>
    <path id="Path_100" data-name="Path 100" d="M62.3,61.18l-1.369,3.3a1.029,1.029,0,0,1-.946.563,1.064,1.064,0,0,1-.342-.053l-10.409-3.3-.946-2.725-2.517.492-2.215.439-10.409-3.3a.867.867,0,0,1-.6-1.125l1.389-3.3a2.74,2.74,0,0,1,1.55-1.494,3.379,3.379,0,0,1,2.315-.088l7.973,2.531.544.176s2.174,3.445,2.235,3.445c.04,0,.906-.422,1.752-.826s1.691-.826,1.691-.826l8.5,2.707a2.935,2.935,0,0,1,1.711,1.371A2.3,2.3,0,0,1,62.3,61.18Z" transform="translate(0 -47.463)" fill="#ff3e75"/>
    <path id="Path_101" data-name="Path 101" d="M246.964,104.467l-1.369,3.3a1.029,1.029,0,0,1-.946.563,1.064,1.064,0,0,1-.342-.053l-10.409-3.3-.946-2.725-2.517.492V96.4l.544.176s2.174,3.445,2.235,3.445c.04,0,.906-.422,1.752-.826s1.691-.826,1.691-.826l8.5,2.707a2.935,2.935,0,0,1,1.711,1.371A2.3,2.3,0,0,1,246.964,104.467Z" transform="translate(-184.668 -90.75)" fill="#fc1a40"/>
    <g id="Group_8" data-name="Group 8" transform="translate(42.747 5.824)">
      <path id="Path_102" data-name="Path 102" d="M185.435,241v15.879h6.04V241Z" transform="translate(-185.435 -232.702)" fill="#fcbf29"/>
      <path id="Path_103" data-name="Path 103" d="M200.193,99.4l-.544,1.3-2.215,5.309,2.215.7,2.517.791.946.3,2.758-6.609Z" transform="translate(-196.63 -99.398)" fill="#fcbf29"/>
    </g>
    <g id="Group_9" data-name="Group 9" transform="translate(45.767 5.824)">
      <rect id="Rectangle_1" data-name="Rectangle 1" width="3.02" height="15.879" transform="translate(0 8.297)" fill="#fe9923"/>
      <path id="Path_104" data-name="Path 104" d="M236.656,101.191,233.9,107.8l-.946-.3-2.517-.791V100.7l.544-1.3Z" transform="translate(-230.435 -99.398)" fill="#fe9923"/>
    </g>
  </g>
</svg>
