<svg id="goal" xmlns="http://www.w3.org/2000/svg" width="35" height="35" viewBox="0 0 35 35">
  <path id="Path_1077" data-name="Path 1077" d="M17.5,35A17.5,17.5,0,1,1,35,17.5,17.52,17.52,0,0,1,17.5,35Zm0,0" fill="#fe0050"/>
  <path id="Path_1078" data-name="Path 1078" d="M256,0V35a17.5,17.5,0,0,0,0-35Zm0,0" transform="translate(-238.5)" fill="#e10555"/>
  <path id="Path_1079" data-name="Path 1079" d="M96.689,108.379a11.689,11.689,0,1,1,11.689-11.689A11.7,11.7,0,0,1,96.689,108.379Zm0,0" transform="translate(-79.189 -79.189)" fill="#d9e7f3"/>
  <path id="Path_1080" data-name="Path 1080" d="M256,85v23.379A11.689,11.689,0,0,0,256,85Zm0,0" transform="translate(-238.5 -79.189)" fill="#c8d4df"/>
  <path id="Path_1081" data-name="Path 1081" d="M180.537,186.074a5.537,5.537,0,1,1,5.537-5.537A5.543,5.543,0,0,1,180.537,186.074Zm0,0" transform="translate(-163.037 -163.037)" fill="#fe0050"/>
  <path id="Path_1082" data-name="Path 1082" d="M256,175v11.074A5.537,5.537,0,0,0,256,175Zm0,0" transform="translate(-238.5 -163.037)" fill="#e10555"/>
  <path id="Path_1083" data-name="Path 1083" d="M242.025,140.282a1.025,1.025,0,0,1-.725-1.75l7.541-7.541a1.025,1.025,0,0,1,1.45,1.45l-7.541,7.541A1.021,1.021,0,0,1,242.025,140.282Zm0,0" transform="translate(-224.525 -121.757)" fill="#2d2d55"/>
  <path id="Path_1084" data-name="Path 1084" d="M254.385,135.086l-8.991,8.991a1.025,1.025,0,0,0,1.45,0l7.541-7.541A1.025,1.025,0,0,0,254.385,135.086Zm0,0" transform="translate(-228.619 -125.852)" fill="#0a0a48"/>
  <path id="Path_1085" data-name="Path 1085" d="M351.733,19.115c-.029,0-.057,0-.086,0l-4.012-.338a1.026,1.026,0,0,1-.936-.936l-.339-4.012a1.025,1.025,0,0,1,.3-.811l4.35-4.35a1.025,1.025,0,0,1,1.747.639l.265,3.149,3.149.266a1.025,1.025,0,0,1,.639,1.747l-4.35,4.35a1.025,1.025,0,0,1-.725.3Zm0,0" transform="translate(-322.68 -7.792)" fill="#ffc300"/>
  <path id="Path_1086" data-name="Path 1086" d="M364.876,68.434l-3.149-.266L355.7,74.192a1.024,1.024,0,0,0,.639.3l4.012.338c.029,0,.057,0,.086,0a1.025,1.025,0,0,0,.725-.3l4.35-4.35a1.025,1.025,0,0,0-.639-1.747Zm0,0" transform="translate(-331.387 -63.508)" fill="#fab400"/>
</svg>
