<svg xmlns="http://www.w3.org/2000/svg" width="25" height="25" viewBox="0 0 25 25">
  <g id="icon_checkin_location" transform="translate(0 0)">
    <g id="Group_4409" data-name="Group 4409" transform="translate(0.488 0.488)">
      <path id="Path_1170" data-name="Path 1170" d="M311.766,180.883a4.86,4.86,0,0,1-.82,2.709l-4.062,6.373-4.062-6.373a4.883,4.883,0,1,1,8.945-2.709Zm-2.93,0a1.953,1.953,0,1,0-1.953,1.953A1.953,1.953,0,0,0,308.836,180.883Z" transform="translate(-287.742 -167.895)" fill="#ff7b79"/>
      <circle id="Ellipse_20" data-name="Ellipse 20" cx="0.977" cy="0.977" r="0.977" transform="translate(18.164 22.07)" fill="#a7e8a6"/>
      <path id="Path_1171" data-name="Path 1171" d="M19.766,14.883a4.86,4.86,0,0,1-.82,2.709l-4.062,6.666L10.82,17.592a4.883,4.883,0,1,1,8.945-2.709Zm-2.93,0a1.953,1.953,0,1,0-1.953,1.953A1.953,1.953,0,0,0,16.836,14.883Z" transform="translate(-10 -10)" fill="#ff7b79"/>
      <circle id="Ellipse_21" data-name="Ellipse 21" cx="0.977" cy="0.977" r="0.977" transform="translate(3.906 14.258)" fill="#a7e8a6"/>
    </g>
    <g id="Group_4410" data-name="Group 4410" transform="translate(0 0)">
      <path id="Path_1172" data-name="Path 1172" d="M4.626,14.462a1.465,1.465,0,1,0,2.126,1.749h3.795a1.465,1.465,0,0,1,0,2.93H4.688a2.441,2.441,0,0,0,0,4.883H9.57a.488.488,0,0,0,0-.977H4.688a1.465,1.465,0,0,1,0-2.93h5.859a2.441,2.441,0,1,0,0-4.883H6.752a1.472,1.472,0,0,0-.636-.772L9.845,8.343a5.371,5.371,0,1,0-8.949,0Zm.745,1.749a.488.488,0,1,1,.488-.488A.489.489,0,0,1,5.371,16.211Zm0-15.234A4.4,4.4,0,0,1,9.028,7.809l-.011.017L5.371,13.808l-3.656-6A4.4,4.4,0,0,1,5.371.977Z" transform="translate(0 0)"/>
      <path id="Path_1173" data-name="Path 1173" d="M62.441,64.883A2.441,2.441,0,1,0,60,62.441,2.444,2.444,0,0,0,62.441,64.883Zm0-3.906a1.465,1.465,0,1,1-1.465,1.465A1.467,1.467,0,0,1,62.441,60.977Z" transform="translate(-57.07 -57.07)"/>
      <path id="Path_1174" data-name="Path 1174" d="M282.152,166a5.372,5.372,0,0,0-4.471,8.347l3.715,5.828a1.472,1.472,0,0,0-.625.766h-4.283a.488.488,0,0,0,0,.977h4.283a1.465,1.465,0,1,0,2.137-1.742l3.715-5.828A5.372,5.372,0,0,0,282.152,166Zm0,15.918a.488.488,0,1,1,.488-.488A.489.489,0,0,1,282.152,181.918Zm3.656-8.109-3.656,5.735-3.656-5.735a4.395,4.395,0,1,1,7.313,0Z" transform="translate(-262.523 -157.895)"/>
      <path id="Path_1175" data-name="Path 1175" d="M354.441,226a2.441,2.441,0,1,0,2.441,2.441A2.444,2.444,0,0,0,354.441,226Zm0,3.906a1.465,1.465,0,1,1,1.465-1.465A1.467,1.467,0,0,1,354.441,229.906Z" transform="translate(-334.813 -214.965)"/>
      <circle id="Ellipse_22" data-name="Ellipse 22" cx="0.488" cy="0.488" r="0.488" transform="translate(11.279 23.047)"/>
    </g>
  </g>
</svg>
