<svg xmlns="http://www.w3.org/2000/svg" width="20.403" height="30" viewBox="0 0 20.403 30">
  <g id="icon_payment_received" transform="translate(5107 974)">
    <path id="Path_1130" data-name="Path 1130" d="M91.251,66.636l-2.577,3.45a.944.944,0,0,0-.151-.012H83.678a.945.945,0,0,0-.151.012l-2.577-3.45a.582.582,0,0,1,.25-.889,5.737,5.737,0,0,1,4.9.321,5.73,5.73,0,0,1,4.9-.32.581.581,0,0,1,.25.888Z" transform="translate(-5183.301 -1031.875)" fill="#13bf6d"/>
    <path id="Path_1131" data-name="Path 1131" d="M76.583,136.671H74.427a5.633,5.633,0,0,1-5.014-8.19l3.745-7.333h4.7l3.744,7.333A5.635,5.635,0,0,1,76.583,136.671Z" transform="translate(-5172.707 -1080.971)" fill="#13bf6d"/>
    <path id="Path_1132" data-name="Path 1132" d="M176.5,128.789c-.443-.146-.9-.274-1.157-1.38-.236,1.018-.615,1.2-1.157,1.38a1.536,1.536,0,0,1,1.157,1.38C175.584,129.126,175.984,128.959,176.5,128.789Z" transform="translate(-5265.432 -1086.48)" fill="#f0c020"/>
    <path id="Path_1133" data-name="Path 1133" d="M193.468,154.216c-.443-.146-.9-.274-1.157-1.38-.236,1.018-.615,1.2-1.157,1.38a1.536,1.536,0,0,1,1.157,1.38C192.554,154.553,192.954,154.386,193.468,154.216Z" transform="translate(-5280.362 -1108.851)" fill="#f0c020"/>
    <path id="Path_1134" data-name="Path 1134" d="M47.914,142.732c-.443-.146-.9-.274-1.157-1.38-.236,1.019-.615,1.2-1.157,1.38a1.536,1.536,0,0,1,1.157,1.38C47,143.069,47.4,142.9,47.914,142.732Z" transform="translate(-5152.304 -1098.747)" fill="#f0c020"/>
    <path id="Path_1135" data-name="Path 1135" d="M102.257,104.712a.945.945,0,0,0-.151-.012H97.261a.945.945,0,0,0-.151.012.988.988,0,0,0,.151,1.965h4.844a.988.988,0,0,0,.151-1.965Z" transform="translate(-5196.884 -1066.5)" fill="#f0c020"/>
    <path id="Path_1136" data-name="Path 1136" d="M102.1,8.349l2.71,3.322,2.71-3.322h-1.4l.291-2.638h-3.2l.291,2.638Z" transform="translate(-5202.014 -979.41)" fill="#72c1e8"/>
    <path id="Path_1138" data-name="Path 1138" d="M131.416,191.526a.3.3,0,0,1,0-.6,4.011,4.011,0,0,0,3.969-4.556.3.3,0,1,1,.6-.082,4.613,4.613,0,0,1-4.564,5.239Zm3.665-6.229q-.045-.1-.1-.2a.3.3,0,0,1,.535-.273q.058.115.11.232a.3.3,0,1,1-.55.243Z" transform="translate(-5227.54 -1136.847)" fill="#76ffba"/>
    <path id="Path_1139" data-name="Path 1139" d="M109.44,111.026h-4.117a.3.3,0,1,1,0-.6h4.117a.3.3,0,0,1,0,.6Z" transform="translate(-5204.583 -1071.537)" fill="#f9e5af"/>
    <path id="Path_1140" data-name="Path 1140" d="M173.455,128.063c.213-.918.526-1.022.96-1.165a.3.3,0,0,0,0-.565c-.417-.137-.742-.226-.96-1.165a.3.3,0,0,0-.579,0c-.213.918-.51,1.016-.96,1.165a.3.3,0,0,0,0,.565c.747.247.832.612.96,1.165a.3.3,0,0,0,.579,0Zm-.284-.948a1.543,1.543,0,0,0-.465-.492,1.473,1.473,0,0,0,.461-.518,1.518,1.518,0,0,0,.445.514A1.471,1.471,0,0,0,173.172,127.115Z" transform="translate(-5263.256 -1084.307)"/>
    <path id="Path_1141" data-name="Path 1141" d="M189.846,153.49a.3.3,0,0,0,.579,0c.213-.918.526-1.022.96-1.165a.3.3,0,0,0,0-.565c-.417-.137-.742-.226-.96-1.165a.3.3,0,0,0-.579,0c-.213.918-.51,1.016-.96,1.165a.3.3,0,0,0,0,.565C189.634,152.572,189.718,152.937,189.846,153.49Zm.291-1.959a1.516,1.516,0,0,0,.445.514,1.471,1.471,0,0,0-.44.5,1.544,1.544,0,0,0-.465-.492,1.475,1.475,0,0,0,.461-.518Z" transform="translate(-5278.186 -1106.677)"/>
    <path id="Path_1142" data-name="Path 1142" d="M44.291,139.115c-.213.918-.51,1.016-.96,1.165a.3.3,0,0,0,0,.565c.747.247.832.612.96,1.165a.3.3,0,0,0,.579,0c.213-.918.526-1.022.96-1.165a.3.3,0,0,0,0-.565c-.417-.137-.742-.226-.96-1.165a.3.3,0,0,0-.579,0Zm.291.936a1.516,1.516,0,0,0,.445.514,1.471,1.471,0,0,0-.44.5,1.545,1.545,0,0,0-.466-.492A1.474,1.474,0,0,0,44.582,140.051Z" transform="translate(-5150.126 -1096.578)"/>
    <path id="Path_1143" data-name="Path 1143" d="M145.53,63.141a.3.3,0,0,0,.3.3h0a.3.3,0,1,0-.3-.3Z" transform="translate(-5240.221 -1029.674)"/>
    <path id="Path_1144" data-name="Path 1144" d="M68.036,75.552a.307.307,0,0,0-.4.131l-.695,1.362a5.933,5.933,0,0,0,5.279,8.627h2.159a5.935,5.935,0,0,0,5.282-8.627l-3.551-6.956a1.288,1.288,0,0,0,.248-2.351l2.335-3.125a.881.881,0,0,0-.38-1.347,6.033,6.033,0,0,0-.945-.288.3.3,0,0,0-.357.231.3.3,0,0,0,.23.357,5.5,5.5,0,0,1,.851.259.282.282,0,0,1,.119.43l-2.477,3.318H74.368l.975-1.9a.3.3,0,1,0-.535-.274l-1.115,2.177H72.9l-1.115-2.177a.3.3,0,1,0-.535.274l.975,1.9H70.866l-2.479-3.318a.281.281,0,0,1,.12-.43,5.43,5.43,0,0,1,4.643.3.3.3,0,0,0,.292,0,5.44,5.44,0,0,1,1.533-.571.3.3,0,0,0-.124-.588,6,6,0,0,0-1.554.555,6.036,6.036,0,0,0-5.011-.259.882.882,0,0,0-.38,1.349l2.333,3.124a1.29,1.29,0,0,0,.249,2.353l-1.763,3.453a.3.3,0,0,0,.13.4.305.305,0,0,0,.405-.131h0l1.872-3.665h4.328l3.661,7.169a5.334,5.334,0,0,1-4.747,7.753H72.219a5.333,5.333,0,0,1-4.747-7.753l.695-1.361a.3.3,0,0,0-.131-.405Zm2.151-6.693a.692.692,0,0,1,.686-.688h0c5.072,0,4.866-.006,4.947.008h0a.688.688,0,0,1-.106,1.368H70.875a.689.689,0,0,1-.688-.687Z" transform="translate(-5170.498 -1029.672)"/>
    <path id="Path_1145" data-name="Path 1145" d="M81.96,160.007a.3.3,0,1,0,.273-.535.3.3,0,0,0-.4.131.3.3,0,0,0,.131.4Z" transform="translate(-5184.147 -1114.661)"/>
    <path id="Path_1146" data-name="Path 1146" d="M133.347,39.286a.3.3,0,1,0,.423-.043A.309.309,0,0,0,133.347,39.286Z" transform="translate(-5229.443 -1008.854)"/>
    <path id="Path_1147" data-name="Path 1147" d="M99.675,6.336l2.709,3.321a.3.3,0,0,0,.465,0l.578-.708a.3.3,0,0,0-.042-.423.309.309,0,0,0-.423.043l-.345.423L100.54,6.447h.767a.3.3,0,0,0,.3-.334l-.291-2.638a.3.3,0,0,0-.6.066l.255,2.305H99.907a.3.3,0,0,0-.232.49Z" transform="translate(-5199.818 -977.207)"/>
    <path id="Path_1148" data-name="Path 1148" d="M133.67,3.211a.3.3,0,0,0-.332.267l-.291,2.637a.3.3,0,0,0,.3.334h.767l-.213.26a.3.3,0,0,0,.466.38l.612-.75a.3.3,0,0,0-.232-.49h-1.065l.254-2.305a.3.3,0,0,0-.266-.332Z" transform="translate(-5229.237 -977.209)"/>
    <path id="Path_1150" data-name="Path 1150" d="M166.473,143.925a.372.372,0,0,0,0-.745h-4.405a.372.372,0,1,0,0,.745h1.261a1.469,1.469,0,0,1,1.471,1.117h-2.732a.372.372,0,1,0,0,.745H164.8a1.469,1.469,0,0,1-1.471,1.117h-1.261a.388.388,0,0,0-.256.665l3.151,2.981a.371.371,0,0,0,.526-.012.39.39,0,0,0-.015-.541L163,147.65h.324a2.256,2.256,0,0,0,2.231-1.862h.913a.372.372,0,1,0,0-.745h-.913a2.162,2.162,0,0,0-.555-1.117Zm0,0" transform="translate(-5261.717 -1097.828)" fill="#fff"/>
  </g>
</svg>
