<svg xmlns="http://www.w3.org/2000/svg" width="22.772" height="25" viewBox="0 0 22.772 25">
  <g id="icon_outstanding" transform="translate(-22.812 0)">
    <path id="Path_1120" data-name="Path 1120" d="M295.451,7.457a4.8,4.8,0,1,0-7.745.314l-.1,2.26a.347.347,0,0,0,.494.33l2.05-.958A4.8,4.8,0,0,0,295.451,7.457Z" transform="translate(-250.973)" fill="#e5e4d3"/>
    <path id="Path_1121" data-name="Path 1121" d="M339.1,50.424h1.668a.406.406,0,0,1,.4.486,2.518,2.518,0,1,1-2.957-2.957.406.406,0,0,1,.486.4v1.668A.405.405,0,0,0,339.1,50.424Z" transform="translate(-298.066 -45.604)" fill="#fec007"/>
    <path id="Path_1122" data-name="Path 1122" d="M67.819,84.04l-6.6,6.6-3.3-3.3a4.665,4.665,0,0,1-.7-5.709l-.77-.769a4.666,4.666,0,0,1-5.709-.7l-3.3-3.3,6.6-6.6,3.3,3.3a4.666,4.666,0,0,1,.7,5.709l.77.769a4.666,4.666,0,0,1,5.708.7Z" transform="translate(-23.438 -66.839)" fill="#caedff"/>
    <path id="Path_1123" data-name="Path 1123" d="M166.562,73.566l-3.3-3.3-.989.989,3.3,3.3a4.665,4.665,0,0,1,.933,5.263.735.735,0,0,0,.146.83l0,0a.735.735,0,0,0,.83.146,4.665,4.665,0,0,1,5.263.933l3.3,3.3.989-.989-3.3-3.3a4.666,4.666,0,0,0-5.709-.7l-.769-.769A4.666,4.666,0,0,0,166.562,73.566Z" transform="translate(-132.653 -66.837)" fill="#76c2e0"/>
    <path id="Path_1124" data-name="Path 1124" d="M30.912,45.743l.779.779a.405.405,0,0,1,0,.573L24.283,54.5a.405.405,0,0,1-.573,0l-.779-.779a.405.405,0,0,1,0-.573l7.408-7.408A.405.405,0,0,1,30.912,45.743Z" transform="translate(0 -43.396)" fill="#2796af"/>
    <path id="Path_1125" data-name="Path 1125" d="M41.438,56.27l.378.378a.405.405,0,0,1,0,.573l-7.408,7.408a.405.405,0,0,1-.573,0l-.378-.378Z" transform="translate(-10.125 -53.522)" fill="#0e7889"/>
    <path id="Path_1126" data-name="Path 1126" d="M313.017,327.848l.779.779a.405.405,0,0,1,0,.573l-7.408,7.408a.405.405,0,0,1-.573,0l-.779-.779a.405.405,0,0,1,0-.573l7.408-7.408A.405.405,0,0,1,313.017,327.848Z" transform="translate(-268.33 -311.727)" fill="#2796af"/>
    <path id="Path_1127" data-name="Path 1127" d="M323.306,338.138l.39.39a.405.405,0,0,1,0,.573l-7.408,7.408a.405.405,0,0,1-.573,0l-.39-.39Z" transform="translate(-278.23 -321.627)" fill="#0e7889"/>
    <g id="Group_4406" data-name="Group 4406" transform="translate(27.486 11.393)">
      <path id="Path_1128" data-name="Path 1128" d="M123.908,233.332a.405.405,0,0,1,.317.657l-.155.195a3.217,3.217,0,0,1-5.171.152l-.279-.343a.405.405,0,0,1,.314-.661Z" transform="translate(-118.528 -233.332)" fill="#fec007"/>
      <path id="Path_1129" data-name="Path 1129" d="M256.708,360.95a2.027,2.027,0,0,0,.564,1.326l2.147,2.147a.405.405,0,0,0,.573,0l2.781-2.781a.405.405,0,0,0-.287-.692h-5.778Z" transform="translate(-249.961 -354.719)" fill="#fec007"/>
    </g>
  </g>
</svg>
