<svg xmlns="http://www.w3.org/2000/svg" width="25" height="25" viewBox="0 0 25 25">
  <g id="icon_expense" transform="translate(4756 705)">
    <path id="Path_1151" data-name="Path 1151" d="M280,48h11.207V65.241H280Z" transform="translate(-5022.207 -751.707)" fill="#2d7dbf"/>
    <path id="Path_1152" data-name="Path 1152" d="M72,48H83.207V65.241H72Z" transform="translate(-4825.414 -751.707)" fill="#348fd9"/>
    <path id="Path_1153" data-name="Path 1153" d="M104,56h18.965V71.086H104Z" transform="translate(-4855.689 -759.276)" fill="#4eb9c7"/>
    <path id="Path_1154" data-name="Path 1154" d="M286.9,39.086h-5.172A1.724,1.724,0,0,0,280,40.81V25.724A1.724,1.724,0,0,1,281.724,24h7.759V36.5Z" transform="translate(-5022.207 -729)" fill="#5ac6d4"/>
    <path id="Path_1155" data-name="Path 1155" d="M113.483,40.81a1.724,1.724,0,0,0-1.724-1.724H104V24h7.759a1.724,1.724,0,0,1,1.724,1.724Z" transform="translate(-4855.689 -729)" fill="#60d1e0"/>
    <path id="Path_1156" data-name="Path 1156" d="M128,56.862h4.31v.862H128v.862h4.31v.862H128v.862h4.31v.862H128v.862h4.31V62.9H128v.862h4.31v.862H128v.862h4.31v.862H128v.862h6.9v-.862h-1.724v-.862H134.9v-.862h-1.724v-.862H134.9V62.9h-1.724v-.862H134.9v-.862h-1.724V60.31H134.9v-.862h-1.724v-.862H134.9v-.862h-1.724v-.862H134.9V56H128Z" transform="translate(-4878.396 -759.276)" fill="#57bfcc"/>
    <path id="Path_1157" data-name="Path 1157" d="M310.9,56.862V56H304v.862h4.31v.862H304v.862h4.31v.862H304v.862h4.31v.862H304v.862h4.31V62.9H304v.862h4.31v.862H304v.862h6.9v-.862h-1.724v-.862H310.9V62.9h-1.724v-.862H310.9v-.862h-1.724V60.31H310.9v-.862h-1.724v-.862H310.9v-.862h-1.724v-.862Z" transform="translate(-5044.914 -759.276)" fill="#4eb9c7"/>
    <path id="Path_1158" data-name="Path 1158" d="M304,248h4.31v.862H304Z" transform="translate(-5044.914 -940.931)" fill="#4eb9c7"/>
    <path id="Path_1159" data-name="Path 1159" d="M408,256h2.586L408,258.586Z" transform="translate(-5143.311 -948.5)" fill="#a0dde5"/>
    <path id="Path_1160" data-name="Path 1160" d="M99.879,179.448H97.293L96,176h5.172Z" transform="translate(-4848.121 -872.81)" fill="#fcac1f"/>
    <path id="Path_1161" data-name="Path 1161" d="M36.924,244.574a1.219,1.219,0,0,1-1.219,1.219H25.213a1.219,1.219,0,0,1-.862-2.081,1.691,1.691,0,0,0,.158-.183,1.721,1.721,0,0,0,.346-1.036V237.6a5.6,5.6,0,0,1,11.207,0v4.889a1.727,1.727,0,0,0,.5,1.219A1.217,1.217,0,0,1,36.924,244.574Z" transform="translate(-4779.993 -925.793)" fill="#ffb531"/>
    <path id="Path_1162" data-name="Path 1162" d="M36.924,298.89A1.219,1.219,0,0,1,35.7,300.11H25.213a1.219,1.219,0,0,1-.862-2.081,1.7,1.7,0,0,0,.158-.183A25.407,25.407,0,0,0,35.47,289.41a5.575,5.575,0,0,1,.593,2.51v4.889a1.727,1.727,0,0,0,.5,1.219A1.217,1.217,0,0,1,36.924,298.89Z" transform="translate(-4779.993 -980.11)" fill="#fcac1f"/>
    <path id="Path_1164" data-name="Path 1164" d="M90.246,264.894a4.324,4.324,0,0,0-.975.69l.59.628a3.465,3.465,0,0,1,.78-.552Z" transform="translate(-4841.754 -956.915)" fill="#ffc361"/>
    <path id="Path_1165" data-name="Path 1165" d="M64,293.6v2.155h.862V293.6a3.425,3.425,0,0,1,.593-1.931l-.713-.484A4.284,4.284,0,0,0,64,293.6Z" transform="translate(-4817.845 -981.788)" fill="#ffc361"/>
    <path id="Path_1166" data-name="Path 1166" d="M291.207,400.862a.861.861,0,0,1-.862.862h-9.052L280,400.862l1.293-.862h9.052A.862.862,0,0,1,291.207,400.862Z" transform="translate(-5022.207 -1084.742)" fill="#92563a"/>
    <path id="Path_1167" data-name="Path 1167" d="M364.31,403.879H360v-.862h4.31a.432.432,0,0,0,.431-.431V400h.862v2.586A1.3,1.3,0,0,1,364.31,403.879Z" transform="translate(-5097.896 -1084.742)" fill="#e0e0de"/>
    <path id="Path_1168" data-name="Path 1168" d="M281.293,400v1.724L280,400.862Z" transform="translate(-5022.207 -1084.742)" fill="#7a432a"/>
    <path id="Path_1169" data-name="Path 1169" d="M167.03,144.012a.416.416,0,1,0,0-.832h-4.919a.416.416,0,1,0,0,.832h1.408a1.64,1.64,0,0,1,1.643,1.248h-3.05a.416.416,0,1,0,0,.832h3.05a1.64,1.64,0,0,1-1.643,1.248h-1.408a.434.434,0,0,0-.286.742l3.518,3.329a.414.414,0,0,0,.588-.014.435.435,0,0,0-.017-.6l-2.758-2.622h.362a2.519,2.519,0,0,0,2.491-2.08h1.02a.416.416,0,1,0,0-.832h-1.02a2.414,2.414,0,0,0-.619-1.248Zm0,0" transform="translate(-4913.092 -833.526)" fill="#fff"/>
  </g>
</svg>
