<svg xmlns="http://www.w3.org/2000/svg" width="14.874" height="21.584" viewBox="0 0 14.874 21.584">
  <path id="Path_1087" data-name="Path 1087" d="M175.493,145.331a1.076,1.076,0,1,0,0-2.151H162.771a1.076,1.076,0,1,0,0,2.151h3.641a4.241,4.241,0,0,1,4.248,3.227h-7.889a1.076,1.076,0,1,0,0,2.151h7.889a4.241,4.241,0,0,1-4.248,3.227h-3.641a1.122,1.122,0,0,0-.739,1.92l9.1,8.608a1.071,1.071,0,0,0,1.52-.036,1.125,1.125,0,0,0-.043-1.561l-7.134-6.781h.936a6.514,6.514,0,0,0,6.443-5.378h2.638a1.076,1.076,0,1,0,0-2.151h-2.637a6.243,6.243,0,0,0-1.6-3.227Zm0,0" transform="translate(-161.695 -143.18)" fill="#000d36" opacity="0.3"/>
</svg>
