<svg xmlns="http://www.w3.org/2000/svg" width="365" height="91" viewBox="0 0 365 91">
  <g id="last-7days-d_t_graph" transform="translate(-8843 -8947)">
    <rect id="Rectangle_3831" data-name="Rectangle 3831" width="365" height="91" rx="10" transform="translate(8843 8947)" fill="none"/>
    <path id="Path_1391" data-name="Path 1391" d="M1.416,0h.616V-5.6H1.52L.248-4.976v.56l1.168-.552ZM5.28.112A1.91,1.91,0,0,0,7.3-1.784,1.788,1.788,0,0,0,5.48-3.632a1.74,1.74,0,0,0-1.312.544L4.52-5.1h2.3v-.5H4.032L3.5-2.472h.584A1.546,1.546,0,0,1,5.36-3.128,1.314,1.314,0,0,1,6.7-1.768,1.329,1.329,0,0,1,5.28-.392a1.285,1.285,0,0,1-1.312-.984H3.384A1.831,1.831,0,0,0,5.28.112Zm5.032,0a1.807,1.807,0,0,0,1.96-1.864v-2.1a1.807,1.807,0,0,0-1.96-1.864,1.807,1.807,0,0,0-1.96,1.864v2.1A1.807,1.807,0,0,0,10.312.112Zm0-.5A1.238,1.238,0,0,1,8.968-1.728V-3.872a1.238,1.238,0,0,1,1.344-1.336,1.238,1.238,0,0,1,1.344,1.336v2.144A1.238,1.238,0,0,1,10.312-.392Z" transform="translate(8967.5 9033)"/>
    <path id="Path_1392" data-name="Path 1392" d="M.56,0H4.176V-.5h-2.9L3.248-2.52a2.484,2.484,0,0,0,.92-1.656,1.58,1.58,0,0,0-1.76-1.536A1.573,1.573,0,0,0,.648-4.1v.152h.584V-4.08A1.064,1.064,0,0,1,2.408-5.208,1.045,1.045,0,0,1,3.552-4.176a1.77,1.77,0,0,1-.624,1.208L.56-.48ZM7.176.112a1.91,1.91,0,0,0,2.016-1.9A1.788,1.788,0,0,0,7.376-3.632a1.74,1.74,0,0,0-1.312.544L6.416-5.1h2.3v-.5H5.928L5.4-2.472h.584a1.546,1.546,0,0,1,1.272-.656,1.314,1.314,0,0,1,1.336,1.36A1.329,1.329,0,0,1,7.176-.392a1.285,1.285,0,0,1-1.312-.984H5.28A1.831,1.831,0,0,0,7.176.112Zm5.032,0a1.807,1.807,0,0,0,1.96-1.864v-2.1a1.807,1.807,0,0,0-1.96-1.864,1.807,1.807,0,0,0-1.96,1.864v2.1A1.807,1.807,0,0,0,12.208.112Zm0-.5a1.238,1.238,0,0,1-1.344-1.336V-3.872a1.238,1.238,0,0,1,1.344-1.336,1.238,1.238,0,0,1,1.344,1.336v2.144A1.238,1.238,0,0,1,12.208-.392Z" transform="translate(9046.5 9033)"/>
    <path id="Path_1393" data-name="Path 1393" d="M.88-5.1H3.4L1.672-3.16v.48h.76a1.149,1.149,0,0,1,1.3,1.136A1.2,1.2,0,0,1,2.392-.384,1.221,1.221,0,0,1,1.064-1.528H.5A1.746,1.746,0,0,0,2.384.112,1.8,1.8,0,0,0,4.328-1.56a1.592,1.592,0,0,0-1.76-1.576H2.352L4.144-5.1v-.5H.88ZM7.384.112a1.807,1.807,0,0,0,1.96-1.864v-2.1a1.807,1.807,0,0,0-1.96-1.864,1.807,1.807,0,0,0-1.96,1.864v2.1A1.807,1.807,0,0,0,7.384.112Zm0-.5A1.238,1.238,0,0,1,6.04-1.728V-3.872A1.238,1.238,0,0,1,7.384-5.208,1.238,1.238,0,0,1,8.728-3.872v2.144A1.238,1.238,0,0,1,7.384-.392Zm5.04.5a1.807,1.807,0,0,0,1.96-1.864v-2.1a1.807,1.807,0,0,0-1.96-1.864,1.807,1.807,0,0,0-1.96,1.864v2.1A1.807,1.807,0,0,0,12.424.112Zm0-.5A1.238,1.238,0,0,1,11.08-1.728V-3.872a1.238,1.238,0,0,1,1.344-1.336,1.238,1.238,0,0,1,1.344,1.336v2.144A1.238,1.238,0,0,1,12.424-.392Z" transform="translate(9086.5 9033)"/>
    <path id="Path_1394" data-name="Path 1394" d="M.88-5.1H3.4L1.672-3.16v.48h.76a1.149,1.149,0,0,1,1.3,1.136A1.2,1.2,0,0,1,2.392-.384,1.221,1.221,0,0,1,1.064-1.528H.5A1.746,1.746,0,0,0,2.384.112,1.8,1.8,0,0,0,4.328-1.56a1.592,1.592,0,0,0-1.76-1.576H2.352L4.144-5.1v-.5H.88ZM7.344.112a1.91,1.91,0,0,0,2.016-1.9A1.788,1.788,0,0,0,7.544-3.632a1.74,1.74,0,0,0-1.312.544L6.584-5.1h2.3v-.5H6.1L5.568-2.472h.584a1.546,1.546,0,0,1,1.272-.656A1.314,1.314,0,0,1,8.76-1.768,1.329,1.329,0,0,1,7.344-.392a1.285,1.285,0,0,1-1.312-.984H5.448A1.831,1.831,0,0,0,7.344.112Zm5.032,0a1.807,1.807,0,0,0,1.96-1.864v-2.1a1.807,1.807,0,0,0-1.96-1.864,1.807,1.807,0,0,0-1.96,1.864v2.1A1.807,1.807,0,0,0,12.376.112Zm0-.5a1.238,1.238,0,0,1-1.344-1.336V-3.872a1.238,1.238,0,0,1,1.344-1.336A1.238,1.238,0,0,1,13.72-3.872v2.144A1.238,1.238,0,0,1,12.376-.392Z" transform="translate(9126.5 9033)"/>
    <path id="Path_1395" data-name="Path 1395" d="M3.144,0h.568V-1.336h.776V-1.8H3.712V-3.128H3.144V-1.8H1.088L2.912-5.6h-.56L.488-1.792v.456H3.144ZM7.392.112a1.807,1.807,0,0,0,1.96-1.864v-2.1a1.807,1.807,0,0,0-1.96-1.864,1.807,1.807,0,0,0-1.96,1.864v2.1A1.807,1.807,0,0,0,7.392.112Zm0-.5A1.238,1.238,0,0,1,6.048-1.728V-3.872A1.238,1.238,0,0,1,7.392-5.208,1.238,1.238,0,0,1,8.736-3.872v2.144A1.238,1.238,0,0,1,7.392-.392Zm5.04.5a1.807,1.807,0,0,0,1.96-1.864v-2.1a1.807,1.807,0,0,0-1.96-1.864,1.807,1.807,0,0,0-1.96,1.864v2.1A1.807,1.807,0,0,0,12.432.112Zm0-.5a1.238,1.238,0,0,1-1.344-1.336V-3.872a1.238,1.238,0,0,1,1.344-1.336,1.238,1.238,0,0,1,1.344,1.336v2.144A1.238,1.238,0,0,1,12.432-.392Z" transform="translate(9166.5 9033)"/>
    <path id="Path_1396" data-name="Path 1396" d="M.56,0H4.176V-.5h-2.9L3.248-2.52a2.484,2.484,0,0,0,.92-1.656,1.58,1.58,0,0,0-1.76-1.536A1.573,1.573,0,0,0,.648-4.1v.152h.584V-4.08A1.064,1.064,0,0,1,2.408-5.208,1.045,1.045,0,0,1,3.552-4.176a1.77,1.77,0,0,1-.624,1.208L.56-.48ZM7.248.112a1.807,1.807,0,0,0,1.96-1.864v-2.1a1.807,1.807,0,0,0-1.96-1.864,1.807,1.807,0,0,0-1.96,1.864v2.1A1.807,1.807,0,0,0,7.248.112Zm0-.5A1.238,1.238,0,0,1,5.9-1.728V-3.872A1.238,1.238,0,0,1,7.248-5.208,1.238,1.238,0,0,1,8.592-3.872v2.144A1.238,1.238,0,0,1,7.248-.392Zm5.04.5a1.807,1.807,0,0,0,1.96-1.864v-2.1a1.807,1.807,0,0,0-1.96-1.864,1.807,1.807,0,0,0-1.96,1.864v2.1A1.807,1.807,0,0,0,12.288.112Zm0-.5a1.238,1.238,0,0,1-1.344-1.336V-3.872a1.238,1.238,0,0,1,1.344-1.336,1.238,1.238,0,0,1,1.344,1.336v2.144A1.238,1.238,0,0,1,12.288-.392Z" transform="translate(9006.5 9033)"/>
    <path id="Path_1389" data-name="Path 1389" d="M.91-7V0H3.54A2.539,2.539,0,0,0,6.3-2.69V-4.31A2.539,2.539,0,0,0,3.54-7ZM3.43-.64H1.68V-6.36H3.43a1.906,1.906,0,0,1,2.1,2.05v1.62A1.906,1.906,0,0,1,3.43-.64ZM9.81.12A2.021,2.021,0,0,0,11.9-1.45h-.68a1.357,1.357,0,0,1-1.41.99A1.444,1.444,0,0,1,8.28-2.07v-.18h3.67v-.76A2.037,2.037,0,0,0,9.78-5.24,2.092,2.092,0,0,0,7.55-2.93v.82A2.113,2.113,0,0,0,9.81.12ZM8.28-2.99c0-.94.4-1.67,1.5-1.67a1.4,1.4,0,0,1,1.46,1.59v.24H8.28ZM17.51,0V-3.4a1.857,1.857,0,0,0-2.03-1.84,1.937,1.937,0,0,0-1.99,1.37h.7a1.3,1.3,0,0,1,1.28-.77A1.186,1.186,0,0,1,16.75-3.4v.95a2.241,2.241,0,0,0-1.64-.64c-1.22,0-2.03.61-2.03,1.6,0,.93.73,1.61,1.94,1.61a2.165,2.165,0,0,0,1.76-.76V0ZM15.18-.37c-.79,0-1.38-.4-1.38-1.11s.57-1.11,1.42-1.11c.77,0,1.53.45,1.53,1.09C16.75-.84,15.98-.37,15.18-.37ZM19.12,0h.76V-7.3h-.76Zm4.44.12a2.021,2.021,0,0,0,2.09-1.57h-.68a1.357,1.357,0,0,1-1.41.99,1.444,1.444,0,0,1-1.53-1.61v-.18H25.7v-.76a2.037,2.037,0,0,0-2.17-2.23A2.092,2.092,0,0,0,21.3-2.93v.82A2.113,2.113,0,0,0,23.56.12ZM22.03-2.99c0-.94.4-1.67,1.5-1.67a1.4,1.4,0,0,1,1.46,1.59v.24H22.03ZM27.09,0h.76V-2.51c0-1.29.62-1.93,1.59-1.93h.15v-.71h-.12A1.519,1.519,0,0,0,27.8-3.94V-5.12h-.71Z" transform="translate(8971 8961)"/>
    <rect id="Rectangle_2986" data-name="Rectangle 2986" width="8" height="8" transform="translate(8958 8954)" fill="#0288d1"/>
    <path id="Path_1390" data-name="Path 1390" d="M2.42,0H3.2V-6.35H5.34V-7H.28v.65H2.42ZM7.54.12A2.021,2.021,0,0,0,9.63-1.45H8.95a1.357,1.357,0,0,1-1.41.99A1.444,1.444,0,0,1,6.01-2.07v-.18H9.68v-.76A2.037,2.037,0,0,0,7.51-5.24,2.092,2.092,0,0,0,5.28-2.93v.82A2.113,2.113,0,0,0,7.54.12ZM6.01-2.99c0-.94.4-1.67,1.5-1.67A1.4,1.4,0,0,1,8.97-3.07v.24H6.01ZM13.09.12A2.043,2.043,0,0,0,15.28-1.8H14.6A1.418,1.418,0,0,1,13.1-.48a1.453,1.453,0,0,1-1.54-1.64V-3A1.453,1.453,0,0,1,13.1-4.64a1.418,1.418,0,0,1,1.5,1.32h.68a2.043,2.043,0,0,0-2.19-1.92,2.136,2.136,0,0,0-2.27,2.25v.86A2.136,2.136,0,0,0,13.09.12ZM16.67,0h.76V-3.01a1.407,1.407,0,0,1,1.48-1.57c.92,0,1.31.59,1.31,1.46V0h.76V-3.23A1.817,1.817,0,0,0,19.1-5.24a1.769,1.769,0,0,0-1.67.91V-7.3h-.76Zm5.88,0h.76V-3.01a1.407,1.407,0,0,1,1.48-1.57c.92,0,1.31.59,1.31,1.46V0h.76V-3.23a1.817,1.817,0,0,0-1.88-2.01,1.714,1.714,0,0,0-1.71.99v-.87h-.72Zm5.93,0h.76V-5.12h-.76Zm-.1-6.47a.446.446,0,0,0,.48.46.446.446,0,0,0,.48-.46.446.446,0,0,0-.48-.46A.446.446,0,0,0,28.38-6.47ZM32.93.12A2.043,2.043,0,0,0,35.12-1.8h-.68a1.418,1.418,0,0,1-1.5,1.32A1.453,1.453,0,0,1,31.4-2.12V-3a1.453,1.453,0,0,1,1.54-1.64,1.418,1.418,0,0,1,1.5,1.32h.68a2.043,2.043,0,0,0-2.19-1.92,2.136,2.136,0,0,0-2.27,2.25v.86A2.136,2.136,0,0,0,32.93.12ZM36.56,0h.76V-5.12h-.76Zm-.1-6.47a.446.446,0,0,0,.48.46.446.446,0,0,0,.48-.46.446.446,0,0,0-.48-.46A.446.446,0,0,0,36.46-6.47ZM43.19,0V-3.4a1.857,1.857,0,0,0-2.03-1.84,1.937,1.937,0,0,0-1.99,1.37h.7a1.3,1.3,0,0,1,1.28-.77A1.186,1.186,0,0,1,42.43-3.4v.95a2.241,2.241,0,0,0-1.64-.64c-1.22,0-2.03.61-2.03,1.6,0,.93.73,1.61,1.94,1.61a2.165,2.165,0,0,0,1.76-.76V0ZM40.86-.37c-.79,0-1.38-.4-1.38-1.11s.57-1.11,1.42-1.11c.77,0,1.53.45,1.53,1.09C42.43-.84,41.66-.37,40.86-.37ZM44.75,0h.76V-3.01a1.407,1.407,0,0,1,1.48-1.57c.92,0,1.31.59,1.31,1.46V0h.76V-3.23a1.817,1.817,0,0,0-1.88-2.01,1.714,1.714,0,0,0-1.71.99v-.87h-.72Z" transform="translate(9044 8961)"/>
    <rect id="Rectangle_2987" data-name="Rectangle 2987" width="8" height="8" transform="translate(9031 8954)" fill="#81d4fa"/>
    <line id="Line_2573" data-name="Line 2573" y2="78" transform="translate(8853.5 8960)" fill="none" stroke="rgba(0,0,0,0.2)" stroke-width="1"/>
    <line id="Line_2574" data-name="Line 2574" x2="365" transform="translate(8843 9020.5)" fill="none" stroke="rgba(0,0,0,0.2)" stroke-width="1"/>
    <path id="Path_1397" data-name="Path 1397" d="M2.48.112A1.91,1.91,0,0,0,4.5-1.784,1.788,1.788,0,0,0,2.68-3.632a1.74,1.74,0,0,0-1.312.544L1.72-5.1h2.3v-.5H1.232L.7-2.472h.584A1.546,1.546,0,0,1,2.56-3.128,1.314,1.314,0,0,1,3.9-1.768,1.329,1.329,0,0,1,2.48-.392a1.285,1.285,0,0,1-1.312-.984H.584A1.831,1.831,0,0,0,2.48.112Zm5.032,0a1.807,1.807,0,0,0,1.96-1.864v-2.1a1.807,1.807,0,0,0-1.96-1.864,1.807,1.807,0,0,0-1.96,1.864v2.1A1.807,1.807,0,0,0,7.512.112Zm0-.5A1.238,1.238,0,0,1,6.168-1.728V-3.872A1.238,1.238,0,0,1,7.512-5.208,1.238,1.238,0,0,1,8.856-3.872v2.144A1.238,1.238,0,0,1,7.512-.392Z" transform="translate(8888.5 9033)"/>
    <path id="Path_1398" data-name="Path 1398" d="M1.416,0h.616V-5.6H1.52L.248-4.976v.56l1.168-.552Zm3.9.112A1.807,1.807,0,0,0,7.28-1.752v-2.1A1.807,1.807,0,0,0,5.32-5.712,1.807,1.807,0,0,0,3.36-3.848v2.1A1.807,1.807,0,0,0,5.32.112Zm0-.5A1.238,1.238,0,0,1,3.976-1.728V-3.872A1.238,1.238,0,0,1,5.32-5.208,1.238,1.238,0,0,1,6.664-3.872v2.144A1.238,1.238,0,0,1,5.32-.392Zm5.04.5a1.807,1.807,0,0,0,1.96-1.864v-2.1a1.807,1.807,0,0,0-1.96-1.864A1.807,1.807,0,0,0,8.4-3.848v2.1A1.807,1.807,0,0,0,10.36.112Zm0-.5A1.238,1.238,0,0,1,9.016-1.728V-3.872A1.238,1.238,0,0,1,10.36-5.208,1.238,1.238,0,0,1,11.7-3.872v2.144A1.238,1.238,0,0,1,10.36-.392Z" transform="translate(8927.5 9033)"/>
    <line id="Line_2585" data-name="Line 2585" y2="54.895" transform="translate(8893.5 8964.995)" fill="none" stroke="rgba(0,0,0,0.1)" stroke-width="1" stroke-dasharray="3"/>
    <line id="Line_2585-2" data-name="Line 2585" y2="54.895" transform="translate(8933.5 8964.995)" fill="none" stroke="rgba(0,0,0,0.1)" stroke-width="1" stroke-dasharray="3"/>
    <line id="Line_2585-3" data-name="Line 2585" y2="54.895" transform="translate(8973.5 8964.995)" fill="none" stroke="rgba(0,0,0,0.1)" stroke-width="1" stroke-dasharray="3"/>
    <line id="Line_2585-4" data-name="Line 2585" y2="54.895" transform="translate(9013.5 8964.995)" fill="none" stroke="rgba(0,0,0,0.1)" stroke-width="1" stroke-dasharray="3"/>
    <line id="Line_2585-5" data-name="Line 2585" y2="54.895" transform="translate(9053.5 8964.995)" fill="none" stroke="rgba(0,0,0,0.1)" stroke-width="1" stroke-dasharray="3"/>
    <line id="Line_2611" data-name="Line 2611" y2="54.895" transform="translate(9093.5 8964.995)" fill="none" stroke="rgba(0,0,0,0.1)" stroke-width="1" stroke-dasharray="3"/>
    <line id="Line_2612" data-name="Line 2612" y2="54.895" transform="translate(9133.5 8964.995)" fill="none" stroke="rgba(0,0,0,0.1)" stroke-width="1" stroke-dasharray="3"/>
    <line id="Line_2613" data-name="Line 2613" y2="54.895" transform="translate(9173.5 8964.995)" fill="none" stroke="rgba(0,0,0,0.1)" stroke-width="1" stroke-dasharray="3"/>
    <line id="Line_2614" data-name="Line 2614" x2="365" transform="translate(8843 9011.5)" fill="none" stroke="rgba(0,0,0,0.2)" stroke-width="1" stroke-dasharray="3" opacity="0.3"/>
    <line id="Line_2615" data-name="Line 2615" x2="365" transform="translate(8843 9002.5)" fill="none" stroke="rgba(0,0,0,0.2)" stroke-width="1" stroke-dasharray="3" opacity="0.3"/>
    <line id="Line_2616" data-name="Line 2616" x2="365" transform="translate(8843 8993.5)" fill="none" stroke="rgba(0,0,0,0.2)" stroke-width="1" stroke-dasharray="3" opacity="0.3"/>
    <line id="Line_2617" data-name="Line 2617" x2="365" transform="translate(8843 8983.5)" fill="none" stroke="rgba(0,0,0,0.2)" stroke-width="1" stroke-dasharray="3" opacity="0.3"/>
    <line id="Line_2618" data-name="Line 2618" x2="365" transform="translate(8843 8974.5)" fill="none" stroke="rgba(0,0,0,0.2)" stroke-width="1" stroke-dasharray="3" opacity="0.3"/>
    <line id="Line_2619" data-name="Line 2619" x2="365" transform="translate(8843 8965.5)" fill="none" stroke="rgba(0,0,0,0.2)" stroke-width="1" stroke-dasharray="3" opacity="0.3"/>
    <path id="Path_1383" data-name="Path 1383" d="M0,48S10.467,11.467,40.371,7.492s43.3,41.2,79.29,37.274,33.451-19.93,65.555-21.869,35.446,1.429,74.45,6.121S340.335,32.1,340.335,32.1" transform="translate(8853.5 8967.5)" fill="none" stroke="#81d4fa" stroke-width="2"/>
    <path id="Path_1384" data-name="Path 1384" d="M1.331,61.833S28.162,56.692,41.263,49.22s40.4-28.128,76.392-32.05,48.456,11.206,68.9,17.928,36.289,28.727,73.667,22.968,76.749-44.536,76.749-44.536" transform="translate(8853.5 8957.5)" fill="none" stroke="#0288d1" stroke-width="2"/>
    <rect id="Rectangle_3902" data-name="Rectangle 3902" width="10" height="10" rx="5" transform="translate(8889 8970)" fill="#81d4fa"/>
    <rect id="Rectangle_3904" data-name="Rectangle 3904" width="10" height="10" rx="5" transform="translate(8929 8991)" fill="#81d4fa"/>
    <rect id="Rectangle_3905" data-name="Rectangle 3905" width="10" height="10" rx="5" transform="translate(8969 9008)" fill="#81d4fa"/>
    <rect id="Rectangle_3906" data-name="Rectangle 3906" width="10" height="10" rx="5" transform="translate(9009 8993)" fill="#81d4fa"/>
    <rect id="Rectangle_3907" data-name="Rectangle 3907" width="10" height="10" rx="5" transform="translate(9049 8984)" fill="#81d4fa"/>
    <rect id="Rectangle_3908" data-name="Rectangle 3908" width="10" height="10" rx="5" transform="translate(9089 8989)" fill="#81d4fa"/>
    <rect id="Rectangle_3909" data-name="Rectangle 3909" width="10" height="10" rx="5" transform="translate(9129 8993)" fill="#81d4fa"/>
    <rect id="Rectangle_3910" data-name="Rectangle 3910" width="10" height="10" rx="5" transform="translate(9169 8995)" fill="#81d4fa"/>
    <rect id="Rectangle_3903" data-name="Rectangle 3903" width="10" height="10" rx="5" transform="translate(8889 9002)" fill="#0288d1"/>
    <rect id="Rectangle_3911" data-name="Rectangle 3911" width="10" height="10" rx="5" transform="translate(8929 8980)" fill="#0288d1"/>
    <rect id="Rectangle_3912" data-name="Rectangle 3912" width="10" height="10" rx="5" transform="translate(8969 8969)" fill="#0288d1"/>
    <rect id="Rectangle_3913" data-name="Rectangle 3913" width="10" height="10" rx="5" transform="translate(9009 8974)" fill="#0288d1"/>
    <rect id="Rectangle_3914" data-name="Rectangle 3914" width="10" height="10" rx="5" transform="translate(9049 8994)" fill="#0288d1"/>
    <rect id="Rectangle_3915" data-name="Rectangle 3915" width="10" height="10" rx="5" transform="translate(9089 9010)" fill="#0288d1"/>
    <rect id="Rectangle_3916" data-name="Rectangle 3916" width="10" height="10" rx="5" transform="translate(9129 9005)" fill="#0288d1"/>
    <rect id="Rectangle_3917" data-name="Rectangle 3917" width="10" height="10" rx="5" transform="translate(9169 8981)" fill="#0288d1"/>
  </g>
</svg>
