<svg xmlns="http://www.w3.org/2000/svg" width="300" height="140" viewBox="0 0 300 140">
  <g id="Group_4485" data-name="Group 4485" transform="translate(-1025 -239)">
    <rect id="Rectangle_3831" data-name="Rectangle 3831" width="300" height="140" rx="10" transform="translate(1025 239)" fill="#fff"/>
    <path id="Path_1468" data-name="Path 1468" d="M2.73.14A2.07,2.07,0,0,0,5.02-1.9V-7H4.24v5.1A1.332,1.332,0,0,1,2.72-.51,1.343,1.343,0,0,1,1.19-1.89v-.06H.45v.06A2.049,2.049,0,0,0,2.73.14Zm8.18-5.26h-.76v3.01A1.423,1.423,0,0,1,8.67-.52C7.79-.52,7.41-1.13,7.41-2V-5.12H6.65v3.23A1.8,1.8,0,0,0,8.48.12a1.714,1.714,0,0,0,1.71-.99V0h.72ZM12.58,0h.76V-7.3h-.76Zm3.88,1.74L17.13,0l1.89-5.12h-.75L16.77-.77,15.21-5.12h-.75L16.37,0l-.65,1.74Z" transform="translate(1290.197 371)"/>
    <path id="Path_1469" data-name="Path 1469" d="M6.99-7H6.26L3.95-2.38,1.64-7H.91V0h.74V-5.5L3.58-1.69h.74L6.25-5.5V0h.74Zm5.92,7V-3.4a1.857,1.857,0,0,0-2.03-1.84A1.937,1.937,0,0,0,8.89-3.87h.7a1.3,1.3,0,0,1,1.28-.77A1.186,1.186,0,0,1,12.15-3.4v.95a2.241,2.241,0,0,0-1.64-.64c-1.22,0-2.03.61-2.03,1.6,0,.93.73,1.61,1.94,1.61a2.165,2.165,0,0,0,1.76-.76V0ZM10.58-.37c-.79,0-1.38-.4-1.38-1.11s.57-1.11,1.42-1.11c.77,0,1.53.45,1.53,1.09C12.15-.84,11.38-.37,10.58-.37Zm5.23,2.11L16.48,0l1.89-5.12h-.75L16.12-.77,14.56-5.12h-.75L15.72,0l-.65,1.74Z" transform="translate(1183.136 371)"/>
    <path id="Path_1470" data-name="Path 1470" d="M2.73.14A2.07,2.07,0,0,0,5.02-1.9V-7H4.24v5.1A1.332,1.332,0,0,1,2.72-.51,1.343,1.343,0,0,1,1.19-1.89v-.06H.45v.06A2.049,2.049,0,0,0,2.73.14Zm8.18-5.26h-.76v3.01A1.423,1.423,0,0,1,8.67-.52C7.79-.52,7.41-1.13,7.41-2V-5.12H6.65v3.23A1.8,1.8,0,0,0,8.48.12a1.714,1.714,0,0,0,1.71-.99V0h.72ZM12.53,0h.76V-3.01a1.407,1.407,0,0,1,1.48-1.57c.92,0,1.31.59,1.31,1.46V0h.76V-3.23a1.817,1.817,0,0,0-1.88-2.01,1.714,1.714,0,0,0-1.71.99v-.87h-.72Zm7.89.12a2.021,2.021,0,0,0,2.09-1.57h-.68a1.357,1.357,0,0,1-1.41.99,1.444,1.444,0,0,1-1.53-1.61v-.18h3.67v-.76a2.037,2.037,0,0,0-2.17-2.23,2.092,2.092,0,0,0-2.23,2.31v.82A2.113,2.113,0,0,0,20.42.12ZM18.89-2.99c0-.94.4-1.67,1.5-1.67a1.4,1.4,0,0,1,1.46,1.59v.24H18.89Z" transform="translate(1235.16 371)"/>
    <line id="Line_2573" data-name="Line 2573" y2="128" transform="translate(1060.5 239.5)" fill="none" stroke="rgba(0,0,0,0.2)" stroke-width="1"/>
    <line id="Line_2574" data-name="Line 2574" x2="274.5" transform="translate(1050.5 357.504)" fill="none" stroke="rgba(0,0,0,0.2)" stroke-width="1"/>
    <path id="Path_1464" data-name="Path 1464" d="M1.416,0h.616V-5.6H1.52L.248-4.976v.56l1.168-.552ZM5.28.112A1.91,1.91,0,0,0,7.3-1.784,1.788,1.788,0,0,0,5.48-3.632a1.74,1.74,0,0,0-1.312.544L4.52-5.1h2.3v-.5H4.032L3.5-2.472h.584A1.546,1.546,0,0,1,5.36-3.128,1.314,1.314,0,0,1,6.7-1.768,1.329,1.329,0,0,1,5.28-.392a1.285,1.285,0,0,1-1.312-.984H3.384A1.831,1.831,0,0,0,5.28.112Zm5.032,0a1.807,1.807,0,0,0,1.96-1.864v-2.1a1.807,1.807,0,0,0-1.96-1.864,1.807,1.807,0,0,0-1.96,1.864v2.1A1.807,1.807,0,0,0,10.312.112Zm0-.5A1.238,1.238,0,0,1,8.968-1.728V-3.872a1.238,1.238,0,0,1,1.344-1.336,1.238,1.238,0,0,1,1.344,1.336v2.144A1.238,1.238,0,0,1,10.312-.392ZM13.56,0h.624V-2.784L16.8,0h.752L14.864-2.832l2.6-2.768h-.752L14.184-2.872V-5.6H13.56Z" transform="translate(1035 276)"/>
    <line id="Line_2581" data-name="Line 2581" x2="264" transform="translate(1060.5 271.5)" fill="none" stroke="rgba(0,0,0,0.1)" stroke-width="1" stroke-dasharray="3"/>
    <path id="Path_1465" data-name="Path 1465" d="M1.416,0h.616V-5.6H1.52L.248-4.976v.56l1.168-.552Zm3.9.112A1.807,1.807,0,0,0,7.28-1.752v-2.1A1.807,1.807,0,0,0,5.32-5.712,1.807,1.807,0,0,0,3.36-3.848v2.1A1.807,1.807,0,0,0,5.32.112Zm0-.5A1.238,1.238,0,0,1,3.976-1.728V-3.872A1.238,1.238,0,0,1,5.32-5.208,1.238,1.238,0,0,1,6.664-3.872v2.144A1.238,1.238,0,0,1,5.32-.392Zm5.04.5a1.807,1.807,0,0,0,1.96-1.864v-2.1a1.807,1.807,0,0,0-1.96-1.864A1.807,1.807,0,0,0,8.4-3.848v2.1A1.807,1.807,0,0,0,10.36.112Zm0-.5A1.238,1.238,0,0,1,9.016-1.728V-3.872A1.238,1.238,0,0,1,10.36-5.208,1.238,1.238,0,0,1,11.7-3.872v2.144A1.238,1.238,0,0,1,10.36-.392ZM13.608,0h.624V-2.784L16.848,0H17.6L14.912-2.832l2.6-2.768H16.76L14.232-2.872V-5.6h-.624Z" transform="translate(1035 300)"/>
    <line id="Line_2582" data-name="Line 2582" x2="264" transform="translate(1060.5 295.5)" fill="none" stroke="rgba(0,0,0,0.1)" stroke-width="1" stroke-dasharray="3"/>
    <path id="Path_1466" data-name="Path 1466" d="M2.48.112A1.91,1.91,0,0,0,4.5-1.784,1.788,1.788,0,0,0,2.68-3.632a1.74,1.74,0,0,0-1.312.544L1.72-5.1h2.3v-.5H1.232L.7-2.472h.584A1.546,1.546,0,0,1,2.56-3.128,1.314,1.314,0,0,1,3.9-1.768,1.329,1.329,0,0,1,2.48-.392a1.285,1.285,0,0,1-1.312-.984H.584A1.831,1.831,0,0,0,2.48.112Zm5.032,0a1.807,1.807,0,0,0,1.96-1.864v-2.1a1.807,1.807,0,0,0-1.96-1.864,1.807,1.807,0,0,0-1.96,1.864v2.1A1.807,1.807,0,0,0,7.512.112Zm0-.5A1.238,1.238,0,0,1,6.168-1.728V-3.872A1.238,1.238,0,0,1,7.512-5.208,1.238,1.238,0,0,1,8.856-3.872v2.144A1.238,1.238,0,0,1,7.512-.392ZM10.76,0h.624V-2.784L14,0h.752L12.064-2.832l2.6-2.768h-.752L11.384-2.872V-5.6H10.76Z" transform="translate(1035 324)"/>
    <line id="Line_2583" data-name="Line 2583" x2="264" transform="translate(1060.5 319.5)" fill="none" stroke="rgba(0,0,0,0.1)" stroke-width="1" stroke-dasharray="3"/>
    <path id="Path_1467" data-name="Path 1467" d="M1.416,0h.616V-5.6H1.52L.248-4.976v.56l1.168-.552Zm3.9.112A1.807,1.807,0,0,0,7.28-1.752v-2.1A1.807,1.807,0,0,0,5.32-5.712,1.807,1.807,0,0,0,3.36-3.848v2.1A1.807,1.807,0,0,0,5.32.112Zm0-.5A1.238,1.238,0,0,1,3.976-1.728V-3.872A1.238,1.238,0,0,1,5.32-5.208,1.238,1.238,0,0,1,6.664-3.872v2.144A1.238,1.238,0,0,1,5.32-.392ZM8.568,0h.624V-2.784L11.808,0h.752L9.872-2.832l2.6-2.768H11.72L9.192-2.872V-5.6H8.568Z" transform="translate(1035 348)"/>
    <line id="Line_2584" data-name="Line 2584" x2="264" transform="translate(1060.5 343.5)" fill="none" stroke="rgba(0,0,0,0.1)" stroke-width="1" stroke-dasharray="3"/>
    <path id="Rectangle_3833" data-name="Rectangle 3833" d="M2,0H8a2,2,0,0,1,2,2V77a0,0,0,0,1,0,0H0a0,0,0,0,1,0,0V2A2,2,0,0,1,2,0Z" transform="translate(1081 281)" fill="#0288d1"/>
    <path id="Rectangle_3833-2" data-name="Rectangle 3833" d="M2,0H8a2,2,0,0,1,2,2V102a0,0,0,0,1,0,0H0a0,0,0,0,1,0,0V2A2,2,0,0,1,2,0Z" transform="translate(1135 256)" fill="#0288d1"/>
    <path id="Rectangle_3833-3" data-name="Rectangle 3833" d="M2,0H8a2,2,0,0,1,2,2V74a0,0,0,0,1,0,0H0a0,0,0,0,1,0,0V2A2,2,0,0,1,2,0Z" transform="translate(1188 284)" fill="#0288d1"/>
    <path id="Rectangle_3833-4" data-name="Rectangle 3833" d="M2,0H8a2,2,0,0,1,2,2V37a0,0,0,0,1,0,0H0a0,0,0,0,1,0,0V2A2,2,0,0,1,2,0Z" transform="translate(1242 321)" fill="#0288d1"/>
    <path id="Rectangle_3833-5" data-name="Rectangle 3833" d="M2,0H8a2,2,0,0,1,2,2V30a0,0,0,0,1,0,0H0a0,0,0,0,1,0,0V2A2,2,0,0,1,2,0Z" transform="translate(1295 328)" fill="#0288d1"/>
    <path id="Path_1472" data-name="Path 1472" d="M6.99-7H6.26L3.95-2.38,1.64-7H.91V0h.74V-5.5L3.58-1.69h.74L6.25-5.5V0h.74Zm5.92,7V-3.4a1.857,1.857,0,0,0-2.03-1.84A1.937,1.937,0,0,0,8.89-3.87h.7a1.3,1.3,0,0,1,1.28-.77A1.186,1.186,0,0,1,12.15-3.4v.95a2.241,2.241,0,0,0-1.64-.64c-1.22,0-2.03.61-2.03,1.6,0,.93.73,1.61,1.94,1.61a2.165,2.165,0,0,0,1.76-.76V0ZM10.58-.37c-.79,0-1.38-.4-1.38-1.11s.57-1.11,1.42-1.11c.77,0,1.53.45,1.53,1.09C12.15-.84,11.38-.37,10.58-.37ZM14.47,0h.76V-2.51c0-1.29.62-1.93,1.59-1.93h.15v-.71h-.12a1.519,1.519,0,0,0-1.67,1.21V-5.12h-.71Zm5.47.12A2.043,2.043,0,0,0,22.13-1.8h-.68a1.418,1.418,0,0,1-1.5,1.32,1.453,1.453,0,0,1-1.54-1.64V-3a1.453,1.453,0,0,1,1.54-1.64,1.418,1.418,0,0,1,1.5,1.32h.68a2.043,2.043,0,0,0-2.19-1.92,2.136,2.136,0,0,0-2.27,2.25v.86A2.136,2.136,0,0,0,19.94.12ZM23.52,0h.76V-3.01a1.407,1.407,0,0,1,1.48-1.57c.92,0,1.31.59,1.31,1.46V0h.76V-3.23a1.817,1.817,0,0,0-1.88-2.01,1.769,1.769,0,0,0-1.67.91V-7.3h-.76Z" transform="translate(1071.114 371)"/>
    <path id="Path_1471" data-name="Path 1471" d="M3.79-7H3.01L.38,0h.77l.63-1.78H5.01L5.65,0h.77Zm-.39.71L4.79-2.4H2ZM8.37,1.74V-.76a1.915,1.915,0,0,0,1.71.88A2.1,2.1,0,0,0,12.2-2.17v-.78a2.088,2.088,0,0,0-2.14-2.29,1.908,1.908,0,0,0-1.73.92v-.8H7.61V1.74ZM11.44-2.2A1.522,1.522,0,0,1,9.94-.5,1.582,1.582,0,0,1,8.37-2.2v-.66A1.57,1.57,0,0,1,9.93-4.62c1.06,0,1.51.76,1.51,1.7ZM13.57,0h.76V-2.51c0-1.29.62-1.93,1.59-1.93h.15v-.71h-.12a1.519,1.519,0,0,0-1.67,1.21V-5.12h-.71Zm3.58,0h.76V-5.12h-.76Zm-.1-6.47a.446.446,0,0,0,.48.46.446.446,0,0,0,.48-.46.446.446,0,0,0-.48-.46A.446.446,0,0,0,17.05-6.47ZM19.63,0h.76V-7.3h-.76Z" transform="translate(1129.296 371)"/>
  </g>
</svg>
