<svg xmlns="http://www.w3.org/2000/svg" width="15" height="14.989" viewBox="0 0 15 14.989">
  <g id="offer" transform="translate(0 -0.194)">
    <path id="Path_1005" data-name="Path 1005" d="M15,.817,14.381.194,12.689,1.876l.619.623L11.636,4.162a1.242,1.242,0,1,1-.625-.617l1.677-1.667L7.2,1.241,0,8.428l6.746,6.755L13.942,8l-.634-5.5Zm-9.031,4.5a1.212,1.212,0,1,1-.355.857A1.2,1.2,0,0,1,5.969,5.318Zm1.768,6.02a1.212,1.212,0,1,1,0-1.714A1.2,1.2,0,0,1,7.736,11.338ZM3.872,9.2l-.125-.869,6-.859.125.869Z"/>
    <path id="Path_1006" data-name="Path 1006" d="M222.07,193.731a.334.334,0,1,0-.236-.1A.332.332,0,0,0,222.07,193.731Z" transform="translate(-215.244 -187.223)"/>
    <path id="Path_1007" data-name="Path 1007" d="M223.9,340.142a.334.334,0,1,0,.236.1A.332.332,0,0,0,223.9,340.142Z" transform="translate(-217.024 -329.995)"/>
    <path id="Path_1008" data-name="Path 1008" d="M346.765,140.986a.365.365,0,1,0,.258.107.362.362,0,0,0-.258-.107Z" transform="translate(-336.259 -136.67)"/>
  </g>
</svg>
