<svg xmlns="http://www.w3.org/2000/svg" width="300" height="78" viewBox="0 0 300 78">
  <g id="Group_4454" data-name="Group 4454" transform="translate(4552 -520)">
    <g id="Group_4452" data-name="Group 4452">
      <rect id="Rectangle_3831" data-name="Rectangle 3831" width="300" height="78" rx="10" transform="translate(-4552 520)" fill="#fff"/>
      <path id="Path_1394" data-name="Path 1394" d="M6.58-2.94V-4.06A2.822,2.822,0,0,0,3.64-7.14,2.822,2.822,0,0,0,.7-4.06v1.12A2.822,2.822,0,0,0,3.64.14,2.822,2.822,0,0,0,6.58-2.94ZM3.64-.51A2.111,2.111,0,0,1,1.48-2.9V-4.1A2.111,2.111,0,0,1,3.64-6.49,2.111,2.111,0,0,1,5.8-4.1v1.2A2.111,2.111,0,0,1,3.64-.51ZM8.09,0h.76V-2.51c0-1.29.62-1.93,1.59-1.93h.15v-.71h-.12A1.519,1.519,0,0,0,8.8-3.94V-5.12H8.09Zm7.03-7.3v2.94a1.915,1.915,0,0,0-1.71-.88,2.1,2.1,0,0,0-2.12,2.29v.78A2.109,2.109,0,0,0,13.43.12,1.908,1.908,0,0,0,15.16-.8V0h.72V-7.3ZM12.05-2.92a1.522,1.522,0,0,1,1.5-1.7,1.582,1.582,0,0,1,1.57,1.7v.66A1.57,1.57,0,0,1,13.56-.5c-1.06,0-1.51-.76-1.51-1.7ZM19.51.12A2.021,2.021,0,0,0,21.6-1.45h-.68a1.357,1.357,0,0,1-1.41.99,1.444,1.444,0,0,1-1.53-1.61v-.18h3.67v-.76a2.037,2.037,0,0,0-2.17-2.23,2.092,2.092,0,0,0-2.23,2.31v.82A2.113,2.113,0,0,0,19.51.12ZM17.98-2.99c0-.94.4-1.67,1.5-1.67a1.4,1.4,0,0,1,1.46,1.59v.24H17.98ZM23.04,0h.76V-2.51c0-1.29.62-1.93,1.59-1.93h.15v-.71h-.12a1.519,1.519,0,0,0-1.67,1.21V-5.12h-.71Z" transform="translate(-4450 534)"/>
      <rect id="Rectangle_2986" data-name="Rectangle 2986" width="8" height="8" transform="translate(-4463 527)" fill="#0288d1"/>
      <path id="Path_1395" data-name="Path 1395" d="M.91,0h.78V-2.54H3.65A2.208,2.208,0,0,0,6.03-4.78,2.193,2.193,0,0,0,3.65-7H.91Zm.78-3.19V-6.35H3.58A1.5,1.5,0,0,1,5.25-4.78,1.517,1.517,0,0,1,3.58-3.19ZM11.2,0V-3.4A1.857,1.857,0,0,0,9.17-5.24,1.937,1.937,0,0,0,7.18-3.87h.7a1.3,1.3,0,0,1,1.28-.77A1.186,1.186,0,0,1,10.44-3.4v.95A2.241,2.241,0,0,0,8.8-3.09c-1.22,0-2.03.61-2.03,1.6C6.77-.56,7.5.12,8.71.12a2.165,2.165,0,0,0,1.76-.76V0ZM8.87-.37c-.79,0-1.38-.4-1.38-1.11s.57-1.11,1.42-1.11c.77,0,1.53.45,1.53,1.09C10.44-.84,9.67-.37,8.87-.37ZM14.1,1.74,14.77,0l1.89-5.12h-.75L14.41-.77,12.85-5.12H12.1L14.01,0l-.65,1.74ZM17.73,0h.76V-3.01a1.393,1.393,0,0,1,1.46-1.57c.84,0,1.27.59,1.27,1.46V0h.76V-3.01a1.393,1.393,0,0,1,1.46-1.57c.84,0,1.27.59,1.27,1.46V0h.76V-3.23a1.813,1.813,0,0,0-1.84-2.01,2.035,2.035,0,0,0-1.86,1,1.718,1.718,0,0,0-1.63-1,1.685,1.685,0,0,0-1.69.99v-.87h-.72ZM29.05.12a2.021,2.021,0,0,0,2.09-1.57h-.68a1.357,1.357,0,0,1-1.41.99,1.444,1.444,0,0,1-1.53-1.61v-.18h3.67v-.76a2.037,2.037,0,0,0-2.17-2.23,2.092,2.092,0,0,0-2.23,2.31v.82A2.113,2.113,0,0,0,29.05.12ZM27.52-2.99c0-.94.4-1.67,1.5-1.67a1.4,1.4,0,0,1,1.46,1.59v.24H27.52ZM32.58,0h.76V-3.01a1.407,1.407,0,0,1,1.48-1.57c.92,0,1.31.59,1.31,1.46V0h.76V-3.23a1.817,1.817,0,0,0-1.88-2.01,1.714,1.714,0,0,0-1.71.99v-.87h-.72Zm8.28,0V-.62h-.51c-.57,0-.76-.22-.76-.74V-4.5H40.9v-.62H39.59V-6.59h-.76v1.47h-.87v.62h.87v3.14A1.209,1.209,0,0,0,40.22,0Z" transform="translate(-4381 534)"/>
      <rect id="Rectangle_2987" data-name="Rectangle 2987" width="8" height="8" transform="translate(-4394 527)" fill="#81d4fa"/>
      <line id="Line_2573" data-name="Line 2573" y2="78" transform="translate(-4541.5 520)" fill="none" stroke="rgba(0,0,0,0.2)" stroke-width="1"/>
      <line id="Line_2574" data-name="Line 2574" x2="300" transform="translate(-4552 580.504)" fill="none" stroke="rgba(0,0,0,0.2)" stroke-width="1"/>
      <g id="Group_4451" data-name="Group 4451">
        <text id="_100K" data-name="100K" transform="translate(-4405.5 591)" font-size="8" font-family="Colfax-Regular, Colfax"><tspan x="0" y="0">100K</tspan></text>
        <text id="_200K" data-name="200K" transform="translate(-4310.5 591)" font-size="8" font-family="Colfax-Regular, Colfax"><tspan x="0" y="0">200K</tspan></text>
        <text id="_150K" data-name="150K" transform="translate(-4357.5 591)" font-size="8" font-family="Colfax-Regular, Colfax"><tspan x="0" y="0">150K</tspan></text>
        <text id="_10K" data-name="10K" transform="translate(-4499.5 591)" font-size="8" font-family="Colfax-Regular, Colfax"><tspan x="0" y="0">10K</tspan></text>
        <text id="_50K" data-name="50K" transform="translate(-4452.5 591)" font-size="8" font-family="Colfax-Regular, Colfax"><tspan x="0" y="0">50K</tspan></text>
      </g>
      <line id="Line_2585" data-name="Line 2585" y2="35.504" transform="translate(-4493.5 545)" fill="none" stroke="rgba(0,0,0,0.1)" stroke-width="1" stroke-dasharray="3"/>
      <line id="Line_2585-2" data-name="Line 2585" y2="35.504" transform="translate(-4445.5 545)" fill="none" stroke="rgba(0,0,0,0.1)" stroke-width="1" stroke-dasharray="3"/>
      <line id="Line_2585-3" data-name="Line 2585" y2="35.504" transform="translate(-4396.5 545)" fill="none" stroke="rgba(0,0,0,0.1)" stroke-width="1" stroke-dasharray="3"/>
      <line id="Line_2585-4" data-name="Line 2585" y2="35.504" transform="translate(-4348.5 545)" fill="none" stroke="rgba(0,0,0,0.1)" stroke-width="1" stroke-dasharray="3"/>
      <line id="Line_2585-5" data-name="Line 2585" y2="35.504" transform="translate(-4300.5 545)" fill="none" stroke="rgba(0,0,0,0.1)" stroke-width="1" stroke-dasharray="3"/>
      <path id="Rectangle_3839" data-name="Rectangle 3839" d="M0,0H223a2,2,0,0,1,2,2V8a2,2,0,0,1-2,2H0a0,0,0,0,1,0,0V0A0,0,0,0,1,0,0Z" transform="translate(-4542 545)" fill="#0288d1"/>
      <path id="Rectangle_3840" data-name="Rectangle 3840" d="M0,0H131a2,2,0,0,1,2,2V8a2,2,0,0,1-2,2H0a0,0,0,0,1,0,0V0A0,0,0,0,1,0,0Z" transform="translate(-4542 563)" fill="#81d4fa"/>
    </g>
  </g>
</svg>
