<svg xmlns="http://www.w3.org/2000/svg" width="300" height="168" viewBox="0 0 300 168">
  <g id="Group_4453" data-name="Group 4453" transform="translate(4552 -310)">
    <rect id="Rectangle_3831" data-name="Rectangle 3831" width="300" height="168" rx="10" transform="translate(-4552 310)" fill="#fff"/>
    <path id="Path_1393" data-name="Path 1393" d="M2.73.14A2.07,2.07,0,0,0,5.02-1.9V-7H4.24v5.1A1.332,1.332,0,0,1,2.72-.51,1.343,1.343,0,0,1,1.19-1.89v-.06H.45v.06A2.049,2.049,0,0,0,2.73.14Zm8.18-5.26h-.76v3.01A1.423,1.423,0,0,1,8.67-.52C7.79-.52,7.41-1.13,7.41-2V-5.12H6.65v3.23A1.8,1.8,0,0,0,8.48.12a1.714,1.714,0,0,0,1.71-.99V0h.72ZM12.53,0h.76V-3.01a1.407,1.407,0,0,1,1.48-1.57c.92,0,1.31.59,1.31,1.46V0h.76V-3.23a1.817,1.817,0,0,0-1.88-2.01,1.714,1.714,0,0,0-1.71.99v-.87h-.72Zm7.89.12a2.021,2.021,0,0,0,2.09-1.57h-.68a1.357,1.357,0,0,1-1.41.99,1.444,1.444,0,0,1-1.53-1.61v-.18h3.67v-.76a2.037,2.037,0,0,0-2.17-2.23,2.092,2.092,0,0,0-2.23,2.31v.82A2.113,2.113,0,0,0,20.42.12ZM18.89-2.99c0-.94.4-1.67,1.5-1.67a1.4,1.4,0,0,1,1.46,1.59v.24H18.89Z" transform="translate(-4296 469)"/>
    <path id="Path_1389" data-name="Path 1389" d="M6.58-2.94V-4.06A2.822,2.822,0,0,0,3.64-7.14,2.822,2.822,0,0,0,.7-4.06v1.12A2.822,2.822,0,0,0,3.64.14,2.822,2.822,0,0,0,6.58-2.94ZM3.64-.51A2.111,2.111,0,0,1,1.48-2.9V-4.1A2.111,2.111,0,0,1,3.64-6.49,2.111,2.111,0,0,1,5.8-4.1v1.2A2.111,2.111,0,0,1,3.64-.51ZM8.09,0h.76V-2.51c0-1.29.62-1.93,1.59-1.93h.15v-.71h-.12A1.519,1.519,0,0,0,8.8-3.94V-5.12H8.09Zm7.03-7.3v2.94a1.915,1.915,0,0,0-1.71-.88,2.1,2.1,0,0,0-2.12,2.29v.78A2.109,2.109,0,0,0,13.43.12,1.908,1.908,0,0,0,15.16-.8V0h.72V-7.3ZM12.05-2.92a1.522,1.522,0,0,1,1.5-1.7,1.582,1.582,0,0,1,1.57,1.7v.66A1.57,1.57,0,0,1,13.56-.5c-1.06,0-1.51-.76-1.51-1.7ZM19.51.12A2.021,2.021,0,0,0,21.6-1.45h-.68a1.357,1.357,0,0,1-1.41.99,1.444,1.444,0,0,1-1.53-1.61v-.18h3.67v-.76a2.037,2.037,0,0,0-2.17-2.23,2.092,2.092,0,0,0-2.23,2.31v.82A2.113,2.113,0,0,0,19.51.12ZM17.98-2.99c0-.94.4-1.67,1.5-1.67a1.4,1.4,0,0,1,1.46,1.59v.24H17.98ZM23.04,0h.76V-2.51c0-1.29.62-1.93,1.59-1.93h.15v-.71h-.12a1.519,1.519,0,0,0-1.67,1.21V-5.12h-.71Z" transform="translate(-4450 329)"/>
    <rect id="Rectangle_2986" data-name="Rectangle 2986" width="8" height="8" transform="translate(-4463 322)" fill="#0288d1"/>
    <path id="Path_1390" data-name="Path 1390" d="M.91,0h.78V-2.54H3.65A2.208,2.208,0,0,0,6.03-4.78,2.193,2.193,0,0,0,3.65-7H.91Zm.78-3.19V-6.35H3.58A1.5,1.5,0,0,1,5.25-4.78,1.517,1.517,0,0,1,3.58-3.19ZM11.2,0V-3.4A1.857,1.857,0,0,0,9.17-5.24,1.937,1.937,0,0,0,7.18-3.87h.7a1.3,1.3,0,0,1,1.28-.77A1.186,1.186,0,0,1,10.44-3.4v.95A2.241,2.241,0,0,0,8.8-3.09c-1.22,0-2.03.61-2.03,1.6C6.77-.56,7.5.12,8.71.12a2.165,2.165,0,0,0,1.76-.76V0ZM8.87-.37c-.79,0-1.38-.4-1.38-1.11s.57-1.11,1.42-1.11c.77,0,1.53.45,1.53,1.09C10.44-.84,9.67-.37,8.87-.37ZM14.1,1.74,14.77,0l1.89-5.12h-.75L14.41-.77,12.85-5.12H12.1L14.01,0l-.65,1.74ZM17.73,0h.76V-3.01a1.393,1.393,0,0,1,1.46-1.57c.84,0,1.27.59,1.27,1.46V0h.76V-3.01a1.393,1.393,0,0,1,1.46-1.57c.84,0,1.27.59,1.27,1.46V0h.76V-3.23a1.813,1.813,0,0,0-1.84-2.01,2.035,2.035,0,0,0-1.86,1,1.718,1.718,0,0,0-1.63-1,1.685,1.685,0,0,0-1.69.99v-.87h-.72ZM29.05.12a2.021,2.021,0,0,0,2.09-1.57h-.68a1.357,1.357,0,0,1-1.41.99,1.444,1.444,0,0,1-1.53-1.61v-.18h3.67v-.76a2.037,2.037,0,0,0-2.17-2.23,2.092,2.092,0,0,0-2.23,2.31v.82A2.113,2.113,0,0,0,29.05.12ZM27.52-2.99c0-.94.4-1.67,1.5-1.67a1.4,1.4,0,0,1,1.46,1.59v.24H27.52ZM32.58,0h.76V-3.01a1.407,1.407,0,0,1,1.48-1.57c.92,0,1.31.59,1.31,1.46V0h.76V-3.23a1.817,1.817,0,0,0-1.88-2.01,1.714,1.714,0,0,0-1.71.99v-.87h-.72Zm8.28,0V-.62h-.51c-.57,0-.76-.22-.76-.74V-4.5H40.9v-.62H39.59V-6.59h-.76v1.47h-.87v.62h.87v3.14A1.209,1.209,0,0,0,40.22,0Z" transform="translate(-4381 329)"/>
    <rect id="Rectangle_2987" data-name="Rectangle 2987" width="8" height="8" transform="translate(-4394 322)" fill="#81d4fa"/>
    <path id="Path_1388" data-name="Path 1388" d="M2.238-5.246V0H1.855V-5.246H.238V-5.6H3.855v.355ZM5.078.1A1.755,1.755,0,0,1,3.693-.479a2.177,2.177,0,0,1-.51-1.5,2.174,2.174,0,0,1,.533-1.559,1.845,1.845,0,0,1,1.4-.562,1.716,1.716,0,0,1,1.352.559,2.249,2.249,0,0,1,.5,1.547A2.212,2.212,0,0,1,6.463-.48,1.745,1.745,0,0,1,5.078.1ZM5.105-3.77a1.427,1.427,0,0,0-1.127.477,1.935,1.935,0,0,0-.42,1.324,1.867,1.867,0,0,0,.41,1.262A1.4,1.4,0,0,0,5.09-.23,1.368,1.368,0,0,0,6.2-.7,1.973,1.973,0,0,0,6.594-2a1.971,1.971,0,0,0-.389-1.312A1.364,1.364,0,0,0,5.105-3.77ZM9.543-.055a1.241,1.241,0,0,1-.527.133q-.887,0-.887-1.062V-3.672H7.41V-4h.719V-5.039l.18-.062q.094-.027.18-.059V-4H9.543v.328H8.488v2.641a1.063,1.063,0,0,0,.131.6.5.5,0,0,0,.443.186.992.992,0,0,0,.48-.145ZM12.727,0V-.8h-.016a1.567,1.567,0,0,1-.557.654A1.427,1.427,0,0,1,11.344.1a1.245,1.245,0,0,1-.9-.32,1.076,1.076,0,0,1-.332-.809q0-1.047,1.387-1.266l1.23-.184q0-1.289-.969-1.289a1.973,1.973,0,0,0-1.285.531v-.434a1.959,1.959,0,0,1,.6-.3,2.3,2.3,0,0,1,.717-.125,1.207,1.207,0,0,1,.955.383A1.633,1.633,0,0,1,13.086-2.6V0Zm-1.1-1.992a1.908,1.908,0,0,0-.883.291.785.785,0,0,0-.254.654.783.783,0,0,0,.236.586.9.9,0,0,0,.658.23,1.235,1.235,0,0,0,.961-.428,1.592,1.592,0,0,0,.383-1.1v-.391ZM14.289,0V-5.922h.359V0Zm7.559,0-.641-1.742h-2.43L18.137,0h-.426l2.113-5.6h.367L22.281,0ZM20.129-4.687a2.1,2.1,0,0,1-.07-.23q-.027-.1-.059-.2h-.016a3.778,3.778,0,0,1-.129.418l-.941,2.6h2.16ZM28.168,0V-2.406a1.777,1.777,0,0,0-.236-1.059.888.888,0,0,0-.748-.3,1.039,1.039,0,0,0-.816.406,1.524,1.524,0,0,0-.344,1.02V0h-.359V-2.434q0-1.336-1.016-1.336a1,1,0,0,0-.812.408A1.648,1.648,0,0,0,23.512-2.3V0h-.359V-4h.359v.664h.016A1.325,1.325,0,0,1,24.75-4.1a1.15,1.15,0,0,1,.748.252,1.239,1.239,0,0,1,.42.662,1.531,1.531,0,0,1,.537-.674,1.315,1.315,0,0,1,.76-.24q1.313,0,1.313,1.625V0Zm3.164.1a1.755,1.755,0,0,1-1.385-.576,2.177,2.177,0,0,1-.51-1.5,2.174,2.174,0,0,1,.533-1.559,1.845,1.845,0,0,1,1.4-.562,1.716,1.716,0,0,1,1.352.559,2.249,2.249,0,0,1,.5,1.547A2.212,2.212,0,0,1,32.717-.48,1.745,1.745,0,0,1,31.332.1Zm.027-3.867a1.427,1.427,0,0,0-1.127.477,1.935,1.935,0,0,0-.42,1.324,1.867,1.867,0,0,0,.41,1.262,1.4,1.4,0,0,0,1.121.477A1.368,1.368,0,0,0,32.457-.7,1.973,1.973,0,0,0,32.848-2a1.971,1.971,0,0,0-.389-1.312A1.364,1.364,0,0,0,31.359-3.77ZM36.855,0V-.727H36.84A1.364,1.364,0,0,1,35.551.1q-1.418,0-1.418-1.785V-4H34.5v2.223A2.034,2.034,0,0,0,34.764-.6a.972.972,0,0,0,.842.367,1.126,1.126,0,0,0,.9-.41,1.641,1.641,0,0,0,.346-1.094V-4h.359V0Zm4.359,0V-2.328q0-1.441-1.039-1.441a1.205,1.205,0,0,0-.949.424A1.535,1.535,0,0,0,38.855-2.3V0H38.5V-4h.359v.727h.016A1.447,1.447,0,0,1,40.238-4.1a1.194,1.194,0,0,1,.992.432,1.937,1.937,0,0,1,.344,1.232V0Zm3.145-.055a1.241,1.241,0,0,1-.527.133q-.887,0-.887-1.062V-3.672h-.719V-4h.719V-5.039l.18-.062q.094-.027.18-.059V-4h1.055v.328H43.3v2.641a1.063,1.063,0,0,0,.131.6.5.5,0,0,0,.443.186.992.992,0,0,0,.48-.145Z" transform="translate(-4540.5 423) rotate(-90)" opacity="0.49"/>
    <line id="Line_2573" data-name="Line 2573" y2="130" transform="translate(-4511.5 335.5)" fill="none" stroke="rgba(0,0,0,0.2)" stroke-width="1"/>
    <line id="Line_2574" data-name="Line 2574" x2="269.014" transform="translate(-4521.5 455.504)" fill="none" stroke="rgba(0,0,0,0.2)" stroke-width="1"/>
    <path id="Path_1387" data-name="Path 1387" d="M.56,0H4.176V-.5h-2.9L3.248-2.52a2.484,2.484,0,0,0,.92-1.656,1.58,1.58,0,0,0-1.76-1.536A1.573,1.573,0,0,0,.648-4.1v.152h.584V-4.08A1.064,1.064,0,0,1,2.408-5.208,1.045,1.045,0,0,1,3.552-4.176a1.77,1.77,0,0,1-.624,1.208L.56-.48ZM7.248.112a1.807,1.807,0,0,0,1.96-1.864v-2.1a1.807,1.807,0,0,0-1.96-1.864,1.807,1.807,0,0,0-1.96,1.864v2.1A1.807,1.807,0,0,0,7.248.112Zm0-.5A1.238,1.238,0,0,1,5.9-1.728V-3.872A1.238,1.238,0,0,1,7.248-5.208,1.238,1.238,0,0,1,8.592-3.872v2.144A1.238,1.238,0,0,1,7.248-.392Zm5.04.5a1.807,1.807,0,0,0,1.96-1.864v-2.1a1.807,1.807,0,0,0-1.96-1.864,1.807,1.807,0,0,0-1.96,1.864v2.1A1.807,1.807,0,0,0,12.288.112Zm0-.5a1.238,1.238,0,0,1-1.344-1.336V-3.872a1.238,1.238,0,0,1,1.344-1.336,1.238,1.238,0,0,1,1.344,1.336v2.144A1.238,1.238,0,0,1,12.288-.392ZM15.536,0h.624V-2.784L18.776,0h.752L16.84-2.832,19.44-5.6h-.752L16.16-2.872V-5.6h-.624Z" transform="translate(-4537 350)"/>
    <line id="Line_2580" data-name="Line 2580" x2="258.514" transform="translate(-4511.5 345.5)" fill="none" stroke="rgba(0,0,0,0.1)" stroke-width="1" stroke-dasharray="3"/>
    <path id="Path_1386" data-name="Path 1386" d="M1.416,0h.616V-5.6H1.52L.248-4.976v.56l1.168-.552ZM5.28.112A1.91,1.91,0,0,0,7.3-1.784,1.788,1.788,0,0,0,5.48-3.632a1.74,1.74,0,0,0-1.312.544L4.52-5.1h2.3v-.5H4.032L3.5-2.472h.584A1.546,1.546,0,0,1,5.36-3.128,1.314,1.314,0,0,1,6.7-1.768,1.329,1.329,0,0,1,5.28-.392a1.285,1.285,0,0,1-1.312-.984H3.384A1.831,1.831,0,0,0,5.28.112Zm5.032,0a1.807,1.807,0,0,0,1.96-1.864v-2.1a1.807,1.807,0,0,0-1.96-1.864,1.807,1.807,0,0,0-1.96,1.864v2.1A1.807,1.807,0,0,0,10.312.112Zm0-.5A1.238,1.238,0,0,1,8.968-1.728V-3.872a1.238,1.238,0,0,1,1.344-1.336,1.238,1.238,0,0,1,1.344,1.336v2.144A1.238,1.238,0,0,1,10.312-.392ZM13.56,0h.624V-2.784L16.8,0h.752L14.864-2.832l2.6-2.768h-.752L14.184-2.872V-5.6H13.56Z" transform="translate(-4537 374)"/>
    <line id="Line_2581" data-name="Line 2581" x2="258.514" transform="translate(-4511.5 369.5)" fill="none" stroke="rgba(0,0,0,0.1)" stroke-width="1" stroke-dasharray="3"/>
    <path id="Path_1385" data-name="Path 1385" d="M1.416,0h.616V-5.6H1.52L.248-4.976v.56l1.168-.552Zm3.9.112A1.807,1.807,0,0,0,7.28-1.752v-2.1A1.807,1.807,0,0,0,5.32-5.712,1.807,1.807,0,0,0,3.36-3.848v2.1A1.807,1.807,0,0,0,5.32.112Zm0-.5A1.238,1.238,0,0,1,3.976-1.728V-3.872A1.238,1.238,0,0,1,5.32-5.208,1.238,1.238,0,0,1,6.664-3.872v2.144A1.238,1.238,0,0,1,5.32-.392Zm5.04.5a1.807,1.807,0,0,0,1.96-1.864v-2.1a1.807,1.807,0,0,0-1.96-1.864A1.807,1.807,0,0,0,8.4-3.848v2.1A1.807,1.807,0,0,0,10.36.112Zm0-.5A1.238,1.238,0,0,1,9.016-1.728V-3.872A1.238,1.238,0,0,1,10.36-5.208,1.238,1.238,0,0,1,11.7-3.872v2.144A1.238,1.238,0,0,1,10.36-.392ZM13.608,0h.624V-2.784L16.848,0H17.6L14.912-2.832l2.6-2.768H16.76L14.232-2.872V-5.6h-.624Z" transform="translate(-4537 398)"/>
    <line id="Line_2582" data-name="Line 2582" x2="258.514" transform="translate(-4511.5 393.5)" fill="none" stroke="rgba(0,0,0,0.1)" stroke-width="1" stroke-dasharray="3"/>
    <path id="Path_1383" data-name="Path 1383" d="M2.48.112A1.91,1.91,0,0,0,4.5-1.784,1.788,1.788,0,0,0,2.68-3.632a1.74,1.74,0,0,0-1.312.544L1.72-5.1h2.3v-.5H1.232L.7-2.472h.584A1.546,1.546,0,0,1,2.56-3.128,1.314,1.314,0,0,1,3.9-1.768,1.329,1.329,0,0,1,2.48-.392a1.285,1.285,0,0,1-1.312-.984H.584A1.831,1.831,0,0,0,2.48.112Zm5.032,0a1.807,1.807,0,0,0,1.96-1.864v-2.1a1.807,1.807,0,0,0-1.96-1.864,1.807,1.807,0,0,0-1.96,1.864v2.1A1.807,1.807,0,0,0,7.512.112Zm0-.5A1.238,1.238,0,0,1,6.168-1.728V-3.872A1.238,1.238,0,0,1,7.512-5.208,1.238,1.238,0,0,1,8.856-3.872v2.144A1.238,1.238,0,0,1,7.512-.392ZM10.76,0h.624V-2.784L14,0h.752L12.064-2.832l2.6-2.768h-.752L11.384-2.872V-5.6H10.76Z" transform="translate(-4537 422)"/>
    <line id="Line_2583" data-name="Line 2583" x2="258.514" transform="translate(-4511.5 417.5)" fill="none" stroke="rgba(0,0,0,0.1)" stroke-width="1" stroke-dasharray="3"/>
    <path id="Path_1384" data-name="Path 1384" d="M1.416,0h.616V-5.6H1.52L.248-4.976v.56l1.168-.552Zm3.9.112A1.807,1.807,0,0,0,7.28-1.752v-2.1A1.807,1.807,0,0,0,5.32-5.712,1.807,1.807,0,0,0,3.36-3.848v2.1A1.807,1.807,0,0,0,5.32.112Zm0-.5A1.238,1.238,0,0,1,3.976-1.728V-3.872A1.238,1.238,0,0,1,5.32-5.208,1.238,1.238,0,0,1,6.664-3.872v2.144A1.238,1.238,0,0,1,5.32-.392ZM8.568,0h.624V-2.784L11.808,0h.752L9.872-2.832l2.6-2.768H11.72L9.192-2.872V-5.6H8.568Z" transform="translate(-4537 446)"/>
    <line id="Line_2584" data-name="Line 2584" x2="258.514" transform="translate(-4511.5 441.5)" fill="none" stroke="rgba(0,0,0,0.1)" stroke-width="1" stroke-dasharray="3"/>
    <path id="Rectangle_3833" data-name="Rectangle 3833" d="M2,0H8a2,2,0,0,1,2,2V86a0,0,0,0,1,0,0H0a0,0,0,0,1,0,0V2A2,2,0,0,1,2,0Z" transform="translate(-4491 370)" fill="#0288d1"/>
    <path id="Rectangle_3834" data-name="Rectangle 3834" d="M2,0H8a2,2,0,0,1,2,2V52a0,0,0,0,1,0,0H0a0,0,0,0,1,0,0V2A2,2,0,0,1,2,0Z" transform="translate(-4476 404)" fill="#81d4fa"/>
    <path id="Rectangle_3835" data-name="Rectangle 3835" d="M2,0H8a2,2,0,0,1,2,2V31a0,0,0,0,1,0,0H0a0,0,0,0,1,0,0V2A2,2,0,0,1,2,0Z" transform="translate(-4394 425)" fill="#0288d1"/>
    <path id="Rectangle_3836" data-name="Rectangle 3836" d="M2,0H8a2,2,0,0,1,2,2V45a0,0,0,0,1,0,0H0a0,0,0,0,1,0,0V2A2,2,0,0,1,2,0Z" transform="translate(-4379 411)" fill="#81d4fa"/>
    <path id="Path_1391" data-name="Path 1391" d="M3.79-7H3.01L.38,0h.77l.63-1.78H5.01L5.65,0h.77Zm-.39.71L4.79-2.4H2ZM8.37,1.74V-.76a1.915,1.915,0,0,0,1.71.88A2.1,2.1,0,0,0,12.2-2.17v-.78a2.088,2.088,0,0,0-2.14-2.29,1.908,1.908,0,0,0-1.73.92v-.8H7.61V1.74ZM11.44-2.2A1.522,1.522,0,0,1,9.94-.5,1.582,1.582,0,0,1,8.37-2.2v-.66A1.57,1.57,0,0,1,9.93-4.62c1.06,0,1.51.76,1.51,1.7ZM13.57,0h.76V-2.51c0-1.29.62-1.93,1.59-1.93h.15v-.71h-.12a1.519,1.519,0,0,0-1.67,1.21V-5.12h-.71Zm3.58,0h.76V-5.12h-.76Zm-.1-6.47a.446.446,0,0,0,.48.46.446.446,0,0,0,.48-.46.446.446,0,0,0-.48-.46A.446.446,0,0,0,17.05-6.47ZM19.63,0h.76V-7.3h-.76Z" transform="translate(-4489 469)"/>
    <path id="Path_1392" data-name="Path 1392" d="M6.99-7H6.26L3.95-2.38,1.64-7H.91V0h.74V-5.5L3.58-1.69h.74L6.25-5.5V0h.74Zm5.92,7V-3.4a1.857,1.857,0,0,0-2.03-1.84A1.937,1.937,0,0,0,8.89-3.87h.7a1.3,1.3,0,0,1,1.28-.77A1.186,1.186,0,0,1,12.15-3.4v.95a2.241,2.241,0,0,0-1.64-.64c-1.22,0-2.03.61-2.03,1.6,0,.93.73,1.61,1.94,1.61a2.165,2.165,0,0,0,1.76-.76V0ZM10.58-.37c-.79,0-1.38-.4-1.38-1.11s.57-1.11,1.42-1.11c.77,0,1.53.45,1.53,1.09C12.15-.84,11.38-.37,10.58-.37Zm5.23,2.11L16.48,0l1.89-5.12h-.75L16.12-.77,14.56-5.12h-.75L15.72,0l-.65,1.74Z" transform="translate(-4391 469)"/>
    <path id="Rectangle_3837" data-name="Rectangle 3837" d="M2,0H8a2,2,0,0,1,2,2V48a0,0,0,0,1,0,0H0a0,0,0,0,1,0,0V2A2,2,0,0,1,2,0Z" transform="translate(-4297 408)" fill="#0288d1"/>
    <path id="Rectangle_3838" data-name="Rectangle 3838" d="M2,0H8a2,2,0,0,1,2,2V21a0,0,0,0,1,0,0H0a0,0,0,0,1,0,0V2A2,2,0,0,1,2,0Z" transform="translate(-4282 435)" fill="#81d4fa"/>
  </g>
</svg>
