<svg xmlns="http://www.w3.org/2000/svg" width="300" height="141.902" viewBox="0 0 300 141.902">
  <g id="Group_4483" data-name="Group 4483" transform="translate(-1025 -421)">
    <rect id="Rectangle_3938" data-name="Rectangle 3938" width="300" height="140" rx="10" transform="translate(1025 421)" fill="#fff"/>
    <text id="_150K" data-name="150K" transform="translate(1035 460)" font-size="8" font-family="Colfax-Regular, Colfax"><tspan x="0" y="0">150K</tspan></text>
    <line id="Line_2638" data-name="Line 2638" x2="264" transform="translate(1060.5 455.5)" fill="none" stroke="rgba(0,0,0,0.1)" stroke-width="1" stroke-dasharray="3"/>
    <g id="Group_4482" data-name="Group 4482">
      <text id="Product_5" data-name="Product 5" transform="matrix(0.985, -0.174, 0.174, 0.985, 1300.718, 555.954)" font-size="10" font-family="Colfax-Regular, Colfax"><tspan x="-22.625" y="0">Product 5</tspan></text>
      <path id="Path_1453" data-name="Path 1453" d="M-21.635,0h.78V-2.54h1.96a2.208,2.208,0,0,0,2.38-2.24A2.193,2.193,0,0,0-18.9-7h-2.74Zm.78-3.19V-6.35h1.89A1.5,1.5,0,0,1-17.3-4.78a1.517,1.517,0,0,1-1.67,1.59ZM-15.345,0h.76V-2.51c0-1.29.62-1.93,1.59-1.93h.15v-.71h-.12a1.519,1.519,0,0,0-1.67,1.21V-5.12h-.71Zm5.49.12a2.151,2.151,0,0,0,2.28-2.26v-.84a2.151,2.151,0,0,0-2.28-2.26,2.159,2.159,0,0,0-2.29,2.26v.84A2.154,2.154,0,0,0-9.855.12Zm1.55-3.09v.82A1.49,1.49,0,0,1-9.855-.49a1.49,1.49,0,0,1-1.55-1.66v-.82a1.49,1.49,0,0,1,1.55-1.66A1.49,1.49,0,0,1-8.305-2.97Zm5.68-4.33v2.94a1.915,1.915,0,0,0-1.71-.88,2.1,2.1,0,0,0-2.12,2.29v.78A2.109,2.109,0,0,0-4.315.12,1.908,1.908,0,0,0-2.585-.8V0h.72V-7.3ZM-5.7-2.92a1.522,1.522,0,0,1,1.5-1.7,1.582,1.582,0,0,1,1.57,1.7v.66A1.57,1.57,0,0,1-4.185-.5c-1.06,0-1.51-.76-1.51-1.7Zm9.66-2.2H3.2v3.01A1.423,1.423,0,0,1,1.725-.52C.845-.52.465-1.13.465-2V-5.12H-.3v3.23A1.8,1.8,0,0,0,1.535.12a1.714,1.714,0,0,0,1.71-.99V0h.72ZM7.6.12A2.043,2.043,0,0,0,9.8-1.8h-.68a1.418,1.418,0,0,1-1.5,1.32,1.453,1.453,0,0,1-1.54-1.64V-3a1.453,1.453,0,0,1,1.54-1.64,1.418,1.418,0,0,1,1.5,1.32H9.8A2.043,2.043,0,0,0,7.6-5.24a2.136,2.136,0,0,0-2.27,2.25v.86A2.136,2.136,0,0,0,7.6.12ZM13.595,0V-.62h-.51c-.57,0-.76-.22-.76-.74V-4.5h1.31v-.62h-1.31V-6.59h-.76v1.47h-.87v.62h.87v3.14A1.209,1.209,0,0,0,12.955,0Zm3.97-6.38h3.15l-2.16,2.43v.6h.95a1.436,1.436,0,0,1,1.62,1.42,1.5,1.5,0,0,1-1.67,1.45A1.526,1.526,0,0,1,17.8-1.91h-.71A2.182,2.182,0,0,0,19.445.14a2.243,2.243,0,0,0,2.43-2.09,1.989,1.989,0,0,0-2.2-1.97h-.27l2.24-2.45V-7h-4.08Z" transform="matrix(0.985, -0.174, 0.174, 0.985, 1193.657, 555.954)"/>
      <text id="Product_4" data-name="Product 4" transform="matrix(0.985, -0.174, 0.174, 0.985, 1247.681, 555.954)" font-size="10" font-family="Colfax-Regular, Colfax"><tspan x="-22.565" y="0">Product 4</tspan></text>
      <path id="Path_1461" data-name="Path 1461" d="M0,0V128" transform="translate(1060.5 421.5)" fill="none" stroke="rgba(0,0,0,0.2)" stroke-width="1"/>
      <path id="Path_1454" data-name="Path 1454" d="M0,0H274.5" transform="translate(1050.5 541.504)" fill="none" stroke="rgba(0,0,0,0.2)" stroke-width="1"/>
      <text id="_100K" data-name="100K" transform="translate(1035 484)" font-size="8" font-family="Colfax-Regular, Colfax"><tspan x="0" y="0">100K</tspan></text>
      <line id="Line_2637" data-name="Line 2637" x2="264" transform="translate(1060.5 479.5)" fill="none" stroke="rgba(0,0,0,0.1)" stroke-width="1" stroke-dasharray="3"/>
      <path id="Path_1462" data-name="Path 1462" d="M2.48.112A1.91,1.91,0,0,0,4.5-1.784,1.788,1.788,0,0,0,2.68-3.632a1.74,1.74,0,0,0-1.312.544L1.72-5.1h2.3v-.5H1.232L.7-2.472h.584A1.546,1.546,0,0,1,2.56-3.128,1.314,1.314,0,0,1,3.9-1.768,1.329,1.329,0,0,1,2.48-.392a1.285,1.285,0,0,1-1.312-.984H.584A1.831,1.831,0,0,0,2.48.112Zm5.032,0a1.807,1.807,0,0,0,1.96-1.864v-2.1a1.807,1.807,0,0,0-1.96-1.864,1.807,1.807,0,0,0-1.96,1.864v2.1A1.807,1.807,0,0,0,7.512.112Zm0-.5A1.238,1.238,0,0,1,6.168-1.728V-3.872A1.238,1.238,0,0,1,7.512-5.208,1.238,1.238,0,0,1,8.856-3.872v2.144A1.238,1.238,0,0,1,7.512-.392ZM10.76,0h.624V-2.784L14,0h.752L12.064-2.832l2.6-2.768h-.752L11.384-2.872V-5.6H10.76Z" transform="translate(1035 508)"/>
      <line id="Line_2635" data-name="Line 2635" x2="264" transform="translate(1060.5 503.5)" fill="none" stroke="rgba(0,0,0,0.1)" stroke-width="1" stroke-dasharray="3"/>
      <path id="Path_1463" data-name="Path 1463" d="M1.416,0h.616V-5.6H1.52L.248-4.976v.56l1.168-.552Zm3.9.112A1.807,1.807,0,0,0,7.28-1.752v-2.1A1.807,1.807,0,0,0,5.32-5.712,1.807,1.807,0,0,0,3.36-3.848v2.1A1.807,1.807,0,0,0,5.32.112Zm0-.5A1.238,1.238,0,0,1,3.976-1.728V-3.872A1.238,1.238,0,0,1,5.32-5.208,1.238,1.238,0,0,1,6.664-3.872v2.144A1.238,1.238,0,0,1,5.32-.392ZM8.568,0h.624V-2.784L11.808,0h.752L9.872-2.832l2.6-2.768H11.72L9.192-2.872V-5.6H8.568Z" transform="translate(1035 532)"/>
      <path id="Path_1456" data-name="Path 1456" d="M0,0H264" transform="translate(1060.5 527.5)" fill="none" stroke="rgba(0,0,0,0.1)" stroke-width="1" stroke-dasharray="3"/>
      <path id="Path_1460" data-name="Path 1460" d="M2,0H8a2,2,0,0,1,2,2V77H0V2A2,2,0,0,1,2,0Z" transform="translate(1081 465)" fill="#0288d1"/>
      <path id="Path_1458" data-name="Path 1458" d="M2,0H8a2,2,0,0,1,2,2V102H0V2A2,2,0,0,1,2,0Z" transform="translate(1135 440)" fill="#0288d1"/>
      <path id="Path_1455" data-name="Path 1455" d="M2,0H8a2,2,0,0,1,2,2V74H0V2A2,2,0,0,1,2,0Z" transform="translate(1188 468)" fill="#0288d1"/>
      <path id="Rectangle_3940" data-name="Rectangle 3940" d="M2,0H8a2,2,0,0,1,2,2V37a0,0,0,0,1,0,0H0a0,0,0,0,1,0,0V2A2,2,0,0,1,2,0Z" transform="translate(1242 505)" fill="#0288d1"/>
      <path id="Rectangle_3941" data-name="Rectangle 3941" d="M2,0H8a2,2,0,0,1,2,2V30a0,0,0,0,1,0,0H0a0,0,0,0,1,0,0V2A2,2,0,0,1,2,0Z" transform="translate(1295 512)" fill="#0288d1"/>
      <path id="Path_1459" data-name="Path 1459" d="M-20.345,0h.78V-2.54h1.96a2.208,2.208,0,0,0,2.38-2.24A2.193,2.193,0,0,0-17.605-7h-2.74Zm.78-3.19V-6.35h1.89a1.5,1.5,0,0,1,1.67,1.57,1.517,1.517,0,0,1-1.67,1.59ZM-14.055,0h.76V-2.51c0-1.29.62-1.93,1.59-1.93h.15v-.71h-.12a1.519,1.519,0,0,0-1.67,1.21V-5.12h-.71Zm5.49.12a2.151,2.151,0,0,0,2.28-2.26v-.84a2.151,2.151,0,0,0-2.28-2.26,2.159,2.159,0,0,0-2.29,2.26v.84A2.154,2.154,0,0,0-8.565.12Zm1.55-3.09v.82A1.49,1.49,0,0,1-8.565-.49a1.49,1.49,0,0,1-1.55-1.66v-.82a1.49,1.49,0,0,1,1.55-1.66A1.49,1.49,0,0,1-7.015-2.97Zm5.68-4.33v2.94a1.915,1.915,0,0,0-1.71-.88,2.1,2.1,0,0,0-2.12,2.29v.78A2.109,2.109,0,0,0-3.025.12,1.908,1.908,0,0,0-1.3-.8V0h.72V-7.3Zm-3.07,4.38a1.522,1.522,0,0,1,1.5-1.7,1.582,1.582,0,0,1,1.57,1.7v.66A1.57,1.57,0,0,1-2.9-.5c-1.06,0-1.51-.76-1.51-1.7Zm9.66-2.2H4.5v3.01A1.423,1.423,0,0,1,3.015-.52c-.88,0-1.26-.61-1.26-1.48V-5.12H1v3.23A1.8,1.8,0,0,0,2.825.12a1.714,1.714,0,0,0,1.71-.99V0h.72ZM8.9.12a2.043,2.043,0,0,0,2.19-1.92h-.68a1.418,1.418,0,0,1-1.5,1.32,1.453,1.453,0,0,1-1.54-1.64V-3a1.453,1.453,0,0,1,1.54-1.64,1.418,1.418,0,0,1,1.5,1.32h.68A2.043,2.043,0,0,0,8.9-5.24a2.136,2.136,0,0,0-2.27,2.25v.86A2.136,2.136,0,0,0,8.9.12ZM14.885,0V-.62h-.51c-.57,0-.76-.22-.76-.74V-4.5h1.31v-.62h-1.31V-6.59h-.76v1.47h-.87v.62h.87v3.14A1.209,1.209,0,0,0,14.245,0Zm4.64,0h.77V-7h-.64l-1.59.78v.7l1.46-.69Z" transform="matrix(0.985, -0.174, 0.174, 0.985, 1086.635, 555.954)"/>
      <path id="Path_1457" data-name="Path 1457" d="M-21.58,0h.78V-2.54h1.96a2.208,2.208,0,0,0,2.38-2.24A2.193,2.193,0,0,0-18.84-7h-2.74Zm.78-3.19V-6.35h1.89a1.5,1.5,0,0,1,1.67,1.57,1.517,1.517,0,0,1-1.67,1.59ZM-15.29,0h.76V-2.51c0-1.29.62-1.93,1.59-1.93h.15v-.71h-.12a1.519,1.519,0,0,0-1.67,1.21V-5.12h-.71ZM-9.8.12A2.151,2.151,0,0,0-7.52-2.14v-.84A2.151,2.151,0,0,0-9.8-5.24a2.159,2.159,0,0,0-2.29,2.26v.84A2.154,2.154,0,0,0-9.8.12Zm1.55-3.09v.82A1.49,1.49,0,0,1-9.8-.49a1.49,1.49,0,0,1-1.55-1.66v-.82A1.49,1.49,0,0,1-9.8-4.63,1.49,1.49,0,0,1-8.25-2.97ZM-2.57-7.3v2.94a1.915,1.915,0,0,0-1.71-.88A2.1,2.1,0,0,0-6.4-2.95v.78A2.109,2.109,0,0,0-4.26.12,1.908,1.908,0,0,0-2.53-.8V0h.72V-7.3ZM-5.64-2.92a1.522,1.522,0,0,1,1.5-1.7,1.582,1.582,0,0,1,1.57,1.7v.66A1.57,1.57,0,0,1-4.13-.5c-1.06,0-1.51-.76-1.51-1.7Zm9.66-2.2H3.26v3.01A1.423,1.423,0,0,1,1.78-.52C.9-.52.52-1.13.52-2V-5.12H-.24v3.23A1.8,1.8,0,0,0,1.59.12,1.714,1.714,0,0,0,3.3-.87V0h.72ZM7.66.12A2.043,2.043,0,0,0,9.85-1.8H9.17A1.418,1.418,0,0,1,7.67-.48,1.453,1.453,0,0,1,6.13-2.12V-3A1.453,1.453,0,0,1,7.67-4.64a1.418,1.418,0,0,1,1.5,1.32h.68A2.043,2.043,0,0,0,7.66-5.24,2.136,2.136,0,0,0,5.39-2.99v.86A2.136,2.136,0,0,0,7.66.12ZM13.65,0V-.62h-.51c-.57,0-.76-.22-.76-.74V-4.5h1.31v-.62H12.38V-6.59h-.76v1.47h-.87v.62h.87v3.14A1.209,1.209,0,0,0,13.01,0Zm3.57,0h4.52V-.63H18.11l2.47-2.52a3.105,3.105,0,0,0,1.15-2.07,1.975,1.975,0,0,0-2.2-1.92,1.966,1.966,0,0,0-2.2,2.01v.19h.73V-5.1a1.33,1.33,0,0,1,1.47-1.41,1.306,1.306,0,0,1,1.43,1.29,2.213,2.213,0,0,1-.78,1.51L17.22-.6Z" transform="matrix(0.985, -0.174, 0.174, 0.985, 1140.817, 555.954)"/>
    </g>
  </g>
</svg>
