<svg xmlns="http://www.w3.org/2000/svg" width="30" height="30" viewBox="0 0 30 30">
  <g id="redeem-gift" transform="translate(0 -22.274)">
    <g id="Group_5" data-name="Group 5" transform="translate(0.439 27.908)">
      <path id="Path_57" data-name="Path 57" d="M290.749,112.4l-1.427-1.4a3.043,3.043,0,0,0-2.13-.89h-2.535v4.835h-1.382v7.682h11.374V112.4Z" transform="translate(-267.124 -110.116)" fill="#eb9c8d"/>
      <path id="Path_58" data-name="Path 58" d="M289.714,190.282c.007-.086.012-.172.012-.259a3.1,3.1,0,0,0-.5-1.7l-4.74-5.921-.386.2h-.827v7.682h6.438Z" transform="translate(-267.125 -177.765)" fill="#d78878"/>
      <g id="Group_2" data-name="Group 2" transform="translate(1.577 0.564)">
        <g id="XMLID_99_">
          <g id="Group_1" data-name="Group 1">
            <path id="Path_59" data-name="Path 59" d="M51.181,130.989a1.749,1.749,0,0,1-.355,2.284,1.411,1.411,0,0,1-.874.308,1.465,1.465,0,0,1-1.223-.688l-.165-.253a1.748,1.748,0,0,1-.348,2.294,1.408,1.408,0,0,1-.873.308,1.464,1.464,0,0,1-1.223-.688l-.093-.142a1.749,1.749,0,0,1-.347,2.3,1.408,1.408,0,0,1-.873.308,1.464,1.464,0,0,1-1.223-.688l-3.466-5.369a.212.212,0,0,0-.177-.1l-5.514.01V120.5h4.161l.453-.512a3.125,3.125,0,0,1,2.338-1.084h4.809l3.64,4.271L54,129.643a1.746,1.746,0,0,1,.281.957,1.7,1.7,0,0,1-.628,1.339,1.421,1.421,0,0,1-2.1-.38Z" transform="translate(-34.426 -118.906)" fill="#fed2a4"/>
          </g>
        </g>
      </g>
      <g id="Group_4" data-name="Group 4" transform="translate(0 1.228)">
        <g id="XMLID_96_">
          <g id="Group_3" data-name="Group 3">
            <path id="Path_60" data-name="Path 60" d="M431.3,129.755V141.1a.479.479,0,0,1-.455.5H427.3a.6.6,0,0,1-.571-.625V129.881a.6.6,0,0,1,.571-.625h3.543A.479.479,0,0,1,431.3,129.755Z" transform="translate(-402.174 -129.256)" fill="#fdb97e"/>
            <path id="Path_61" data-name="Path 61" d="M44.529,157.464a1.464,1.464,0,0,0,1.223.688,1.379,1.379,0,0,0,.506-.1,1.65,1.65,0,0,1-.579.924,1.408,1.408,0,0,1-.873.308,1.464,1.464,0,0,1-1.223-.688l-3.466-5.369a.212.212,0,0,0-.177-.1l-5.514.01V142.772h4.161l.061-.07v8.126A1.122,1.122,0,0,0,39.717,152h.84a.871.871,0,0,1,.728.415Z" transform="translate(-32.848 -141.84)" fill="#ffbd86"/>
            <path id="Path_62" data-name="Path 62" d="M12.124,129.881v11.092a.6.6,0,0,1-.571.625H7.822a.343.343,0,0,1-.326-.357V129.613a.343.343,0,0,1,.326-.357h3.731A.6.6,0,0,1,12.124,129.881Z" transform="translate(-7.496 -129.256)" fill="#ade194"/>
            <path id="Path_63" data-name="Path 63" d="M11.553,276.577H7.822a.343.343,0,0,1-.326-.357v2.307a.343.343,0,0,0,.326.357h3.731a.6.6,0,0,0,.571-.625v-2.307A.6.6,0,0,1,11.553,276.577Z" transform="translate(-7.496 -266.542)" fill="#97da7b"/>
          </g>
        </g>
      </g>
      <path id="Path_64" data-name="Path 64" d="M157.819,123.177l-3.64-4.271h-1.541l-2.9,3.716a2.9,2.9,0,0,0-.6,1.779,2.854,2.854,0,0,0,.731,1.934,2.339,2.339,0,0,0,3.33.2l2.357-2.073h3.092Z" transform="translate(-140.841 -118.342)" fill="#ffbd86"/>
      <path id="Path_65" data-name="Path 65" d="M177.2,110.116h-3.076a1.422,1.422,0,0,0-1.118.564l-3.553,4.55a1.555,1.555,0,0,0,.07,1.971,1.242,1.242,0,0,0,1.768.105l2.534-2.228a.5.5,0,0,1,.33-.127H177.2v-4.835Z" transform="translate(-159.67 -110.116)" fill="#eb9c8d"/>
    </g>
    <g id="Group_6" data-name="Group 6" transform="translate(0 22.274)">
      <path id="Path_66" data-name="Path 66" d="M.439,104.807H4.5a.139.139,0,0,1,.132.144v7.11a.441.441,0,1,0,.878,0v-6.322h.67a.422.422,0,0,0,.315-.146l.453-.512a2.717,2.717,0,0,1,2.022-.938h3.856L9.89,107.9a2.081,2.081,0,0,0,.093,2.624,1.687,1.687,0,0,0,1.248.567,1.668,1.668,0,0,0,1.105-.427l2.558-2.25H17.19l2.34,3.629a.428.428,0,0,0,.359.2.411.411,0,0,0,.253-.088.511.511,0,0,0,.105-.67l-2.034-3.153a.494.494,0,0,0,.2-.4.462.462,0,0,0-.439-.481H14.74a.416.416,0,0,0-.275.106l-2.678,2.356a.83.83,0,0,1-1.183-.071,1.045,1.045,0,0,1-.047-1.318l3.554-4.55a1,1,0,0,1,.784-.4h3.812a.483.483,0,0,0,0-.962H14.9a1.821,1.821,0,0,0-1.3.564H8.968a3.565,3.565,0,0,0-2.653,1.23l-.323.365h-.5a1.044,1.044,0,0,0-1-.932H.439a.483.483,0,0,0,0,.962Z" transform="translate(0 -97.464)"/>
      <path id="Path_67" data-name="Path 67" d="M29.561,116.213h-4a.139.139,0,0,1-.132-.144V104.977a.139.139,0,0,1,.132-.144h4a.483.483,0,0,0,0-.962h-4a1.057,1.057,0,0,0-1.008,1.06h-.322l-1.3-1.275a3.471,3.471,0,0,0-2.34-1.011.457.457,0,0,0-.449.47.464.464,0,0,0,.429.492,2.632,2.632,0,0,1,1.775.766l1.427,1.4a.418.418,0,0,0,.293.122h.488v9.267H22.3a2.232,2.232,0,0,0-.351-1.013l-.619-.959a.416.416,0,0,0-.612-.115.511.511,0,0,0-.105.67l.62.962a1.244,1.244,0,0,1,.184.868,1.175,1.175,0,0,1-.43.757.987.987,0,0,1-.793.2,1.049,1.049,0,0,1-.691-.471l-1.211-1.853a.415.415,0,0,0-.613-.111.511.511,0,0,0-.1.671l.831,1.271a1.239,1.239,0,0,1-.246,1.625.985.985,0,0,1-.793.2,1.049,1.049,0,0,1-.691-.471l-.831-1.271a.415.415,0,0,0-.613-.111.511.511,0,0,0-.1.671L15.8,117.7a1.239,1.239,0,0,1-.246,1.625,1.006,1.006,0,0,1-1.484-.269L13.4,118.04a.415.415,0,0,0-.613-.111.511.511,0,0,0-.1.671l.572.875a1.244,1.244,0,0,1,.184.868,1.176,1.176,0,0,1-.43.757,1.006,1.006,0,0,1-1.482-.267l-3.466-5.369a.642.642,0,0,0-.536-.3H5.507v-1.022a.441.441,0,1,0-.878,0v1.931a.139.139,0,0,1-.132.144H.439a.483.483,0,0,0,0,.962H4.5A1.057,1.057,0,0,0,5.5,116.122H7.416l3.4,5.269a1.893,1.893,0,0,0,1.581.888,1.819,1.819,0,0,0,1.128-.4,2.148,2.148,0,0,0,.785-1.382q.008-.051.013-.1a1.8,1.8,0,0,0,.61.108,1.819,1.819,0,0,0,1.128-.4,2.158,2.158,0,0,0,.787-1.4,1.824,1.824,0,0,0,.375.111,1.792,1.792,0,0,0,1.447-.369,2.132,2.132,0,0,0,.75-1.2,1.834,1.834,0,0,0,.626.238,1.792,1.792,0,0,0,1.447-.369,2.1,2.1,0,0,0,.691-.99h2.367a1.057,1.057,0,0,0,1.008,1.053h4a.483.483,0,0,0,0-.962Z" transform="translate(0 -97.49)"/>
      <path id="Path_68" data-name="Path 68" d="M249.065,24.907a.462.462,0,0,0,.439-.481V22.755a.441.441,0,1,0-.878,0v1.671A.462.462,0,0,0,249.065,24.907Z" transform="translate(-234.065 -22.274)"/>
      <path id="Path_69" data-name="Path 69" d="M326.51,42.855a.406.406,0,0,0,.175.04.44.44,0,0,0,.4-.289l.609-1.532a.5.5,0,0,0-.227-.633.426.426,0,0,0-.578.249l-.609,1.532A.5.5,0,0,0,326.51,42.855Z" transform="translate(-307.14 -39.238)"/>
      <path id="Path_70" data-name="Path 70" d="M161.246,42.606a.44.44,0,0,0,.4.289.405.405,0,0,0,.175-.04.5.5,0,0,0,.227-.633l-.609-1.532a.425.425,0,0,0-.578-.249.5.5,0,0,0-.227.633Z" transform="translate(-151.194 -39.238)"/>
      <path id="Path_71" data-name="Path 71" d="M249.065,448.926a.462.462,0,0,0-.439.481v1.671a.441.441,0,1,0,.878,0v-1.671A.462.462,0,0,0,249.065,448.926Z" transform="translate(-234.065 -421.559)"/>
      <path id="Path_72" data-name="Path 72" d="M327.088,433.253a.425.425,0,0,0-.578-.249.5.5,0,0,0-.227.633l.609,1.532a.44.44,0,0,0,.4.289.406.406,0,0,0,.175-.04.5.5,0,0,0,.227-.633Z" transform="translate(-307.14 -406.62)"/>
      <path id="Path_73" data-name="Path 73" d="M161.824,433a.425.425,0,0,0-.578.249l-.609,1.532a.5.5,0,0,0,.227.633.405.405,0,0,0,.175.04.44.44,0,0,0,.4-.289l.609-1.532A.5.5,0,0,0,161.824,433Z" transform="translate(-151.195 -406.621)"/>
    </g>
  </g>
</svg>
