<svg xmlns="http://www.w3.org/2000/svg" width="300" height="58" viewBox="0 0 300 58">
  <g id="Group_4481" data-name="Group 4481" transform="translate(-1025 -139)">
    <rect id="Rectangle_3831" data-name="Rectangle 3831" width="300" height="58" rx="10" transform="translate(1025 139)" fill="#fff"/>
    <path id="Path_1447" data-name="Path 1447" d="M-5.024,0h.616V-5.6H-4.92l-1.272.624v.56l1.168-.552Zm3.9.112A1.807,1.807,0,0,0,.84-1.752v-2.1A1.807,1.807,0,0,0-1.12-5.712,1.807,1.807,0,0,0-3.08-3.848v2.1A1.807,1.807,0,0,0-1.12.112Zm0-.5A1.238,1.238,0,0,1-2.464-1.728V-3.872A1.238,1.238,0,0,1-1.12-5.208,1.238,1.238,0,0,1,.224-3.872v2.144A1.238,1.238,0,0,1-1.12-.392Zm5.04.5A1.807,1.807,0,0,0,5.88-1.752v-2.1A1.807,1.807,0,0,0,3.92-5.712,1.807,1.807,0,0,0,1.96-3.848v2.1A1.807,1.807,0,0,0,3.92.112Zm0-.5A1.238,1.238,0,0,1,2.576-1.728V-3.872A1.238,1.238,0,0,1,3.92-5.208,1.238,1.238,0,0,1,5.264-3.872v2.144A1.238,1.238,0,0,1,3.92-.392Z" transform="translate(1180.5 190)"/>
    <path id="Path_1448" data-name="Path 1448" d="M-5.024,0h.616V-5.6H-4.92l-1.272.624v.56l1.168-.552Zm3.9.112A1.807,1.807,0,0,0,.84-1.752v-2.1A1.807,1.807,0,0,0-1.12-5.712,1.807,1.807,0,0,0-3.08-3.848v2.1A1.807,1.807,0,0,0-1.12.112Zm0-.5A1.238,1.238,0,0,1-2.464-1.728V-3.872A1.238,1.238,0,0,1-1.12-5.208,1.238,1.238,0,0,1,.224-3.872v2.144A1.238,1.238,0,0,1-1.12-.392Zm5.04.5A1.807,1.807,0,0,0,5.88-1.752v-2.1A1.807,1.807,0,0,0,3.92-5.712,1.807,1.807,0,0,0,1.96-3.848v2.1A1.807,1.807,0,0,0,3.92.112Zm0-.5A1.238,1.238,0,0,1,2.576-1.728V-3.872A1.238,1.238,0,0,1,3.92-5.208,1.238,1.238,0,0,1,5.264-3.872v2.144A1.238,1.238,0,0,1,3.92-.392Z" transform="translate(1041.5 190)"/>
    <path id="Path_1449" data-name="Path 1449" d="M-5,0h.616V-5.6H-4.9l-1.272.624v.56L-5-4.968Zm3.864.112A1.91,1.91,0,0,0,.88-1.784,1.788,1.788,0,0,0-.936-3.632a1.74,1.74,0,0,0-1.312.544L-1.9-5.1h2.3v-.5H-2.384l-.528,3.128h.584a1.546,1.546,0,0,1,1.272-.656A1.314,1.314,0,0,1,.28-1.768,1.329,1.329,0,0,1-1.136-.392a1.285,1.285,0,0,1-1.312-.984h-.584A1.831,1.831,0,0,0-1.136.112ZM3.9.112a1.807,1.807,0,0,0,1.96-1.864v-2.1A1.807,1.807,0,0,0,3.9-5.712a1.807,1.807,0,0,0-1.96,1.864v2.1A1.807,1.807,0,0,0,3.9.112Zm0-.5A1.238,1.238,0,0,1,2.552-1.728V-3.872A1.238,1.238,0,0,1,3.9-5.208,1.238,1.238,0,0,1,5.24-3.872v2.144A1.238,1.238,0,0,1,3.9-.392Z" transform="translate(1228.5 190)"/>
    <line id="Line_2573" data-name="Line 2573" y2="58" transform="translate(1035.5 139)" fill="none" stroke="rgba(0,0,0,0.2)" stroke-width="1"/>
    <line id="Line_2574" data-name="Line 2574" x2="300" transform="translate(1025 179.504)" fill="none" stroke="rgba(0,0,0,0.2)" stroke-width="1"/>
    <path id="Path_1450" data-name="Path 1450" d="M-4.072-5.1h2.52L-3.28-3.16v.48h.76a1.149,1.149,0,0,1,1.3,1.136A1.2,1.2,0,0,1-2.56-.384,1.221,1.221,0,0,1-3.888-1.528h-.568A1.746,1.746,0,0,0-2.568.112,1.8,1.8,0,0,0-.624-1.56a1.592,1.592,0,0,0-1.76-1.576H-2.6L-.808-5.1v-.5H-4.072ZM2.432.112a1.807,1.807,0,0,0,1.96-1.864v-2.1a1.807,1.807,0,0,0-1.96-1.864A1.807,1.807,0,0,0,.472-3.848v2.1A1.807,1.807,0,0,0,2.432.112Zm0-.5A1.238,1.238,0,0,1,1.088-1.728V-3.872A1.238,1.238,0,0,1,2.432-5.208,1.238,1.238,0,0,1,3.776-3.872v2.144A1.238,1.238,0,0,1,2.432-.392Z" transform="translate(1131.5 190)"/>
    <path id="Path_1451" data-name="Path 1451" d="M-3.692,0h.616L-.6-5.168V-5.6H-4.116v.5h2.88ZM2.116.112a1.807,1.807,0,0,0,1.96-1.864v-2.1a1.807,1.807,0,0,0-1.96-1.864A1.807,1.807,0,0,0,.156-3.848v2.1A1.807,1.807,0,0,0,2.116.112Zm0-.5A1.238,1.238,0,0,1,.772-1.728V-3.872A1.238,1.238,0,0,1,2.116-5.208,1.238,1.238,0,0,1,3.46-3.872v2.144A1.238,1.238,0,0,1,2.116-.392Z" transform="translate(1083.5 190)"/>
    <path id="Path_1452" data-name="Path 1452" d="M-2.536.112A1.91,1.91,0,0,0-.52-1.784,1.788,1.788,0,0,0-2.336-3.632a1.74,1.74,0,0,0-1.312.544L-3.3-5.1h2.3v-.5H-3.784l-.528,3.128h.584a1.546,1.546,0,0,1,1.272-.656A1.314,1.314,0,0,1-1.12-1.768,1.329,1.329,0,0,1-2.536-.392a1.285,1.285,0,0,1-1.312-.984h-.584A1.831,1.831,0,0,0-2.536.112ZM2.5.112a1.807,1.807,0,0,0,1.96-1.864v-2.1A1.807,1.807,0,0,0,2.5-5.712,1.807,1.807,0,0,0,.536-3.848v2.1A1.807,1.807,0,0,0,2.5.112Zm0-.5A1.238,1.238,0,0,1,1.152-1.728V-3.872A1.238,1.238,0,0,1,2.5-5.208,1.238,1.238,0,0,1,3.84-3.872v2.144A1.238,1.238,0,0,1,2.5-.392Z" transform="translate(1276.5 190)"/>
    <line id="Line_2585" data-name="Line 2585" y2="35.504" transform="translate(1083.5 144)" fill="none" stroke="rgba(0,0,0,0.1)" stroke-width="1" stroke-dasharray="3"/>
    <line id="Line_2641" data-name="Line 2641" y2="35.504" transform="translate(1041.5 144)" fill="none" stroke="rgba(0,0,0,0.1)" stroke-width="1" stroke-dasharray="3"/>
    <line id="Line_2585-2" data-name="Line 2585" y2="35.504" transform="translate(1131.5 144)" fill="none" stroke="rgba(0,0,0,0.1)" stroke-width="1" stroke-dasharray="3"/>
    <line id="Line_2585-3" data-name="Line 2585" y2="35.504" transform="translate(1180.5 144)" fill="none" stroke="rgba(0,0,0,0.1)" stroke-width="1" stroke-dasharray="3"/>
    <line id="Line_2585-4" data-name="Line 2585" y2="35.504" transform="translate(1228.5 144)" fill="none" stroke="rgba(0,0,0,0.1)" stroke-width="1" stroke-dasharray="3"/>
    <line id="Line_2585-5" data-name="Line 2585" y2="35.504" transform="translate(1276.5 144)" fill="none" stroke="rgba(0,0,0,0.1)" stroke-width="1" stroke-dasharray="3"/>
    <path id="Path_1418" data-name="Path 1418" d="M.9.419s30.432,10.721,74.233,13.6S132.8-3.345,175.177-2.825,244.649,16.1,244.649,16.1" transform="translate(1037.5 155.5)" fill="none" stroke="#0288d1" stroke-width="2"/>
    <rect id="Rectangle_3911" data-name="Rectangle 3911" width="9" height="9" rx="4.5" transform="translate(1037 153)" fill="#0288d1"/>
    <rect id="Rectangle_3944" data-name="Rectangle 3944" width="9" height="9" rx="4.5" transform="translate(1079 162)" fill="#0288d1"/>
    <rect id="Rectangle_3945" data-name="Rectangle 3945" width="9" height="9" rx="4.5" transform="translate(1127 165)" fill="#0288d1"/>
    <rect id="Rectangle_3946" data-name="Rectangle 3946" width="9" height="9" rx="4.5" transform="translate(1176 152)" fill="#0288d1"/>
    <rect id="Rectangle_3947" data-name="Rectangle 3947" width="9" height="9" rx="4.5" transform="translate(1224 149)" fill="#0288d1"/>
    <rect id="Rectangle_3948" data-name="Rectangle 3948" width="9" height="9" rx="4.5" transform="translate(1272 164)" fill="#0288d1"/>
  </g>
</svg>
