<svg xmlns="http://www.w3.org/2000/svg" width="300" height="150" viewBox="0 0 300 150">
  <g id="top_5_Gift_graph" transform="translate(-9244 -9067)">
    <rect id="Rectangle_3831" data-name="Rectangle 3831" width="300" height="150" rx="10" transform="translate(9244 9067)" fill="#fff"/>
    <path id="Path_1405" data-name="Path 1405" d="M1.1-6.38H4.25L2.09-3.95v.6h.95A1.436,1.436,0,0,1,4.66-1.93,1.5,1.5,0,0,1,2.99-.48,1.526,1.526,0,0,1,1.33-1.91H.62A2.182,2.182,0,0,0,2.98.14,2.243,2.243,0,0,0,5.41-1.95a1.989,1.989,0,0,0-2.2-1.97H2.94L5.18-6.37V-7H1.1ZM9.39-7V0h2.63a2.539,2.539,0,0,0,2.76-2.69V-4.31A2.539,2.539,0,0,0,12.02-7ZM11.91-.64H10.16V-6.36h1.75a1.906,1.906,0,0,1,2.1,2.05v1.62A1.906,1.906,0,0,1,11.91-.64ZM20.38,0V-3.4a1.857,1.857,0,0,0-2.03-1.84,1.937,1.937,0,0,0-1.99,1.37h.7a1.3,1.3,0,0,1,1.28-.77A1.186,1.186,0,0,1,19.62-3.4v.95a2.241,2.241,0,0,0-1.64-.64c-1.22,0-2.03.61-2.03,1.6,0,.93.73,1.61,1.94,1.61a2.165,2.165,0,0,0,1.76-.76V0ZM18.05-.37c-.79,0-1.38-.4-1.38-1.11s.57-1.11,1.42-1.11c.77,0,1.53.45,1.53,1.09C19.62-.84,18.85-.37,18.05-.37Zm5.23,2.11L23.95,0l1.89-5.12h-.75L23.59-.77,22.03-5.12h-.75L23.19,0l-.65,1.74ZM30.72,0h.78V-6.35h2.14V-7H28.58v.65h2.14Zm3.41,0h.76V-2.51c0-1.29.62-1.93,1.59-1.93h.15v-.71h-.12a1.519,1.519,0,0,0-1.67,1.21V-5.12h-.71Zm3.58,0h.76V-5.12h-.76Zm-.1-6.47a.446.446,0,0,0,.48.46.446.446,0,0,0,.48-.46.446.446,0,0,0-.48-.46A.446.446,0,0,0,37.61-6.47ZM40.9,1.74V-.76a1.915,1.915,0,0,0,1.71.88,2.1,2.1,0,0,0,2.12-2.29v-.78a2.088,2.088,0,0,0-2.14-2.29,1.908,1.908,0,0,0-1.73.92v-.8h-.72V1.74ZM43.97-2.2a1.522,1.522,0,0,1-1.5,1.7A1.582,1.582,0,0,1,40.9-2.2v-.66a1.57,1.57,0,0,1,1.56-1.76c1.06,0,1.51.76,1.51,1.7Z" transform="matrix(0.985, -0.174, 0.174, 0.985, 9497.862, 9211.861)"/>
    <path id="Path_1407" data-name="Path 1407" d="M3.79-7H3.01L.38,0h.77l.63-1.78H5.01L5.65,0h.77Zm-.39.71L4.79-2.4H2ZM7.66,0h.76V-7.3H7.66Zm4.88,0V-.62h-.51c-.57,0-.76-.22-.76-.74V-4.5h1.31v-.62H11.27V-6.59h-.76v1.47H9.64v.62h.87v3.14A1.209,1.209,0,0,0,11.9,0Zm3.27.12a2.151,2.151,0,0,0,2.28-2.26v-.84a2.151,2.151,0,0,0-2.28-2.26,2.159,2.159,0,0,0-2.29,2.26v.84A2.154,2.154,0,0,0,15.81.12Zm1.55-3.09v.82A1.49,1.49,0,0,1,15.81-.49a1.49,1.49,0,0,1-1.55-1.66v-.82a1.49,1.49,0,0,1,1.55-1.66A1.49,1.49,0,0,1,17.36-2.97ZM21.96,0h.78V-3.48L26.01,0h.94L23.59-3.54,26.84-7H25.9L22.74-3.59V-7h-.78Zm6.98,0h.77V-7h-.64l-1.59.78v.7l1.46-.69Zm4.88.14a2.259,2.259,0,0,0,2.45-2.33V-4.81a2.259,2.259,0,0,0-2.45-2.33,2.259,2.259,0,0,0-2.45,2.33v2.62A2.259,2.259,0,0,0,33.82.14Zm0-.63a1.547,1.547,0,0,1-1.68-1.67V-4.84a1.547,1.547,0,0,1,1.68-1.67A1.547,1.547,0,0,1,35.5-4.84v2.68A1.547,1.547,0,0,1,33.82-.49Z" transform="matrix(0.985, -0.174, 0.174, 0.985, 9393.802, 9211.167)"/>
    <path id="Path_1406" data-name="Path 1406" d="M.96,0h.78V-7H.96ZM6.01,0h.78V-2.54H8.75a2.208,2.208,0,0,0,2.38-2.24A2.193,2.193,0,0,0,8.75-7H6.01Zm.78-3.19V-6.35H8.68a1.5,1.5,0,0,1,1.67,1.57A1.517,1.517,0,0,1,8.68-3.19ZM12.3,0h.76V-3.01a1.407,1.407,0,0,1,1.48-1.57c.92,0,1.31.59,1.31,1.46V0h.76V-3.23a1.817,1.817,0,0,0-1.88-2.01,1.769,1.769,0,0,0-1.67.91V-7.3H12.3Zm7.92.12A2.151,2.151,0,0,0,22.5-2.14v-.84a2.151,2.151,0,0,0-2.28-2.26,2.159,2.159,0,0,0-2.29,2.26v.84A2.154,2.154,0,0,0,20.22.12Zm1.55-3.09v.82A1.49,1.49,0,0,1,20.22-.49a1.49,1.49,0,0,1-1.55-1.66v-.82a1.49,1.49,0,0,1,1.55-1.66A1.49,1.49,0,0,1,21.77-2.97ZM23.87,0h.76V-3.01a1.407,1.407,0,0,1,1.48-1.57c.92,0,1.31.59,1.31,1.46V0h.76V-3.23A1.817,1.817,0,0,0,26.3-5.24a1.714,1.714,0,0,0-1.71.99v-.87h-.72Zm7.89.12a2.021,2.021,0,0,0,2.09-1.57h-.68a1.357,1.357,0,0,1-1.41.99,1.444,1.444,0,0,1-1.53-1.61v-.18H33.9v-.76a2.037,2.037,0,0,0-2.17-2.23A2.092,2.092,0,0,0,29.5-2.93v.82A2.113,2.113,0,0,0,31.76.12ZM30.23-2.99c0-.94.4-1.67,1.5-1.67a1.4,1.4,0,0,1,1.46,1.59v.24H30.23ZM38.65,0h.77V-7h-.64l-1.59.78v.7l1.46-.69Zm3.5,0h.77V-7h-.64l-1.59.78v.7l1.46-.69Z" transform="matrix(0.985, -0.174, 0.174, 0.985, 9444.855, 9211.774)"/>
    <line id="Line_2573" data-name="Line 2573" y2="130" transform="translate(9279.5 9074.5)" fill="none" stroke="rgba(0,0,0,0.2)" stroke-width="1"/>
    <line id="Line_2574" data-name="Line 2574" x2="274.5" transform="translate(9269.5 9194.504)" fill="none" stroke="rgba(0,0,0,0.2)" stroke-width="1"/>
    <path id="Path_1403" data-name="Path 1403" d="M.56,0H4.176V-.5h-2.9L3.248-2.52a2.484,2.484,0,0,0,.92-1.656,1.58,1.58,0,0,0-1.76-1.536A1.573,1.573,0,0,0,.648-4.1v.152h.584V-4.08A1.064,1.064,0,0,1,2.408-5.208,1.045,1.045,0,0,1,3.552-4.176a1.77,1.77,0,0,1-.624,1.208L.56-.48ZM7.248.112a1.807,1.807,0,0,0,1.96-1.864v-2.1a1.807,1.807,0,0,0-1.96-1.864,1.807,1.807,0,0,0-1.96,1.864v2.1A1.807,1.807,0,0,0,7.248.112Zm0-.5A1.238,1.238,0,0,1,5.9-1.728V-3.872A1.238,1.238,0,0,1,7.248-5.208,1.238,1.238,0,0,1,8.592-3.872v2.144A1.238,1.238,0,0,1,7.248-.392Zm5.04.5a1.807,1.807,0,0,0,1.96-1.864v-2.1a1.807,1.807,0,0,0-1.96-1.864,1.807,1.807,0,0,0-1.96,1.864v2.1A1.807,1.807,0,0,0,12.288.112Zm0-.5a1.238,1.238,0,0,1-1.344-1.336V-3.872a1.238,1.238,0,0,1,1.344-1.336,1.238,1.238,0,0,1,1.344,1.336v2.144A1.238,1.238,0,0,1,12.288-.392ZM15.536,0h.624V-2.784L18.776,0h.752L16.84-2.832,19.44-5.6h-.752L16.16-2.872V-5.6h-.624Z" transform="translate(9254 9089)"/>
    <line id="Line_2580" data-name="Line 2580" x2="264" transform="translate(9279.5 9084.5)" fill="none" stroke="rgba(0,0,0,0.1)" stroke-width="1" stroke-dasharray="3"/>
    <path id="Path_1402" data-name="Path 1402" d="M1.416,0h.616V-5.6H1.52L.248-4.976v.56l1.168-.552ZM5.28.112A1.91,1.91,0,0,0,7.3-1.784,1.788,1.788,0,0,0,5.48-3.632a1.74,1.74,0,0,0-1.312.544L4.52-5.1h2.3v-.5H4.032L3.5-2.472h.584A1.546,1.546,0,0,1,5.36-3.128,1.314,1.314,0,0,1,6.7-1.768,1.329,1.329,0,0,1,5.28-.392a1.285,1.285,0,0,1-1.312-.984H3.384A1.831,1.831,0,0,0,5.28.112Zm5.032,0a1.807,1.807,0,0,0,1.96-1.864v-2.1a1.807,1.807,0,0,0-1.96-1.864,1.807,1.807,0,0,0-1.96,1.864v2.1A1.807,1.807,0,0,0,10.312.112Zm0-.5A1.238,1.238,0,0,1,8.968-1.728V-3.872a1.238,1.238,0,0,1,1.344-1.336,1.238,1.238,0,0,1,1.344,1.336v2.144A1.238,1.238,0,0,1,10.312-.392ZM13.56,0h.624V-2.784L16.8,0h.752L14.864-2.832l2.6-2.768h-.752L14.184-2.872V-5.6H13.56Z" transform="translate(9254 9113)"/>
    <line id="Line_2581" data-name="Line 2581" x2="264" transform="translate(9279.5 9108.5)" fill="none" stroke="rgba(0,0,0,0.1)" stroke-width="1" stroke-dasharray="3"/>
    <path id="Path_1400" data-name="Path 1400" d="M1.416,0h.616V-5.6H1.52L.248-4.976v.56l1.168-.552Zm3.9.112A1.807,1.807,0,0,0,7.28-1.752v-2.1A1.807,1.807,0,0,0,5.32-5.712,1.807,1.807,0,0,0,3.36-3.848v2.1A1.807,1.807,0,0,0,5.32.112Zm0-.5A1.238,1.238,0,0,1,3.976-1.728V-3.872A1.238,1.238,0,0,1,5.32-5.208,1.238,1.238,0,0,1,6.664-3.872v2.144A1.238,1.238,0,0,1,5.32-.392Zm5.04.5a1.807,1.807,0,0,0,1.96-1.864v-2.1a1.807,1.807,0,0,0-1.96-1.864A1.807,1.807,0,0,0,8.4-3.848v2.1A1.807,1.807,0,0,0,10.36.112Zm0-.5A1.238,1.238,0,0,1,9.016-1.728V-3.872A1.238,1.238,0,0,1,10.36-5.208,1.238,1.238,0,0,1,11.7-3.872v2.144A1.238,1.238,0,0,1,10.36-.392ZM13.608,0h.624V-2.784L16.848,0H17.6L14.912-2.832l2.6-2.768H16.76L14.232-2.872V-5.6h-.624Z" transform="translate(9254 9137)"/>
    <line id="Line_2582" data-name="Line 2582" x2="264" transform="translate(9279.5 9132.5)" fill="none" stroke="rgba(0,0,0,0.1)" stroke-width="1" stroke-dasharray="3"/>
    <path id="Path_1401" data-name="Path 1401" d="M2.48.112A1.91,1.91,0,0,0,4.5-1.784,1.788,1.788,0,0,0,2.68-3.632a1.74,1.74,0,0,0-1.312.544L1.72-5.1h2.3v-.5H1.232L.7-2.472h.584A1.546,1.546,0,0,1,2.56-3.128,1.314,1.314,0,0,1,3.9-1.768,1.329,1.329,0,0,1,2.48-.392a1.285,1.285,0,0,1-1.312-.984H.584A1.831,1.831,0,0,0,2.48.112Zm5.032,0a1.807,1.807,0,0,0,1.96-1.864v-2.1a1.807,1.807,0,0,0-1.96-1.864,1.807,1.807,0,0,0-1.96,1.864v2.1A1.807,1.807,0,0,0,7.512.112Zm0-.5A1.238,1.238,0,0,1,6.168-1.728V-3.872A1.238,1.238,0,0,1,7.512-5.208,1.238,1.238,0,0,1,8.856-3.872v2.144A1.238,1.238,0,0,1,7.512-.392ZM10.76,0h.624V-2.784L14,0h.752L12.064-2.832l2.6-2.768h-.752L11.384-2.872V-5.6H10.76Z" transform="translate(9254 9161)"/>
    <line id="Line_2583" data-name="Line 2583" x2="264" transform="translate(9279.5 9156.5)" fill="none" stroke="rgba(0,0,0,0.1)" stroke-width="1" stroke-dasharray="3"/>
    <path id="Path_1399" data-name="Path 1399" d="M1.416,0h.616V-5.6H1.52L.248-4.976v.56l1.168-.552Zm3.9.112A1.807,1.807,0,0,0,7.28-1.752v-2.1A1.807,1.807,0,0,0,5.32-5.712,1.807,1.807,0,0,0,3.36-3.848v2.1A1.807,1.807,0,0,0,5.32.112Zm0-.5A1.238,1.238,0,0,1,3.976-1.728V-3.872A1.238,1.238,0,0,1,5.32-5.208,1.238,1.238,0,0,1,6.664-3.872v2.144A1.238,1.238,0,0,1,5.32-.392ZM8.568,0h.624V-2.784L11.808,0h.752L9.872-2.832l2.6-2.768H11.72L9.192-2.872V-5.6H8.568Z" transform="translate(9254 9185)"/>
    <line id="Line_2584" data-name="Line 2584" x2="264" transform="translate(9279.5 9180.5)" fill="none" stroke="rgba(0,0,0,0.1)" stroke-width="1" stroke-dasharray="3"/>
    <path id="Rectangle_3833" data-name="Rectangle 3833" d="M2,0H8a2,2,0,0,1,2,2V77a0,0,0,0,1,0,0H0a0,0,0,0,1,0,0V2A2,2,0,0,1,2,0Z" transform="translate(9300 9118)" fill="#0288d1"/>
    <path id="Rectangle_3833-2" data-name="Rectangle 3833" d="M2,0H8a2,2,0,0,1,2,2V102a0,0,0,0,1,0,0H0a0,0,0,0,1,0,0V2A2,2,0,0,1,2,0Z" transform="translate(9354 9093)" fill="#0288d1"/>
    <path id="Rectangle_3833-3" data-name="Rectangle 3833" d="M2,0H8a2,2,0,0,1,2,2V74a0,0,0,0,1,0,0H0a0,0,0,0,1,0,0V2A2,2,0,0,1,2,0Z" transform="translate(9407 9121)" fill="#0288d1"/>
    <path id="Rectangle_3833-4" data-name="Rectangle 3833" d="M2,0H8a2,2,0,0,1,2,2V37a0,0,0,0,1,0,0H0a0,0,0,0,1,0,0V2A2,2,0,0,1,2,0Z" transform="translate(9461 9158)" fill="#0288d1"/>
    <path id="Rectangle_3833-5" data-name="Rectangle 3833" d="M2,0H8a2,2,0,0,1,2,2V30a0,0,0,0,1,0,0H0a0,0,0,0,1,0,0V2A2,2,0,0,1,2,0Z" transform="translate(9514 9165)" fill="#0288d1"/>
    <path id="Path_1408" data-name="Path 1408" d="M6.99-7H6.26L3.95-2.38,1.64-7H.91V0h.74V-5.5L3.58-1.69h.74L6.25-5.5V0h.74ZM8.76,0h.76V-5.12H8.76Zm-.1-6.47a.446.446,0,0,0,.48.46.446.446,0,0,0,.48-.46.446.446,0,0,0-.48-.46A.446.446,0,0,0,8.66-6.47ZM13.69,0h4.37V-.65H14.47V-7h-.78Zm5.69,0h4.63V-.65H20.16V-3.22h3.55v-.65H20.16V-6.35H24V-7H19.38Zm6.09-7V0H28.1a2.539,2.539,0,0,0,2.76-2.69V-4.31A2.539,2.539,0,0,0,28.1-7ZM27.99-.64H26.24V-6.36h1.75a1.906,1.906,0,0,1,2.1,2.05v1.62A1.906,1.906,0,0,1,27.99-.64ZM36.17,0h.78V-6.35h2.14V-7H34.03v.65h2.14Zm7.4-5.12h-.75L41.29-.76,39.76-5.12h-.75L40.89,0h.8Z" transform="matrix(0.985, -0.174, 0.174, 0.985, 9283.855, 9211.774)"/>
    <path id="Path_1404" data-name="Path 1404" d="M.91,0h.78V-2.56H3.85L5.27,0h.89L4.64-2.68A2.124,2.124,0,0,0,6.15-4.77,2.148,2.148,0,0,0,3.8-7H.91Zm.78-3.18V-6.37H3.7a1.526,1.526,0,0,1,1.67,1.6A1.5,1.5,0,0,1,3.7-3.18ZM9.53.12a2.151,2.151,0,0,0,2.28-2.26v-.84A2.151,2.151,0,0,0,9.53-5.24,2.159,2.159,0,0,0,7.24-2.98v.84A2.154,2.154,0,0,0,9.53.12Zm1.55-3.09v.82A1.49,1.49,0,0,1,9.53-.49,1.49,1.49,0,0,1,7.98-2.15v-.82A1.49,1.49,0,0,1,9.53-4.63,1.49,1.49,0,0,1,11.08-2.97Zm3.48,4.71L15.23,0l1.89-5.12h-.75L14.87-.77,13.31-5.12h-.75L14.47,0l-.65,1.74ZM22.04,0V-3.4a1.857,1.857,0,0,0-2.03-1.84,1.937,1.937,0,0,0-1.99,1.37h.7A1.3,1.3,0,0,1,20-4.64,1.186,1.186,0,0,1,21.28-3.4v.95a2.241,2.241,0,0,0-1.64-.64c-1.22,0-2.03.61-2.03,1.6,0,.93.73,1.61,1.94,1.61a2.165,2.165,0,0,0,1.76-.76V0ZM19.71-.37c-.79,0-1.38-.4-1.38-1.11s.57-1.11,1.42-1.11c.77,0,1.53.45,1.53,1.09C21.28-.84,20.51-.37,19.71-.37ZM23.65,0h.76V-7.3h-.76Zm4.93,0h4.63V-.65H29.36V-3.22h3.55v-.65H29.36V-6.35H33.2V-7H28.58Zm5.99,0h.76V-3.01a1.407,1.407,0,0,1,1.48-1.57c.92,0,1.31.59,1.31,1.46V0h.76V-3.23A1.817,1.817,0,0,0,37-5.24a1.714,1.714,0,0,0-1.71.99v-.87h-.72Zm6.24,0h.76V-4.5h1.26v-.62H41.57v-.74c0-.57.24-.82.78-.82h.66V-7.3h-.72c-1.04,0-1.48.51-1.48,1.5v.68h-.75v.62h.75Zm3.21,0h.76V-5.12h-.76Zm-.1-6.47a.446.446,0,0,0,.48.46.446.446,0,0,0,.48-.46.446.446,0,0,0-.48-.46A.446.446,0,0,0,43.92-6.47ZM48.46.12a2.021,2.021,0,0,0,2.09-1.57h-.68a1.357,1.357,0,0,1-1.41.99,1.444,1.444,0,0,1-1.53-1.61v-.18H50.6v-.76a2.037,2.037,0,0,0-2.17-2.23A2.092,2.092,0,0,0,46.2-2.93v.82A2.113,2.113,0,0,0,48.46.12ZM46.93-2.99c0-.94.4-1.67,1.5-1.67a1.4,1.4,0,0,1,1.46,1.59v.24H46.93ZM52.04,0h.76V-7.3h-.76Zm6.01-7.3v2.94a1.915,1.915,0,0,0-1.71-.88,2.1,2.1,0,0,0-2.12,2.29v.78A2.109,2.109,0,0,0,56.36.12,1.908,1.908,0,0,0,58.09-.8V0h.72V-7.3ZM54.98-2.92a1.522,1.522,0,0,1,1.5-1.7,1.582,1.582,0,0,1,1.57,1.7v.66A1.57,1.57,0,0,1,56.49-.5c-1.06,0-1.51-.76-1.51-1.7Z" transform="matrix(0.985, -0.174, 0.174, 0.985, 9329.977, 9213.164)"/>
  </g>
</svg>
