<svg xmlns="http://www.w3.org/2000/svg" width="33.905" height="35" viewBox="0 0 33.905 35">
  <g id="Group_4152" data-name="Group 4152" transform="translate(-326 -470)">
    <path id="Path_1004" data-name="Path 1004" d="M62.058,177.58H35.41a1.191,1.191,0,0,0-1.191,1.191v3.2h29.03v-3.2A1.191,1.191,0,0,0,62.058,177.58Z" transform="translate(293.573 304.559)" fill="#ffb125"/>
    <path id="Path_1005" data-name="Path 1005" d="M70.047,47.636l-2.413,24.43a1.117,1.117,0,0,1-1.221,1L54.186,71.86a1.117,1.117,0,0,1-1-1.221L55.6,46.209a1.117,1.117,0,0,1,1.221-1l12.228,1.208A1.117,1.117,0,0,1,70.047,47.636Z" transform="translate(275.909 427.888)" fill="#b6fa4c"/>
    <path id="Path_1006" data-name="Path 1006" d="M99.059,46.415,86.831,45.207a1.117,1.117,0,0,0-1.221,1L85.394,48.4a1.11,1.11,0,0,1,.614-.116l12.228,1.208a1.117,1.117,0,0,1,1,1.221l-2.2,22.238a1.115,1.115,0,0,0,.607-.885l2.413-24.43A1.117,1.117,0,0,0,99.059,46.415Z" transform="translate(245.896 427.888)" fill="#a8e83a"/>
    <path id="Path_1007" data-name="Path 1007" d="M83.481,80.9,81.721,98.726a.675.675,0,0,0,.312.639,3.274,3.274,0,0,1,1.319,1.593.674.674,0,0,0,.563.425l6.339.626a.674.674,0,0,0,.635-.306,3.274,3.274,0,0,1,1.6-1.3.675.675,0,0,0,.431-.566l1.761-17.822a.674.674,0,0,0-.312-.639,3.274,3.274,0,0,1-1.319-1.593.674.674,0,0,0-.563-.425l-6.339-.626a.674.674,0,0,0-.635.306,3.274,3.274,0,0,1-1.6,1.3A.674.674,0,0,0,83.481,80.9Z" transform="translate(249.321 396.657)" fill="#7d0"/>
    <path id="Path_1008" data-name="Path 1008" d="M117.5,81.37a3.274,3.274,0,0,1-1.319-1.593.674.674,0,0,0-.563-.425l-6.339-.626a.674.674,0,0,0-.635.306,3.274,3.274,0,0,1-1.6,1.3.675.675,0,0,0-.431.566l-.067.678,8.213.786a.674.674,0,0,1,.563.425,3.275,3.275,0,0,0,1.319,1.593.675.675,0,0,1,.312.639l-1.527,15.457c.065-.03.132-.058.2-.083a.675.675,0,0,0,.431-.566l1.761-17.822A.675.675,0,0,0,117.5,81.37Z" transform="translate(226.196 396.658)" fill="#73cc00"/>
    <path id="Path_1009" data-name="Path 1009" d="M97.025,15.967,83.2,36.253a1.117,1.117,0,0,1-1.551.294L71.495,29.628a1.117,1.117,0,0,1-.294-1.551L85.026,7.79A1.117,1.117,0,0,1,86.577,7.5l10.154,6.919A1.117,1.117,0,0,1,97.025,15.967Z" transform="translate(259.3 463.197)" fill="#b6fa4c"/>
    <path id="Path_1010" data-name="Path 1010" d="M245.789,14.415,235.636,7.5a1.117,1.117,0,0,0-1.551.294L232.9,9.524a1.12,1.12,0,0,1,.3.143l10.154,6.919a1.117,1.117,0,0,1,.294,1.551L231,36.689a1.117,1.117,0,0,0,1.256-.437l13.825-20.286A1.117,1.117,0,0,0,245.789,14.415Z" transform="translate(110.241 463.198)" fill="#a8e83a"/>
    <path id="Path_1011" data-name="Path 1011" d="M129.377,57.808l-10.085,14.8a.675.675,0,0,0-.032.711,3.274,3.274,0,0,1,.394,2.03.674.674,0,0,0,.291.643l5.264,3.587a.674.674,0,0,0,.7.036,3.274,3.274,0,0,1,2.033-.375.675.675,0,0,0,.65-.29l10.085-14.8a.675.675,0,0,0,.032-.711,3.274,3.274,0,0,1-.394-2.03.674.674,0,0,0-.291-.643l-5.264-3.587a.674.674,0,0,0-.7-.036,3.274,3.274,0,0,1-2.033.375A.675.675,0,0,0,129.377,57.808Z" transform="translate(214.426 416.841)" fill="#7d0"/>
    <path id="Path_1012" data-name="Path 1012" d="M250.158,63.437a3.274,3.274,0,0,1-.394-2.03.674.674,0,0,0-.291-.643l-5.264-3.587a.674.674,0,0,0-.7-.036,3.274,3.274,0,0,1-2.033.375.675.675,0,0,0-.65.29l-.42.617,6.578,4.434a.674.674,0,0,1,.291.643,3.274,3.274,0,0,0,.394,2.03.675.675,0,0,1-.032.711L238.8,79.21a3.261,3.261,0,0,1,.6.028.675.675,0,0,0,.65-.29l10.085-14.8A.675.675,0,0,0,250.158,63.437Z" transform="translate(102.982 416.841)" fill="#73cc00"/>
    <circle id="Ellipse_11" data-name="Ellipse 11" cx="3.612" cy="3.612" r="3.612" transform="translate(341.345 480.236)" fill="#b6fa4c"/>
    <path id="Path_1013" data-name="Path 1013" d="M44.85,226.186H17.023a1.718,1.718,0,0,1-1.718-1.718v-17a1.718,1.718,0,0,1,1.718-1.718H44.85a1.718,1.718,0,0,1,1.718,1.718v17A1.718,1.718,0,0,1,44.85,226.186Z" transform="translate(311.194 278.315)" fill="#ffb125"/>
    <path id="Path_1014" data-name="Path 1014" d="M404.909,205.749h-3.125a1.718,1.718,0,0,1,1.718,1.718v17a1.718,1.718,0,0,1-1.718,1.718h3.125a1.718,1.718,0,0,0,1.718-1.718v-17A1.718,1.718,0,0,0,404.909,205.749Z" transform="translate(-48.865 278.316)" fill="#ff901d"/>
    <path id="Path_1015" data-name="Path 1015" d="M357.481,307.189h-6.263a3.284,3.284,0,0,0-3.284,3.284h0a3.284,3.284,0,0,0,3.284,3.284h6.263a.622.622,0,0,0,.622-.622v-5.323A.622.622,0,0,0,357.481,307.189Z" transform="translate(1.303 183.81)" fill="#ff6d3a"/>
    <path id="Path_1016" data-name="Path 1016" d="M357.481,307.189h-3.136a.622.622,0,0,1,.622.622v4.484a.664.664,0,0,1-.664.664h-3.085a3.284,3.284,0,0,1-3.259-2.885,3.279,3.279,0,0,0,3.259,3.683h6.263a.622.622,0,0,0,.622-.622v-5.323A.622.622,0,0,0,357.481,307.189Z" transform="translate(1.303 183.81)" fill="#ed5729"/>
    <path id="Path_1017" data-name="Path 1017" d="M44.85,205.749H17.023a1.718,1.718,0,0,0-1.718,1.718v1.883H46.568v-1.883A1.718,1.718,0,0,0,44.85,205.749Z" transform="translate(311.194 278.316)" fill="#ff6d3a"/>
    <path id="Path_1018" data-name="Path 1018" d="M406.335,206.505a1.726,1.726,0,0,0-.21-.254l0,0a1.725,1.725,0,0,0-.252-.207L405.8,206c-.035-.021-.071-.041-.108-.06l-.072-.035a1.711,1.711,0,0,0-.71-.154h-3.125a1.718,1.718,0,0,1,1.718,1.718v1.883h3.125v-1.882a1.71,1.71,0,0,0-.207-.819C406.394,206.6,406.366,206.551,406.335,206.505Z" transform="translate(-48.866 278.317)" fill="#ed5729"/>
    <path id="Path_1019" data-name="Path 1019" d="M17.022,455.636H44.849a1.718,1.718,0,0,0,1.718-1.718v-1.883H15.3v1.883A1.718,1.718,0,0,0,17.022,455.636Z" transform="translate(311.195 48.865)" fill="#ff6d3a"/>
    <path id="Path_1020" data-name="Path 1020" d="M43.442,452.035v1.885a.29.29,0,0,1-.292.285H17.023a1.718,1.718,0,0,1-1.718-1.718v1.43a1.718,1.718,0,0,0,1.718,1.718H44.85c.034,0,.068,0,.1,0l.031,0,.07-.007.034,0,.068-.011.03-.005c.032-.006.064-.013.095-.021h0l.041-.012a1.7,1.7,0,0,0,.2-.069l.076-.034.074-.038h0q.073-.04.142-.086h0c.039-.026.076-.054.113-.084l.005,0q.055-.045.107-.094h0q.061-.058.116-.122h0a1.724,1.724,0,0,0,.156-.211l0-.006c.017-.028.034-.056.049-.084h0a1.719,1.719,0,0,0,.107-.24l.01-.029q.011-.032.02-.064l.009-.033c.006-.022.011-.044.016-.066l.007-.03c.007-.032.013-.064.018-.1h0c.006-.038.01-.076.013-.115l0-.029c0-.039,0-.078,0-.118h0v-1.883H43.442Z" transform="translate(311.194 48.866)" fill="#ed5729"/>
    <circle id="Ellipse_12" data-name="Ellipse 12" cx="1.525" cy="1.525" r="1.525" transform="translate(351.113 492.759)" fill="#f2f2f2"/>
    <g id="Group_4151" data-name="Group 4151">
      <g id="Group_4150" data-name="Group 4150">
        <g id="Group_4149" data-name="Group 4149">
          <path id="Path_1021" data-name="Path 1021" d="M40.792,20.5h-.524V15.783a2.215,2.215,0,0,0-.939-1.81h0v-.642a1.692,1.692,0,0,0-1.69-1.69h-.391l1.5-2.2A1.617,1.617,0,0,0,38.319,7.2L28.166.281a1.615,1.615,0,0,0-2.244.425l-8.764,12.86H14.719l.588-5.956a.177.177,0,0,1,.111-.148,3.791,3.791,0,0,0,1.85-1.5.175.175,0,0,1,.166-.078l3.825.378a.5.5,0,1,0,.1-.993l-3.825-.378a1.167,1.167,0,0,0-1.105.535,2.787,2.787,0,0,1-1.36,1.1,1.166,1.166,0,0,0-.752.983l-.6,6.054H13.08l.931-9.42a.618.618,0,0,1,.676-.554l7.73.764a.5.5,0,0,0,.1-.993L14.784,2.6a1.617,1.617,0,0,0-1.766,1.449l-.75,7.593H10.991a1.692,1.692,0,0,0-1.69,1.69v.438a2.219,2.219,0,0,0-1.293,2.014v17A2.219,2.219,0,0,0,10.225,35H38.052a2.219,2.219,0,0,0,2.217-2.217V28.066h.524a1.122,1.122,0,0,0,1.121-1.121V21.622A1.122,1.122,0,0,0,40.792,20.5Zm-3.153-7.863a.693.693,0,0,1,.692.692v.254a2.222,2.222,0,0,0-.28-.018H35.936l.633-.928h1.071ZM26.745,1.268a.614.614,0,0,1,.4-.259A.627.627,0,0,1,27.257,1a.614.614,0,0,1,.347.107L37.757,8.025a.619.619,0,0,1,.163.859l-3.191,4.683h-.766l1.565-2.3a1.166,1.166,0,0,0,.054-1.237,2.787,2.787,0,0,1-.334-1.72,1.166,1.166,0,0,0-.5-1.119L29.48,3.607a1.166,1.166,0,0,0-1.226-.06,2.788,2.788,0,0,1-1.723.318,1.181,1.181,0,0,0-1.131.5l-6.269,9.2h-.766Zm.22,8.469a4.115,4.115,0,0,0-4.1,3.829H20.337L26.223,4.93h0a.178.178,0,0,1,.146-.078l.023,0a3.792,3.792,0,0,0,2.344-.433.176.176,0,0,1,.183.011l5.264,3.587a.176.176,0,0,1,.077.166,3.791,3.791,0,0,0,.454,2.34.177.177,0,0,1-.01.185l-1.947,2.858H31.065A4.115,4.115,0,0,0,26.965,9.737Zm3.1,3.829h-6.2a3.113,3.113,0,0,1,6.2,0ZM10.3,13.331a.693.693,0,0,1,.692-.692H12.17l-.092.928H10.3ZM9.005,15.783a1.221,1.221,0,0,1,1.219-1.219H38.052a1.221,1.221,0,0,1,1.219,1.219v1.384H9.005ZM39.271,30.4H14.888a.5.5,0,1,0,0,1H39.271v1.384A1.221,1.221,0,0,1,38.052,34H10.225a1.221,1.221,0,0,1-1.219-1.219V31.4h2.689a.5.5,0,1,0,0-1H9.005V18.164H39.271V20.5H34.529a3.787,3.787,0,0,0-3.4,2.132l-.006.013-.015.033a3.761,3.761,0,0,0-.188.482h0a3.77,3.77,0,0,0-.17,1.122h0a3.787,3.787,0,0,0,3.782,3.783h4.742V30.4h0Zm1.645-3.458a.124.124,0,0,1-.124.124H34.529A2.788,2.788,0,0,1,32.08,25.61q-.032-.059-.062-.12-.059-.122-.106-.25a2.788,2.788,0,0,1,0-1.913q.047-.128.106-.25.029-.061.062-.12A2.788,2.788,0,0,1,34.529,21.5h6.263a.124.124,0,0,1,.124.124Z" transform="translate(317.992 470)"/>
        </g>
      </g>
    </g>
    <path id="Path_1022" data-name="Path 1022" d="M370.1,325.627a2.023,2.023,0,1,0,2.023,2.023A2.026,2.026,0,0,0,370.1,325.627Zm0,3.049a1.026,1.026,0,1,1,1.026-1.026A1.027,1.027,0,0,1,370.1,328.676Z" transform="translate(-17.466 166.633)"/>
  </g>
</svg>
