<svg xmlns="http://www.w3.org/2000/svg" width="30" height="30" viewBox="0 0 30 30">
  <g id="welcome-gift" transform="translate(-14.654 -14.907)">
    <path id="Path_33" data-name="Path 33" d="M108.572,155.635a1.279,1.279,0,0,0-.652.145l-4.441,2.318H96.446a8.112,8.112,0,0,0-4.33,1.252l-.99.623a2.375,2.375,0,0,1-1.266.366h-.126v1.044h0v1.953h0v1.2l9.429-.29a4.443,4.443,0,0,0,2.252-.789l7.837-6.039a.8.8,0,0,0,.347-.671A1.093,1.093,0,0,0,108.572,155.635Z" transform="translate(-65.144 -122.061)" fill="#fce8cb"/>
    <path id="Path_34" data-name="Path 34" d="M107.28,154.134a1.472,1.472,0,0,0-.754.167l-4.4,2.3H95.145a8.3,8.3,0,0,0-4.436,1.283l-.99.623a2.172,2.172,0,0,1-1.161.336h-.126a.2.2,0,0,0-.2.2v1.044a.2.2,0,0,0,.2.2h.012a.2.2,0,0,0,.188-.2.2.2,0,0,0,0-.029v-.816a2.567,2.567,0,0,0,1.3-.4l.99-.623A7.9,7.9,0,0,1,95.145,157h7.032a.2.2,0,0,0,.092-.022l4.441-2.318a1.088,1.088,0,0,1,.552-.122.894.894,0,0,1,.837.9.609.609,0,0,1-.269.519L100,161.987a4.243,4.243,0,0,1-2.145.754l-9.224.284v-.962a.194.194,0,0,0,0-.029.2.2,0,0,0-.188-.2.2.2,0,0,0-.211.2v1.2a.2.2,0,0,0,.2.2h.006l9.436-.291a4.65,4.65,0,0,0,2.36-.83l7.829-6.033a1,1,0,0,0,.432-.829,1.3,1.3,0,0,0-1.216-1.312Z" transform="translate(-63.843 -120.759)" fill="#3a312a"/>
    <path id="Path_35" data-name="Path 35" d="M143.924,174.185a.2.2,0,1,0-.367.151,1.02,1.02,0,0,1-.361,1.082,3.4,3.4,0,0,1-1.249.566c-.957.286-1.824.463-2.743.649-.887.18-1.8.367-2.937.673a.2.2,0,1,0,.1.384c1.12-.3,2.031-.488,2.912-.667.927-.188,1.8-.367,2.777-.658a3.7,3.7,0,0,0,1.394-.645A1.408,1.408,0,0,0,143.924,174.185Z" transform="translate(-105.392 -138.045)" fill="#3a312a"/>
    <path id="Path_36" data-name="Path 36" d="M16.154,175.2h6.253v8.541H16.154Z" transform="translate(-1.301 -139.029)" fill="#f16c7a"/>
    <path id="Path_37" data-name="Path 37" d="M21.105,173.7H14.853a.2.2,0,0,0-.2.2v8.541a.2.2,0,0,0,.2.2H16.57a.2.2,0,0,0,0-.4H15.051v-8.143h5.856v8.143H18.388a.2.2,0,0,0,0,.4h2.717a.2.2,0,0,0,.2-.2v-8.541A.2.2,0,0,0,21.105,173.7Z" transform="translate(0 -137.728)" fill="#3a312a"/>
    <path id="Path_38" data-name="Path 38" d="M65.831,175.2H63.4v8.541h2.427a1.059,1.059,0,0,0,1.058-1.06v-6.421A1.059,1.059,0,0,0,65.831,175.2Z" transform="translate(-42.299 -139.029)" fill="#8ac6dd"/>
    <path id="Path_39" data-name="Path 39" d="M65.587,177.249a.2.2,0,0,0,.2-.2v-2.1A1.259,1.259,0,0,0,64.53,173.7H62.1a.2.2,0,0,0-.2.2v8.541a.2.2,0,0,0,.2.2H64.53a1.259,1.259,0,0,0,1.256-1.259V179a.2.2,0,1,0-.4,0v2.374a.861.861,0,0,1-.859.861H62.3v-8.143H64.53a.861.861,0,0,1,.859.861v2.1A.2.2,0,0,0,65.587,177.249Z" transform="translate(-40.997 -137.728)" fill="#3a312a"/>
    <path id="Path_56" data-name="Path 56" d="M2.033.293a.8.8,0,1,1-.8.8A.8.8,0,0,1,2.033.293Z" transform="matrix(0.987, -0.16, 0.16, 0.987, 20.66, 42.183)" fill="#87796f"/>
    <path id="Path_40" data-name="Path 40" d="M70.038,218.709a1,1,0,1,0,1,1A1,1,0,0,0,70.038,218.709Zm0,1.6a.6.6,0,1,1,.6-.6A.6.6,0,0,1,70.038,220.308Z" transform="translate(-47.19 -176.771)" fill="#3a312a"/>
    <path id="Path_41" data-name="Path 41" d="M158.19,157.136a1.081,1.081,0,0,0-.553.122l-.558.292a.873.873,0,0,1,.139.489.6.6,0,0,1-.269.519l-7.83,6.034a5.869,5.869,0,0,1-2.19.81l1.855-.057a4.229,4.229,0,0,0,2.144-.753l7.83-6.034a.608.608,0,0,0,.269-.519A.893.893,0,0,0,158.19,157.136Z" transform="translate(-114.77 -123.363)" fill="#decaad"/>
    <path id="Path_42" data-name="Path 42" d="M36.646,26.393a2.052,2.052,0,0,1-1.724,1.776c1.369.065,1.71,1.865,1.71,1.865C36.662,28.75,38.4,28.15,38.4,28.15,37.1,28.072,36.646,26.393,36.646,26.393Z" transform="translate(-17.586 -9.962)" fill="#d6df58"/>
    <path id="Path_43" data-name="Path 43" d="M37.106,26.651c-1.139-.068-1.566-1.595-1.57-1.61a.2.2,0,0,0-.389.035,1.839,1.839,0,0,1-1.556,1.6.2.2,0,0,0,.021.4c1.195.056,1.522,1.687,1.525,1.7a.2.2,0,0,0,.195.161h.017a.2.2,0,0,0,.182-.194c.026-1.129,1.613-1.695,1.629-1.7a.2.2,0,0,0-.053-.387Zm-1.8,1.372a2.317,2.317,0,0,0-1-1.177,2.133,2.133,0,0,0,1.085-1.1,2.427,2.427,0,0,0,1.1,1.157A2.822,2.822,0,0,0,35.31,28.024Z" transform="translate(-16.284 -8.663)" fill="#3a312a"/>
    <path id="Path_44" data-name="Path 44" d="M18.255,43.374a1.451,1.451,0,0,1-1.219,1.256c.968.046,1.21,1.319,1.21,1.319.021-.908,1.247-1.332,1.247-1.332C18.574,44.562,18.255,43.374,18.255,43.374Z" transform="translate(-2.067 -24.691)" fill="#d6df58"/>
    <path id="Path_45" data-name="Path 45" d="M18.2,43.116c-.763-.046-1.055-1.086-1.058-1.1a.2.2,0,0,0-.389.035,1.244,1.244,0,0,1-1.051,1.076.2.2,0,0,0,.021.4c.8.038,1.022,1.146,1.024,1.157a.2.2,0,0,0,.195.162h.017a.2.2,0,0,0,.182-.194c.017-.757,1.1-1.145,1.113-1.149a.2.2,0,0,0-.053-.387Zm-1.269.9a1.7,1.7,0,0,0-.589-.7,1.585,1.585,0,0,0,.645-.652,1.776,1.776,0,0,0,.654.693A2.074,2.074,0,0,0,16.935,44.018Z" transform="translate(-0.766 -23.389)" fill="#3a312a"/>
    <path id="Path_46" data-name="Path 46" d="M18.249,16.716a1.452,1.452,0,0,1-1.214,1.261c.969.042,1.215,1.314,1.215,1.314.017-.908,1.242-1.337,1.242-1.337C18.573,17.9,18.249,16.716,18.249,16.716Z" transform="translate(-2.066 -1.569)" fill="#d6df58"/>
    <path id="Path_47" data-name="Path 47" d="M18.2,16.454c-.763-.043-1.059-1.082-1.062-1.092a.2.2,0,0,0-.389.037A1.245,1.245,0,0,1,15.7,16.48a.2.2,0,0,0,.022.4c.8.035,1.027,1.143,1.029,1.153a.2.2,0,0,0,.195.161h.017a.2.2,0,0,0,.181-.194c.014-.757,1.1-1.149,1.109-1.153a.2.2,0,0,0-.054-.387Zm-1.265.906a1.7,1.7,0,0,0-.591-.7,1.584,1.584,0,0,0,.642-.655,1.774,1.774,0,0,0,.657.69,2.074,2.074,0,0,0-.707.662Z" transform="translate(-0.763 -0.268)" fill="#3a312a"/>
    <path id="Path_48" data-name="Path 48" d="M92.907,17.218a2.77,2.77,0,0,0-2.091-.808,3.118,3.118,0,0,0-2.094.928,6.873,6.873,0,0,0-1.178,1.76,6.878,6.878,0,0,0-1.178-1.76,3.118,3.118,0,0,0-2.094-.928,2.767,2.767,0,0,0-2.9,2.9,3.131,3.131,0,0,0,.926,2.1,7.526,7.526,0,0,0,2.511,1.5,4.688,4.688,0,0,0,1.575.324,1.888,1.888,0,0,0,1.156-.34,1.887,1.887,0,0,0,1.156.34,4.689,4.689,0,0,0,1.575-.324,7.521,7.521,0,0,0,2.511-1.5,3.131,3.131,0,0,0,.926-2.1,2.787,2.787,0,0,0-.806-2.1Zm-6,4.381a.445.445,0,0,1-.1.256c-.151.151-.7.172-1.559-.14A6.245,6.245,0,0,1,83.2,20.508a1.857,1.857,0,0,1-.554-1.242,1.489,1.489,0,0,1,1.513-1.581h.063a1.848,1.848,0,0,1,1.239.555,6.266,6.266,0,0,1,1.2,2.05,3.974,3.974,0,0,1,.238.974A2.877,2.877,0,0,0,86.906,21.6Zm4.98-1.09a6.247,6.247,0,0,1-2.045,1.206c-.856.312-1.408.292-1.559.14a.444.444,0,0,1-.1-.256,2.9,2.9,0,0,0,0-.332,3.974,3.974,0,0,1,.238-.974,6.265,6.265,0,0,1,1.2-2.05,1.848,1.848,0,0,1,1.239-.555h.063a1.489,1.489,0,0,1,1.513,1.581,1.857,1.857,0,0,1-.554,1.241Z" transform="translate(-57.891 -1.302)" fill="#d7e057"/>
    <path id="Path_49" data-name="Path 49" d="M89.622,16.185h-.07a2.046,2.046,0,0,0-1.372.613,6.482,6.482,0,0,0-1.249,2.122,4.158,4.158,0,0,0-.249,1.025.208.208,0,0,0,0,.029,2.717,2.717,0,0,1,0,.309.2.2,0,0,0,0,.037.626.626,0,0,0,.154.371.782.782,0,0,0,.557.164A3.718,3.718,0,0,0,88.6,20.6a6.46,6.46,0,0,0,2.117-1.252,2.055,2.055,0,0,0,.612-1.375,1.688,1.688,0,0,0-1.711-1.787Zm.819,2.88a6.029,6.029,0,0,1-1.973,1.16c-.845.308-1.286.244-1.351.187a.29.29,0,0,1-.039-.124,3.081,3.081,0,0,0,0-.32,3.855,3.855,0,0,1,.225-.91,6.048,6.048,0,0,1,1.157-1.977,1.651,1.651,0,0,1,1.105-.5,1.292,1.292,0,0,1,1.371,1.373A1.658,1.658,0,0,1,90.441,19.066Zm-4.641.881a4.159,4.159,0,0,0-.249-1.025A6.481,6.481,0,0,0,84.3,16.8a2.047,2.047,0,0,0-1.372-.613,1.689,1.689,0,0,0-1.781,1.786,2.055,2.055,0,0,0,.612,1.375A6.461,6.461,0,0,0,83.877,20.6a3.719,3.719,0,0,0,1.21.258.782.782,0,0,0,.557-.164.626.626,0,0,0,.154-.371.2.2,0,0,0,0-.037,2.715,2.715,0,0,1,0-.309A.172.172,0,0,0,85.8,19.946Zm-.4.342a.3.3,0,0,1-.038.123c-.065.058-.506.122-1.351-.186a6.029,6.029,0,0,1-1.973-1.16,1.658,1.658,0,0,1-.5-1.108,1.29,1.29,0,0,1,1.315-1.374h.055a1.651,1.651,0,0,1,1.106.5,6.048,6.048,0,0,1,1.157,1.977,3.857,3.857,0,0,1,.225.91A3.117,3.117,0,0,0,85.4,20.289Zm6.341-4.513a2.966,2.966,0,0,0-2.238-.866,3.314,3.314,0,0,0-2.227.987,6.532,6.532,0,0,0-1.038,1.465A6.532,6.532,0,0,0,85.2,15.9a3.315,3.315,0,0,0-2.227-.987,2.966,2.966,0,0,0-3.1,3.109,3.331,3.331,0,0,0,.984,2.232A7.738,7.738,0,0,0,83.441,21.8a3.232,3.232,0,0,0,2.8.037,2.147,2.147,0,0,0,1.156.3A4.888,4.888,0,0,0,89.04,21.8a7.739,7.739,0,0,0,2.583-1.549,3.331,3.331,0,0,0,.984-2.232A2.982,2.982,0,0,0,91.743,15.776Zm-.4,4.194A7.31,7.31,0,0,1,88.9,21.426a2.75,2.75,0,0,1-2.545.011.2.2,0,0,0-.237,0,2.75,2.75,0,0,1-2.545-.011,7.312,7.312,0,0,1-2.438-1.457A2.933,2.933,0,0,1,80.271,18a2.568,2.568,0,0,1,2.691-2.7,2.92,2.92,0,0,1,1.961.87,6.713,6.713,0,0,1,1.14,1.706.2.2,0,0,0,.357,0,6.713,6.713,0,0,1,1.14-1.706,2.92,2.92,0,0,1,1.961-.87A2.568,2.568,0,0,1,92.211,18a2.934,2.934,0,0,1-.868,1.965Z" transform="translate(-56.587)" fill="#3a312a"/>
    <path id="Path_50" data-name="Path 50" d="M77.01,91.763v8.7a.768.768,0,0,0,.767.768H89.739a.768.768,0,0,0,.767-.768v-8.7Z" transform="translate(-54.104 -66.662)" fill="#8ac5dc"/>
    <path id="Path_51" data-name="Path 51" d="M89.2,90.263h-13.5a.2.2,0,0,0-.2.2v8.7a.967.967,0,0,0,.965.967H88.438a.967.967,0,0,0,.965-.967v-8.7A.2.2,0,0,0,89.2,90.263Zm-.2,8.9a.569.569,0,0,1-.568.569H76.475a.569.569,0,0,1-.568-.569v-8.5h13.1v8.5Z" transform="translate(-52.802 -65.361)" fill="#3a312a"/>
    <path id="Path_52" data-name="Path 52" d="M82.8,65.137H68.342a.768.768,0,0,0-.767.768V67.9a.768.768,0,0,0,.767.768H82.8a.768.768,0,0,0,.767-.768V65.905A.768.768,0,0,0,82.8,65.137Z" transform="translate(-45.918 -43.568)" fill="#8ac5dc"/>
    <path id="Path_53" data-name="Path 53" d="M81.5,63.637H67.04a.967.967,0,0,0-.965.967V66.6a.967.967,0,0,0,.965.967H81.5a.967.967,0,0,0,.965-.967V64.6A.967.967,0,0,0,81.5,63.637Zm.568,2.962a.569.569,0,0,1-.568.57H67.04a.57.57,0,0,1-.568-.57V64.6a.569.569,0,0,1,.568-.57H81.5a.569.569,0,0,1,.568.57Z" transform="translate(-44.616 -42.267)" fill="#3a312a"/>
    <path id="Path_54" data-name="Path 54" d="M122.379,65.137v13h1.488v-13Z" transform="translate(-93.469 -43.568)" fill="#d7e057"/>
    <path id="Path_55" data-name="Path 55" d="M122.565,70.428a.2.2,0,0,0,.2-.2V63.836a.2.2,0,0,0-.2-.2h-1.488a.2.2,0,0,0-.2.2v13a.2.2,0,0,0,.2.2h1.488a.2.2,0,0,0,.2-.2V72.121a.2.2,0,1,0-.4,0v4.514h-1.091v-12.6h1.091v6.194A.2.2,0,0,0,122.565,70.428Z" transform="translate(-92.167 -42.267)" fill="#3a312a"/>
  </g>
</svg>
