<svg xmlns="http://www.w3.org/2000/svg" width="15" height="15" viewBox="0 0 15 15">
  <g id="Group_1" data-name="Group 1" transform="translate(-1151 -343)">
    <g id="medical-mask" transform="translate(1151 343)">
      <path id="Path_8" data-name="Path 8" d="M34.412,441.259a1.15,1.15,0,0,1-.048-.25l-.5.192a3.726,3.726,0,0,0-1.644,1.2.407.407,0,0,0,.139.609.553.553,0,0,0,.278.074h2.347c-.013-.031-.024-.062-.034-.094Z" transform="translate(-32.135 -428.089)"/>
      <path id="Path_9" data-name="Path 9" d="M397.583,442.4a3.726,3.726,0,0,0-1.644-1.2l-.5-.192a1.152,1.152,0,0,1-.048.25l-.538,1.736c-.01.032-.021.063-.034.094h2.347a.553.553,0,0,0,.278-.074A.407.407,0,0,0,397.583,442.4Z" transform="translate(-382.667 -428.085)"/>
      <path id="Path_10" data-name="Path 10" d="M129.143,419.925l-.313.12a.426.426,0,0,0-.284.518l.538,1.736a.508.508,0,0,0,.568.318l1.756-.256-1.828-1.6A1.243,1.243,0,0,1,129.143,419.925Z" transform="translate(-125.3 -407.622)"/>
      <path id="Path_11" data-name="Path 11" d="M300.09,420.045l-.313-.12a1.243,1.243,0,0,1-.437.837l-1.828,1.6,1.756.256a.508.508,0,0,0,.568-.318l.538-1.736A.426.426,0,0,0,300.09,420.045Z" transform="translate(-288.621 -407.623)"/>
      <path id="Path_12" data-name="Path 12" d="M69.534,8.786V5.492c0-2.549,2.356-4.613,5.276-4.613s5.276,2.069,5.276,4.613V9.383a.541.541,0,0,1-.574.5H76.963a.443.443,0,1,0,0,.879h2.548A1.489,1.489,0,0,0,81.09,9.383V5.492C81.09,2.464,78.273,0,74.81,0s-6.281,2.46-6.281,5.492V7.5A1.4,1.4,0,0,0,69.534,8.786Z" transform="translate(-67.31)"/>
      <path id="Path_13" data-name="Path 13" d="M134.641,65.82l2.431,1.063V63.734a4.309,4.309,0,0,0-8.541,0v3.148l2.431-1.063a4.667,4.667,0,0,1,3.679,0Zm-.225-1.929a.443.443,0,1,1-.5.439A.474.474,0,0,1,134.416,63.891Zm-3.23.879a.443.443,0,1,1,.5-.439A.474.474,0,0,1,131.187,64.77Z" transform="translate(-125.301 -58.242)"/>
      <path id="Path_14" data-name="Path 14" d="M182.274,419.32a7.182,7.182,0,0,1-5.295,0,.424.424,0,0,0,.139.233l2.153,1.883a.555.555,0,0,0,.711,0l2.153-1.883A.424.424,0,0,0,182.274,419.32Z" transform="translate(-172.126 -407.035)"/>
      <path id="Path_15" data-name="Path 15" d="M132.98,279.083a5.954,5.954,0,0,0,2.378.488,6.028,6.028,0,0,0,1.864-.294A1.381,1.381,0,0,1,136,277.984a1.424,1.424,0,0,1,1.508-1.318h.705l-1.468-.642a3.527,3.527,0,0,0-2.78,0l-2.792,1.221A3,3,0,0,0,132.98,279.083Z" transform="translate(-127.858 -267.66)"/>
    </g>
  </g>
</svg>
