<svg xmlns="http://www.w3.org/2000/svg" width="15.002" height="15.002" viewBox="0 0 15.002 15.002">
  <g id="checkin" transform="translate(-15.001 -377)">
    <path id="Path_133" data-name="Path 133" d="M138.117,134.559a3.558,3.558,0,1,0,3.558,3.558A3.558,3.558,0,0,0,138.117,134.559Zm1.567,3.072-1.6,1.6a.445.445,0,0,1-.63,0l-.9-.9a.445.445,0,0,1,.63-.63l.588.588L139.054,137a.445.445,0,0,1,.63.63Zm0,0" transform="translate(-115.616 246.383)"/>
    <path id="Path_134" data-name="Path 134" d="M14.555,7.055h-.647A6.424,6.424,0,0,0,7.946,1.092V.445a.446.446,0,0,0-.891,0v.647A6.424,6.424,0,0,0,1.092,7.055H.446a.445.445,0,1,0,0,.891h.647a6.424,6.424,0,0,0,5.963,5.963v.647a.445.445,0,1,0,.891,0v-.647A6.424,6.424,0,0,0,13.91,7.946h.647a.446.446,0,1,0,0-.891Zm-6.609,5.96V12.4a.446.446,0,1,0-.891,0v.613a5.542,5.542,0,0,1-5.07-5.07H2.6a.445.445,0,1,0,0-.891H1.985a5.542,5.542,0,0,1,5.07-5.07V2.6a.445.445,0,1,0,.891,0V1.985a5.542,5.542,0,0,1,5.07,5.07H12.4a.445.445,0,1,0,0,.891h.613a5.542,5.542,0,0,1-5.068,5.069Zm0,0" transform="translate(15 377)"/>
  </g>
</svg>
