<svg xmlns="http://www.w3.org/2000/svg" xmlns:xlink="http://www.w3.org/1999/xlink" width="15" height="15.46" viewBox="0 0 15 15.46">
  <defs>
    <clipPath id="clip">
      <use xlink:href="#fill"/>
    </clipPath>
  </defs>
  <g id="complaint_icon" transform="translate(-1044 -69.2)">
    <g id="Rectangle_3921" data-name="Rectangle 3921" transform="translate(1044 74.506)" stroke="#000" stroke-width="2">
      <rect width="15" height="4.107" rx="1" stroke="none"/>
      <rect x="1" y="1" width="13" height="2.107" fill="none"/>
    </g>
    <path id="Rectangle_3922" data-name="Rectangle 3922" d="M0,0H13.724a0,0,0,0,1,0,0V5.582a1,1,0,0,1-1,1H1a1,1,0,0,1-1-1V0A0,0,0,0,1,0,0Z" transform="translate(1044.638 78.078)"/>
    <g id="Rectangle_3920" data-name="Rectangle 3920" transform="translate(1045.301 75.68)" stroke="#fff" stroke-width="2.5">
      <rect id="fill" width="12.372" height="1.786" stroke="none"/>
      <path d="M0,0.5357128381729126h12.372438430786133M11.122438430786133,0v1.7857128381729126M12.372438430786133,1.25h-12.372438430786133M1.25,1.7857128381729126v-1.7857128381729126" fill="none" clip-path="url(#clip)"/>
    </g>
    <path id="Path_1" data-name="Path 1" d="M180.326,389.586a.295.295,0,1,0-.326-.293.311.311,0,0,0,.326.293Zm0,0" transform="translate(869.867 -307.95)" fill="#fff"/>
    <path id="Path_3" data-name="Path 3" d="M126.844,349h-6.518a.311.311,0,0,0-.326.293v2.343a.311.311,0,0,0,.326.293h6.518a.311.311,0,0,0,.326-.293v-2.343a.311.311,0,0,0-.326-.293Zm-.326,2.343h-5.867v-1.757h5.867Zm0,0" transform="translate(927.911 -269.121)" fill="#fff"/>
    <path id="Path_4" data-name="Path 4" d="M220.326,389.586h1.3a.295.295,0,1,0,0-.586h-1.3a.295.295,0,1,0,0,.586Zm0,0" transform="translate(831.17 -307.95)" fill="#fff"/>
    <path id="Rectangle_3918" data-name="Rectangle 3918" d="M1,0H8.8a1,1,0,0,1,1,1V7.653a0,0,0,0,1,0,0H0a0,0,0,0,1,0,0V1A1,1,0,0,1,1,0Z" transform="translate(1046.602 69.2)"/>
    <path id="Path_5" data-name="Path 5" d="M160.326,128.343a.311.311,0,0,0,.326-.293,1.639,1.639,0,0,1,3.259,0,.328.328,0,0,0,.652,0,2.3,2.3,0,0,0-4.563,0,.311.311,0,0,0,.326.293Zm0,0" transform="translate(889.214 -53.11)" fill="#fff"/>
    <path id="Path_6" data-name="Path 6" d="M160.326,67.171a.311.311,0,0,0,.326-.293v-.586a.328.328,0,0,0-.652,0v.586a.311.311,0,0,0,.326.293Zm0,0" transform="translate(889.214 5.134)" fill="#fff"/>
    <path id="Path_7" data-name="Path 7" d="M280.326,67.171a.311.311,0,0,0,.326-.293v-.586a.328.328,0,0,0-.652,0v.586A.311.311,0,0,0,280.326,67.171Zm0,0" transform="translate(773.125 5.134)" fill="#fff"/>
    <rect id="Rectangle_3919" data-name="Rectangle 3919" width="11.097" height="0.612" transform="translate(1045.939 76.267)"/>
  </g>
</svg>
