<svg xmlns="http://www.w3.org/2000/svg" width="15" height="9.545" viewBox="0 0 15 9.545">
  <g id="user_4_" data-name="user (4)" transform="translate(0 -85.333)">
    <g id="Group_6" data-name="Group 6" transform="translate(0 85.333)">
      <g id="Group_5" data-name="Group 5" transform="translate(0 0)">
        <path id="Path_31" data-name="Path 31" d="M87.378,89.424a2.045,2.045,0,1,0-2.045-2.045A2.041,2.041,0,0,0,87.378,89.424Z" transform="translate(-82.606 -85.333)"/>
        <path id="Path_32" data-name="Path 32" d="M300.071,256c-.2,0-.419.014-.658.037a2.859,2.859,0,0,1,1.34,2.349v1.7h4.091v-1.7C304.844,256.8,301.663,256,300.071,256Z" transform="translate(-289.844 -250.545)"/>
        <path id="Path_33" data-name="Path 33" d="M258.045,89.424A2.045,2.045,0,1,0,256,87.378,2.041,2.041,0,0,0,258.045,89.424Z" transform="translate(-247.818 -85.333)"/>
        <path id="Path_34" data-name="Path 34" d="M4.773,256C3.181,256,0,256.8,0,258.386v1.7H9.545v-1.7C9.545,256.8,6.365,256,4.773,256Z" transform="translate(0 -250.545)"/>
      </g>
    </g>
  </g>
</svg>
