<svg xmlns="http://www.w3.org/2000/svg" width="14.998" height="14.512" viewBox="0 0 14.998 14.512">
  <g id="Group_1" data-name="Group 1" transform="translate(-486 -699)">
    <path id="Path_117" data-name="Path 117" d="M13.93,17.128l.033-.007h0a1.034,1.034,0,1,0,0-.512h0L13.93,16.6h-1.3A4.11,4.11,0,0,0,11.485,14l2.637-2.637a.257.257,0,0,0,.054-.081h0a1.035,1.035,0,1,0-.344-.336h0a.255.255,0,0,0-.076.051L11.1,13.658h0a4.123,4.123,0,0,0-5.471.235h0L3.984,12.246l-.027-.018h0a1.035,1.035,0,1,0-.362.362h0a.241.241,0,0,0,.018.027L5.276,14.28h0a4.111,4.111,0,0,0-.91,2.335H3.07l-.033.007h0a1.034,1.034,0,1,0,0,.512h0l.033.007h1.3a4.1,4.1,0,0,0,.919,2.346l-1.67,1.638a.24.24,0,0,0-.019.028h0a1.035,1.035,0,1,0,.362.362h0l.026-.017L5.64,19.856h0a4.13,4.13,0,0,0,5.455.233L13.309,22.3l.029.019h0a1.03,1.03,0,1,0,.359-.362h0a.248.248,0,0,0-.018-.028l-2.2-2.2a4.12,4.12,0,0,0,1.153-2.611h1.3Zm.851-.442.039-.031a.2.2,0,0,1,.047-.023.164.164,0,0,1,.047-.016.221.221,0,0,1,.1,0,.155.155,0,0,1,.049.016.2.2,0,0,1,.047.023l.039.031.031.039a.2.2,0,0,1,.023.047.164.164,0,0,1,.016.047.26.26,0,0,1,0,.1.164.164,0,0,1-.016.047.2.2,0,0,1-.023.047l-.031.039-.039.031a.2.2,0,0,1-.047.023.155.155,0,0,1-.049.016.318.318,0,0,1-.049,0,.349.349,0,0,1-.052,0,.164.164,0,0,1-.047-.016.2.2,0,0,1-.047-.023l-.039-.031a.407.407,0,0,1-.031-.039.2.2,0,0,1-.023-.047.164.164,0,0,1-.016-.047.393.393,0,0,1-.005-.052.272.272,0,0,1,.076-.181Zm-.313-6.379a.266.266,0,0,1,.054-.085.271.271,0,0,1,.367,0,.3.3,0,0,1,.054.085.243.243,0,0,1,0,.2.3.3,0,0,1-.054.085.267.267,0,0,1-.184.075.272.272,0,0,1-.184-.075.3.3,0,0,1-.054-.085.243.243,0,0,1,0-.2ZM3.308,11.8a.24.24,0,0,1-.054.085.262.262,0,0,1-.367,0,.268.268,0,0,1,0-.367.258.258,0,0,1,.421.282ZM2.289,16.921a.164.164,0,0,1-.016.047.2.2,0,0,1-.023.047l-.031.039c-.013.01-.026.021-.041.031a.143.143,0,0,1-.044.023.258.258,0,0,1-.1.021.382.382,0,0,1-.052,0,.163.163,0,0,1-.047-.016.2.2,0,0,1-.047-.023l-.039-.031-.031-.039a.2.2,0,0,1-.023-.047.164.164,0,0,1-.016-.047.356.356,0,0,1,0-.052.257.257,0,0,1,.021-.1.266.266,0,0,1,.054-.085l.039-.031a.2.2,0,0,1,.047-.023.164.164,0,0,1,.047-.016.247.247,0,0,1,.15.016.145.145,0,0,1,.044.023c.015.01.028.021.041.031a.267.267,0,0,1,.054.085.257.257,0,0,1,.021.1.348.348,0,0,1,0,.052Zm.964,5.3a.262.262,0,0,1-.367,0,.267.267,0,0,1-.075-.184.257.257,0,0,1,.021-.1.3.3,0,0,1,.054-.085.271.271,0,0,1,.367,0,.3.3,0,0,1,.054.085.257.257,0,0,1,.021.1.272.272,0,0,1-.074.187Zm10.731.527a.258.258,0,0,1,.29-.155.365.365,0,0,1,.049.016.36.36,0,0,1,.044.023l.039.031a.309.309,0,0,1,.057.085.255.255,0,0,1,.018.1.278.278,0,0,1-.018.1.263.263,0,0,1-.057.083.2.2,0,0,1-.039.031.386.386,0,0,1-.044.026.346.346,0,0,1-.049.013.177.177,0,0,1-.052,0,.25.25,0,0,1-.181-.075.227.227,0,0,1-.057-.083.27.27,0,0,1-.021-.1.258.258,0,0,1,.021-.1Zm-4.191-6.71a.259.259,0,0,1-.517,0,.62.62,0,0,0-.517-.533v1.122a1.066,1.066,0,0,1,0,2.131v.176a.259.259,0,0,1-.517,0v-.176A1.158,1.158,0,0,1,7.207,17.7a.259.259,0,0,1,.517,0,.62.62,0,0,0,.517.533V17.107a1.158,1.158,0,0,1-1.034-1.065,1.158,1.158,0,0,1,1.034-1.065V14.8a.259.259,0,0,1,.517,0v.176a1.158,1.158,0,0,1,1.035,1.066Zm-4.4.827a.259.259,0,0,1-.517.01v-.01a3.6,3.6,0,0,1,.284-1.409A3.655,3.655,0,0,1,7.086,13.53,3.6,3.6,0,0,1,8.5,13.249a.259.259,0,0,1,0,.517,3.109,3.109,0,0,0-1.208.243A3.147,3.147,0,0,0,5.64,15.662a3.11,3.11,0,0,0-.24,1.207ZM9.909,20.2a3.61,3.61,0,0,1-3.966-.776.259.259,0,0,1,.365-.367,3.09,3.09,0,0,0,3.4.667.258.258,0,0,1,.339.137A.262.262,0,0,1,9.909,20.2Zm2.211-3.336a3.6,3.6,0,0,1-.284,1.409.258.258,0,0,1-.238.158.271.271,0,0,1-.1-.021.258.258,0,0,1-.137-.339,3.09,3.09,0,0,0-.667-3.4.261.261,0,0,1,0-.367.257.257,0,0,1,.365,0,3.6,3.6,0,0,1,1.063,2.55Z" transform="translate(484.999 689.641)"/>
    <g id="Ellipse_1" data-name="Ellipse 1" transform="translate(492 704)" stroke="#000" stroke-width="1">
      <ellipse cx="2" cy="2.5" rx="2" ry="2.5" stroke="none"/>
      <ellipse cx="2" cy="2.5" rx="1.5" ry="2" fill="none"/>
    </g>
  </g>
</svg>
