<svg xmlns="http://www.w3.org/2000/svg" width="15" height="18.853" viewBox="0 0 15 18.853">
  <g id="payment_icon" transform="translate(-42 -461)">
    <path id="Path_119" data-name="Path 119" d="M22.256,4.859a.253.253,0,0,0,.1-.483L12.718.1a1.164,1.164,0,0,0-1.539.59L7.8,8.262A1.164,1.164,0,0,0,8.392,9.8l1.945.841a.37.37,0,0,0,.521-.336V7.094a2.231,2.231,0,0,1,2.23-2.23h9.167Z" transform="translate(34.3 461)"/>
    <path id="Path_120" data-name="Path 120" d="M129.511,153.136H117.816a1.18,1.18,0,0,0-1.18,1.18v8.261a1.18,1.18,0,0,0,1.18,1.18h1.57a4.286,4.286,0,0,1-.058-.706,4.468,4.468,0,0,1,.074-.791h-1.266V158.3H129.2v3.951h-1.27a4.463,4.463,0,0,1,.074.791,4.287,4.287,0,0,1-.058.706h1.57a1.18,1.18,0,0,0,1.18-1.18v-8.257a1.18,1.18,0,0,0-1.181-1.175Zm-.317,2.734H118.137v-1.239H129.2Z" transform="translate(-73.692 313.773)"/>
    <path id="Path_121" data-name="Path 121" d="M223.269,331.436a3.033,3.033,0,1,0,3.033,3.033,3.033,3.033,0,0,0-3.033-3.033Zm.872,4.229a.959.959,0,0,1-.505.324.141.141,0,0,0-.123.162v.27a.109.109,0,0,1-.12.124q-.144.006-.289,0c-.085,0-.123-.05-.123-.131v-.2c0-.142-.008-.151-.147-.173a1.816,1.816,0,0,1-.513-.147c-.127-.061-.142-.094-.1-.227.027-.1.054-.2.085-.3.035-.116.066-.127.173-.074a1.657,1.657,0,0,0,.571.17.694.694,0,0,0,.377-.05.289.289,0,0,0,.07-.509.782.782,0,0,0-.212-.124,4.4,4.4,0,0,1-.583-.262.82.82,0,0,1-.471-.791.869.869,0,0,1,.636-.806c.155-.057.158-.054.158-.216v-.166c0-.124.024-.142.147-.147h.112c.262,0,.262,0,.262.262,0,.189,0,.189.189.212a1.685,1.685,0,0,1,.405.12.117.117,0,0,1,.077.158c-.031.112-.061.228-.1.336s-.07.12-.17.074a1.274,1.274,0,0,0-.64-.127.509.509,0,0,0-.17.035.243.243,0,0,0-.061.432,1.234,1.234,0,0,0,.278.158,4.289,4.289,0,0,1,.509.232.908.908,0,0,1,.283,1.376Z" transform="translate(-173.523 142.352)"/>
  </g>
</svg>
