<svg xmlns="http://www.w3.org/2000/svg" width="17.015" height="17.018" viewBox="0 0 17.015 17.018">
  <g id="followup" transform="translate(0 -0.013)">
    <path id="Path_310" data-name="Path 310" d="M302.255,130.254c-.073.017-.125.073-.2.091a1.4,1.4,0,0,1-.254.073.2.2,0,0,1-.216-.146.63.63,0,0,1-.017-.254,4.855,4.855,0,0,1,.091-.491c.091-.491.181-1,.272-1.488a1.407,1.407,0,0,0,.035-.4c0-.164-.108-.237-.272-.237h-1.307a.525.525,0,0,0-.164.017.194.194,0,0,0-.164.146.184.184,0,0,0,.125.164.968.968,0,0,0,.237.035c.181.017.237.091.237.272v.091c-.073.436-.146.871-.237,1.307-.035.254-.073.509-.108.742a.73.73,0,0,0,.582.742,4.992,4.992,0,0,0,.509.035,1.3,1.3,0,0,0,.927-.418.3.3,0,0,0,.091-.164A.108.108,0,0,0,302.255,130.254Z" transform="translate(-289.616 -122.96)"/>
    <path id="Path_311" data-name="Path 311" d="M190.322,1.579a5.348,5.348,0,0,0-7.781,7.332l.035.035a2.584,2.584,0,0,1-1.108,1.251.214.214,0,0,0,.056.4,3.023,3.023,0,0,0,2.286-.617l.017.017a5.361,5.361,0,0,0,6.5-8.419Zm-3.774,7.893a4.1,4.1,0,1,1,4.1-4.1A4.1,4.1,0,0,1,186.548,9.472Z" transform="translate(-174.888)"/>
    <path id="Path_312" data-name="Path 312" d="M10.39,151.7a.91.91,0,0,0-1.4,0l-.979.979a.206.206,0,0,1-.272.056c-.2-.125-.436-.216-.634-.345a10.288,10.288,0,0,1-2.45-2.23,5.991,5.991,0,0,1-.871-1.415.2.2,0,0,1,.056-.254c.345-.31.652-.634.979-.962a.925.925,0,0,0,0-1.432l-.781-.781c-.272-.272-.526-.544-.8-.8a.935.935,0,0,0-1.4,0l-.979.979a1.708,1.708,0,0,0-.509,1.087,4.525,4.525,0,0,0,.35,1.957,12.116,12.116,0,0,0,2.122,3.537,13,13,0,0,0,4.356,3.412,6.59,6.59,0,0,0,2.377.707,1.786,1.786,0,0,0,1.523-.582c.272-.328.6-.6.889-.906a.948.948,0,0,0,0-1.432Z" transform="translate(-0.346 -139.175)"/>
    <path id="Path_313" data-name="Path 313" d="M318.967,79.5a.692.692,0,0,0,.69-.69.695.695,0,1,0-.69.693Z" transform="translate(-307.181 -75.378)"/>
  </g>
</svg>
