<svg xmlns="http://www.w3.org/2000/svg" width="12.002" height="15.763" viewBox="0 0 12.002 15.763">
  <g id="invoice" transform="translate(-50.526)">
    <g id="Group_3739" data-name="Group 3739" transform="translate(50.526)">
      <path id="Path_987" data-name="Path 987" d="M62.135.405a.66.66,0,0,0-.718.109l-1.034.916a.074.074,0,0,1-.1,0L58.877.171a.67.67,0,0,0-.894,0L56.576,1.429a.075.075,0,0,1-.1,0L55.071.171a.67.67,0,0,0-.894,0L52.769,1.43a.075.075,0,0,1-.1,0L51.634.514a.666.666,0,0,0-1.108.5V14.749a.667.667,0,0,0,1.11.5l1.034-.916a.074.074,0,0,1,.1,0l1.407,1.259a.67.67,0,0,0,.894,0l1.406-1.258a.075.075,0,0,1,.1,0l1.406,1.258a.67.67,0,0,0,.894,0l1.408-1.259a.075.075,0,0,1,.1,0l1.035.916a.666.666,0,0,0,1.108-.5V1.017A.66.66,0,0,0,62.135.4ZM52.994,5.349H56.7a.3.3,0,1,1,0,.6H52.994a.3.3,0,0,1,0-.6Zm7.065,5.068H52.994a.3.3,0,1,1,0-.6h7.065a.3.3,0,0,1,0,.6Zm0-2.236H52.994a.3.3,0,0,1,0-.6h7.065a.3.3,0,0,1,0,.6Z" transform="translate(-50.526)"/>
    </g>
  </g>
</svg>
