<svg xmlns="http://www.w3.org/2000/svg" width="11.808" height="13" viewBox="0 0 11.808 13">
  <g id="add-user" transform="translate(-23.48)">
    <g id="Group_4150" data-name="Group 4150" transform="translate(27.073 5.387)">
      <g id="Group_4149" data-name="Group 4149" transform="translate(0)">
        <path id="Path_1098" data-name="Path 1098" d="M165.983,212.17h-1l1.019,1.5,1.019-1.5Z" transform="translate(-164.98 -212.17)"/>
      </g>
    </g>
    <g id="Group_4152" data-name="Group 4152" transform="translate(23.48 5.387)">
      <g id="Group_4151" data-name="Group 4151" transform="translate(0)">
        <path id="Path_1099" data-name="Path 1099" d="M32.6,214.164a2.6,2.6,0,0,0-2.525-1.994h-.044l-1.941,2.853-1.941-2.853h-.076a2.6,2.6,0,0,0-2.6,2.6v3.569h6.333a3.2,3.2,0,0,1,2.789-4.171Z" transform="translate(-23.48 -212.17)"/>
      </g>
    </g>
    <g id="Group_4154" data-name="Group 4154" transform="translate(25.383)">
      <g id="Group_4153" data-name="Group 4153" transform="translate(0)">
        <path id="Path_1100" data-name="Path 1100" d="M101.1,0a2.694,2.694,0,0,0-1.391,5q.1.058.2.108a2.7,2.7,0,0,0,2.433-.025c.057-.029.112-.061.166-.094A2.694,2.694,0,0,0,101.1,0Z" transform="translate(-98.41)"/>
      </g>
    </g>
    <g id="Group_4156" data-name="Group 4156" transform="translate(30.421 8.133)">
      <g id="Group_4155" data-name="Group 4155" transform="translate(0)">
        <path id="Path_1101" data-name="Path 1101" d="M299.264,320.31h-.136l-.045,0-.06.005-.025,0h0l-.041,0-.052.007h0l-.025,0h0l-.042.007-.06.011-.041.009h-.006l-.033.008-.037.009h0l-.007,0-.051.014-.054.016-.007,0h0l-.036.012-.009,0-.01,0-.042.015-.016.006-.037.014-.02.008h0l-.026.01,0,0-.025.01-.047.021-.044.021-.005,0h0l-.007,0-.046.023-.052.027-.051.029h0c-.032.019-.064.038-.1.058s-.075.05-.112.076l-.035.026-.046.036-.045.036-.052.044-.037.033-.034.031,0,0-.023.022-.01.01-.028.028-.011.011-.028.029-.028.031-.007.008-.022.025,0,0-.048.057-.023.028-.026.034-.012.016-.012.016-.029.04-.033.048-.03.045c-.034.052-.065.106-.1.161q-.024.046-.047.092l-.009.02-.018.039v0l-.02.045-.01.023-.014.035,0,.006h0l-.021.055-.02.056c0,.014-.01.028-.014.043l0,.008a.1.1,0,0,0,0,.011l0,.007c0,.014-.009.028-.013.043v.005c0,.017-.01.035-.014.052v0a.007.007,0,0,0,0,0l-.011.043v0l-.005.024c0,.009,0,.019-.006.028s0,.017-.005.025,0,.022-.006.032,0,.021-.006.031a.108.108,0,0,0,0,.015c0,.016-.006.033-.008.049s0,.034-.007.05,0,.019,0,.029a.036.036,0,0,0,0,.005c0,.01,0,.021,0,.031s0,.035,0,.052,0,.031,0,.046h0c0,.01,0,.02,0,.03s0,.037,0,.056,0,.036,0,.054,0,.036,0,.054v.028c0,.016,0,.033,0,.049s0,.037,0,.056h0c0,.01,0,.021,0,.031s0,.027,0,.041,0,0,0,0,0,.027,0,.041l0,.016s0,.007,0,.01v0c0,.016,0,.031.007.047v0c0,.016.005.032.008.047l0,.009q0,.017.007.035c0,.017.007.034.01.051s.006.029.01.044.008.033.012.05.007.026.011.039.009.033.014.049.007.024.011.036.006.018.009.026l.01.031.009.025.009.025,0,.007.01.025,0,0,.018.044.024.057.016.036,0,.008v0l.016.033.02.039.015.029,0,.005,0,.006,0,0,.018.033.026.046.018.03.025.041.017.026c.016.026.034.052.052.077l.019.026.028.038.028.037.021.026.038.046.026.03.056.062,0,0,.026.027,0,0,0,0,.044.044.046.043.039.035.014.012.014.012.067.055.034.027.069.052.036.025.033.022.043.028.044.027.039.023q.073.042.15.08l.025.012.086.039h0l.024.01.085.034.028.01.043.015,0,0,.036.012,0,0,.019.006.045.013.048.013h0l.013,0,.038.009h0l.023.005.05.011.049.009.009,0,.046.008.016,0,.054.007.041,0,.031,0h0l.05,0,.054,0h.133a2.434,2.434,0,1,0,0-4.867Zm1.237,2.814h-.83v.829h-.762v-.829h-.83v-.762h.83v-.83h.762v.83h.83Z" transform="translate(-296.83 -320.31)"/>
      </g>
    </g>
  </g>
</svg>
