<svg xmlns="http://www.w3.org/2000/svg" width="14.996" height="15" viewBox="0 0 14.996 15">
  <g id="leave" transform="translate(-1 -1)">
    <path id="Path_72" data-name="Path 72" d="M30.4,16.215H26.1V14.03h4.3V12.4l2.511,2.707L30.4,17.846Z" transform="translate(-16.915 -7.683)"/>
    <path id="Path_73" data-name="Path 73" d="M7.946,17.011,2.5,14.4V2.5L7.946,5.076Z" transform="translate(-1.011 -1.011)"/>
    <g id="Group_2" data-name="Group 2" transform="translate(1 1)">
      <path id="Path_74" data-name="Path 74" d="M11.141,13.88H1.489A.5.5,0,0,1,1,13.391V1.489A.5.5,0,0,1,1.489,1h9.652a.5.5,0,0,1,.489.489v3a.489.489,0,0,1-.978,0V1.946H1.978V12.935h8.674V10.424a.489.489,0,1,1,.978,0v2.967A.526.526,0,0,1,11.141,13.88Z" transform="translate(-1 -1)"/>
    </g>
  </g>
</svg>
