<svg id="Capa_1" enable-background="new 0 0 512 512" height="512" viewBox="0 0 512 512" width="512" xmlns="http://www.w3.org/2000/svg"><g><g><path d="m431 0h-282.98c14.28 15.935 22.98 36.969 22.98 60 0 22.761-8.541 43.915-22.922 60h282.922c33.084 0 60-26.916 60-60s-26.916-60-60-60z"/><path d="m416 150h-305v347c0 8.284 6.716 15 15 15h290c8.284 0 15-6.716 15-15v-332c0-8.284-6.716-15-15-15zm-125 316h-120c-8.284 0-15-6.716-15-15s6.716-15 15-15h120c8.284 0 15 6.716 15 15s-6.716 15-15 15zm80-60h-200c-8.284 0-15-6.716-15-15s6.716-15 15-15h200c8.284 0 15 6.716 15 15s-6.716 15-15 15zm0-60h-200c-8.284 0-15-6.716-15-15s6.716-15 15-15h200c8.284 0 15 6.716 15 15s-6.716 15-15 15zm0-60h-200c-8.284 0-15-6.716-15-15s6.716-15 15-15h200c8.284 0 15 6.716 15 15s-6.716 15-15 15zm0-60h-200c-8.284 0-15-6.716-15-15s6.716-15 15-15h200c8.284 0 15 6.716 15 15s-6.716 15-15 15z"/></g><path d="m81 0c-33.137 0-60 26.863-60 60 0 .153.01.303.011.455-.001.155-.011.3-.011.456v374.089c0 8.284 6.716 15 15 15h45v-330c33.137 0 60-26.863 60-60s-26.863-60-60-60z"/></g></svg>