<svg xmlns="http://www.w3.org/2000/svg" width="15" height="15" viewBox="0 0 15 15">
  <path id="ic_shopping_cart_24px" d="M5.5,14A1.5,1.5,0,1,0,7,15.5,1.5,1.5,0,0,0,5.5,14ZM1,2V3.5H2.5L5.2,9.193,4.187,11.03A1.45,1.45,0,0,0,4,11.75a1.5,1.5,0,0,0,1.5,1.5h9v-1.5H5.815a.186.186,0,0,1-.188-.187l.023-.09.675-1.222h5.587a1.493,1.493,0,0,0,1.312-.773L15.91,4.61A.733.733,0,0,0,16,4.25a.752.752,0,0,0-.75-.75H4.157L3.452,2ZM13,14a1.5,1.5,0,1,0,1.5,1.5A1.5,1.5,0,0,0,13,14Z" transform="translate(-1 -2)"/>
</svg>
