<svg xmlns="http://www.w3.org/2000/svg" width="15" height="15.702" viewBox="0 0 15 15.702">
  <g id="mechanical" transform="translate(-11.446)">
    <path id="Path_35" data-name="Path 35" d="M22.054,4.548a3.006,3.006,0,0,0,0-.8l1.123-.614L22.107,1.18l-1.123.614a3.076,3.076,0,0,0-.868-.515V0H17.885V1.279a3.078,3.078,0,0,0-.868.515L15.894,1.18l-1.07,1.958,1.123.614a3.006,3.006,0,0,0,0,.8l-1.123.614,1.07,1.958,1.123-.614a3.077,3.077,0,0,0,.868.515V8.3h2.231V7.021a3.077,3.077,0,0,0,.868-.515l1.123.614,1.07-1.958ZM19,5.286A1.135,1.135,0,1,1,20.136,4.15,1.135,1.135,0,0,1,19,5.286Z" transform="translate(-3.274)"/>
    <path id="Path_36" data-name="Path 36" d="M16.189,320.505l.643-.643-.651-.651-.643.643a2.1,2.1,0,0,0-.668-.278v-.908h-.92v.908a2.1,2.1,0,0,0-.668.278l-.643-.643-.651.651.643.643a2.1,2.1,0,0,0-.278.668h-.908v.92h.908a2.1,2.1,0,0,0,.278.668l-.643.643.651.651.643-.643a2.1,2.1,0,0,0,.668.278v.908h.92v-.908a2.1,2.1,0,0,0,.668-.278l.643.643.651-.651-.643-.643a2.1,2.1,0,0,0,.278-.668h.908v-.92h-.908A2.1,2.1,0,0,0,16.189,320.505Zm-1.779,2.316a1.188,1.188,0,1,1,1.188-1.188A1.189,1.189,0,0,1,14.411,322.821Z" transform="translate(0 -308.896)"/>
    <path id="Path_37" data-name="Path 37" d="M262.885,251.154v-1.005l-.871-.5-.5-.871h-1.005l-.871-.5-.871.5H257.76l-.5.871-.871.5v1.005l-.5.871.5.871V253.9l.871.5.5.871h1.005l.871.5.871-.5h1.005l.5-.871.871-.5V252.9l.5-.871Zm-3.249,1.818a.948.948,0,1,1,.948-.948A.948.948,0,0,1,259.636,252.973Z" transform="translate(-236.942 -240.659)"/>
  </g>
</svg>
