<svg xmlns="http://www.w3.org/2000/svg" width="15" height="14.281" viewBox="0 0 15 14.281">
  <g id="friends" transform="translate(-32.053 -64)">
    <path id="Path_1" data-name="Path 1" d="M253.014,208a3.984,3.984,0,0,0-3.153,1.62,5.339,5.339,0,0,1,.869.9,8.117,8.117,0,0,1,1.479,4.872,6.085,6.085,0,0,0,.8.056,9.091,9.091,0,0,0,4.553-1.421,7.384,7.384,0,0,0-1.344-4.338A4.019,4.019,0,0,0,253.014,208Z" transform="translate(-210.514 -138.412)" fill="rgba(0,0,0,0.7)"/>
    <ellipse id="Ellipse_1" data-name="Ellipse 1" cx="2.143" cy="2.484" rx="2.143" ry="2.484" transform="translate(40.357 64)" fill="rgba(0,0,0,0.7)"/>
    <path id="Path_2" data-name="Path 2" d="M36.606,240a4.019,4.019,0,0,0-3.209,1.692,7.38,7.38,0,0,0-1.343,4.33,10.014,10.014,0,0,0,4.553,1.428,9.114,9.114,0,0,0,4.553-1.421,7.383,7.383,0,0,0-1.344-4.337A4.019,4.019,0,0,0,36.606,240Z" transform="translate(0 -169.17)" fill="rgba(0,0,0,0.7)"/>
    <ellipse id="Ellipse_2" data-name="Ellipse 2" cx="2.143" cy="2.484" rx="2.143" ry="2.484" transform="translate(34.462 65.242)" fill="rgba(0,0,0,0.7)"/>
  </g>
</svg>
