<svg id="checklist" xmlns="http://www.w3.org/2000/svg" width="15" height="15" viewBox="0 0 15 15">
  <path id="Path_1" data-name="Path 1" d="M9.156,1.25H8.469a1.722,1.722,0,0,0-3.312,0H4.469A.472.472,0,0,0,4,1.719v.938A1.1,1.1,0,0,0,5.094,3.75H8.531A1.1,1.1,0,0,0,9.625,2.656V1.719A.472.472,0,0,0,9.156,1.25Z" transform="translate(-1.5)"/>
  <path id="Path_2" data-name="Path 2" d="M8.906,3H8.75v.781A1.718,1.718,0,0,1,7.031,5.5H3.594A1.718,1.718,0,0,1,1.875,3.781V3H1.719A1.718,1.718,0,0,0,0,4.719v7.813A1.718,1.718,0,0,0,1.719,14.25H6.813a5.431,5.431,0,0,1-.819-2.187H2.344a.469.469,0,0,1,0-.937H5.938V10.031H2.344a.469.469,0,0,1,0-.937H5.938V8.806A1.838,1.838,0,0,1,6.119,8H2.344a.469.469,0,0,1,0-.937H7.137a.231.231,0,0,1,.069-.031l3.281-1.119a.5.5,0,0,1,.137-.037V4.719A1.718,1.718,0,0,0,8.906,3Z" transform="translate(0 -1.125)"/>
  <path id="Path_3" data-name="Path 3" d="M18.888,10.649,15.607,9.533a.627.627,0,0,0-.4,0l-3.281,1.116a.626.626,0,0,0-.424.592v2.511c0,3.167,3.512,4.7,3.661,4.761a.634.634,0,0,0,.246.049.618.618,0,0,0,.245-.05c.149-.064,3.661-1.593,3.661-4.76V11.241a.624.624,0,0,0-.424-.592ZM17.625,13,15.75,15.5a.622.622,0,0,1-.456.248l-.044,0a.622.622,0,0,1-.442-.183l-1.25-1.25a.625.625,0,0,1,.884-.884l.741.741,1.443-1.924a.625.625,0,0,1,1,.75Z" transform="translate(-4.312 -3.562)"/>
</svg>
