<svg xmlns="http://www.w3.org/2000/svg" width="15.002" height="13.633" viewBox="0 0 15.002 13.633">
  <g id="report" transform="translate(0.002 -16.594)">
    <path id="Path_299" data-name="Path 299" d="M87.213,251.681a.928.928,0,0,0-.237.572v2.409h1.4v-3.808c0-.185-.106-.229-.237-.1Z" transform="translate(-83.39 -224.437)"/>
    <path id="Path_300" data-name="Path 300" d="M236.242,196.283a.93.93,0,0,0-.237.572v4.692h1.4v-6.092c0-.185-.106-.229-.237-.1Z" transform="translate(-226.276 -171.322)"/>
    <path id="Path_301" data-name="Path 301" d="M285.9,148.9a.927.927,0,0,0-.237.572v6.743h1.3v-8.041c0-.185-.106-.229-.237-.1Z" transform="translate(-273.887 -125.991)"/>
    <path id="Path_302" data-name="Path 302" d="M186.6,245.965l-.139.14a.793.793,0,0,0-.139.475v2.643h1.4v-4.042c0-.185-.106-.229-.237-.1Z" transform="translate(-178.643 -218.998)"/>
    <path id="Path_303" data-name="Path 303" d="M136.887,249.249c-.131-.131-.237-.087-.237.1v3.87h1.4v-2.475a.9.9,0,0,0-.225-.559l-.225-.224Z" transform="translate(-131.017 -222.992)"/>
    <path id="Path_304" data-name="Path 304" d="M34.015,301.1l-.452.452a.844.844,0,0,0-.237.5v.265h1.561v-1.76c0-.185-.106-.229-.237-.1Z" transform="translate(-31.953 -272.092)"/>
    <path id="Path_305" data-name="Path 305" d="M14.763,22.123c.131.131.237.087.237-.1V17.237a.685.685,0,0,0-.669-.643H9.571c-.185,0-.229.106-.1.237l1.693,1.695-.691.688-3.2,3.206L5.578,20.726a.335.335,0,0,0-.474,0L.393,25.44a1.341,1.341,0,0,0,0,1.9l.033.033a1.34,1.34,0,0,0,1.9,0l3.02-3.021L7.04,26.045a.336.336,0,0,0,.474,0L13.1,20.459Z"/>
  </g>
</svg>
