<svg id="_x33_0" enable-background="new 0 0 64 64" height="512" viewBox="0 0 64 64" width="512" xmlns="http://www.w3.org/2000/svg"><g><path d="m45.715 7h-21.715v-4l-10 9 10 9v-4h20.044c5.498 0 9.956 4.458 9.956 9.956 0 1.348-.274 2.683-.805 3.922l-2.071 4.832c-.082.191-.124.397-.124.605v.15c0 .848.687 1.535 1.535 1.535.303 0 .599-.09.852-.258l1.362-.908c4.53-3.02 7.251-8.104 7.251-13.549 0-8.994-7.291-16.285-16.285-16.285z"/><path d="m3 51v2h4.685c.357-.749.839-1.426 1.425-2z"/><path d="m15 29h2v4h2v-4h2v4h2v-6h-10v6h2z"/><path d="m31 28c0-.551-.449-1-1-1h-5v6c0 1.103-.897 2-2 2h-10c-1.103 0-2-.897-2-2v-6h-5c-.551 0-1 .449-1 1v21h26zm-3 18h-10v-4h10z"/><path d="m33 49h13.867l-.75-6h-9.117v-6h8.038c-.698-1.2-1.99-2-3.452-2h-8.586z"/><path d="m39 41h6.867l-.25-2h-6.617z"/><path d="m44.315 53h4.685v-2h-6.111c.587.574 1.069 1.251 1.426 2z"/><path d="m18.889 51c.587.574 1.068 1.251 1.425 2h11.37c.357-.749.839-1.426 1.425-2z"/><path d="m14 51c-2.757 0-5 2.243-5 5s2.243 5 5 5 5-2.243 5-5-2.243-5-5-5zm0 7c-1.105 0-2-.895-2-2s.895-2 2-2 2 .895 2 2-.895 2-2 2z"/><path d="m38 51c-2.757 0-5 2.243-5 5s2.243 5 5 5 5-2.243 5-5-2.243-5-5-5zm0 7c-1.105 0-2-.895-2-2s.895-2 2-2 2 .895 2 2-.895 2-2 2z"/><path d="m37 25h2v2h-2z"/><path d="m41 25h2v2h-2z"/><path d="m45 25h2v2h-2z"/></g></svg>