<?xml version="1.0" encoding="iso-8859-1"?>
<!-- Generator: Adobe Illustrator 19.0.0, SVG Export Plug-In . SVG Version: 6.00 Build 0)  -->
<svg version="1.1" id="Capa_1" xmlns="http://www.w3.org/2000/svg" xmlns:xlink="http://www.w3.org/1999/xlink" x="0px" y="0px"
	 viewBox="0 0 480.255 480.255" style="enable-background:new 0 0 480.255 480.255;" xml:space="preserve">
<g>
	<g>
		<g>
			<path d="M232.192,62.992v25.136h16V62.992c17.112-4.418,27.402-21.872,22.984-38.984S249.304-3.394,232.192,1.024
				s-27.402,21.872-22.984,38.984C212.118,51.279,220.92,60.081,232.192,62.992z M240.192,16.128c8.837,0,16,7.163,16,16
				s-7.163,16-16,16s-16-7.163-16-16S231.355,16.128,240.192,16.128z"/>
			<path d="M248.192,417.264v-25.136h-16v25.136c-17.112,4.418-27.402,21.872-22.984,38.984
				c4.418,17.112,21.872,27.402,38.984,22.984s27.402-21.872,22.984-38.984C268.265,428.976,259.463,420.174,248.192,417.264z
				 M240.192,464.128c-8.837,0-16-7.163-16-16s7.163-16,16-16s16,7.163,16,16S249.028,464.128,240.192,464.128z"/>
			<path d="M96.192,128.128c5.698-0.026,11.283-1.588,16.168-4.52l14.696,14.696l11.312-11.312l-14.696-14.696
				c7.513-12.505,5.508-28.525-4.856-38.792c-12.657-12.097-32.591-12.097-45.248,0c-12.495,12.499-12.492,32.76,0.007,45.255
				C79.574,124.756,87.709,128.126,96.192,128.128z M84.88,84.816c6.139-6.356,16.268-6.532,22.624-0.393s6.532,16.268,0.393,22.624
				c-0.129,0.133-0.26,0.264-0.393,0.393c-6.329,6.047-16.295,6.047-22.624,0C78.634,101.192,78.634,91.064,84.88,84.816z"/>
			<path d="M368.096,356.712l-14.768-14.76l-11.312,11.312l14.696,14.696c-8.914,15.214-3.807,34.774,11.407,43.688
				s34.774,3.807,43.688-11.407c7.349-12.543,5.297-28.467-4.991-38.737C396.365,351.569,380.653,349.625,368.096,356.712z
				 M395.507,395.436c-0.001,0.001-0.002,0.002-0.003,0.003c-6.329,6.047-16.295,6.047-22.624,0
				c-6.249-6.247-6.251-16.378-0.003-22.627s16.378-6.251,22.627-0.003S401.755,389.187,395.507,395.436z"/>
			<path d="M479.151,232.016c-3.671-14.087-16.402-23.91-30.959-23.888c-14.547,0.055-27.227,9.914-30.864,24h-25.136v16h25.136
				c4.449,17.072,21.896,27.305,38.968,22.855S483.6,249.087,479.151,232.016z M448.192,256.128c-8.837,0-16-7.163-16-16
				s7.163-16,16-16s16,7.163,16,16S457.028,256.128,448.192,256.128z"/>
			<path d="M289.432,216.128h-31.8l-9.832-30.24c-1.38-4.197-5.901-6.482-10.098-5.102c-2.415,0.794-4.308,2.687-5.102,5.102
				l-9.848,30.24h-31.8c-4.418-0.001-8.001,3.58-8.002,7.998c0,2.561,1.225,4.968,3.298,6.474l25.728,18.696l-9.824,30.256
				c-1.36,4.204,0.945,8.714,5.149,10.074c2.432,0.787,5.094,0.364,7.163-1.138l25.728-18.696l25.728,18.696
				c3.575,2.596,8.578,1.802,11.174-1.773c1.502-2.069,1.925-4.731,1.138-7.163l-9.824-30.256l25.728-18.696
				c3.574-2.597,4.367-7.6,1.769-11.174C294.4,217.353,291.993,216.127,289.432,216.128z M251.392,248.704l4,12.368l-10.512-7.64
				c-2.805-2.039-6.603-2.039-9.408,0l-10.512,7.64l4-12.368c1.067-3.293-0.104-6.899-2.904-8.936l-10.48-7.64h12.992
				c3.466,0,6.537-2.232,7.608-5.528l4-12.36l4,12.36c1.071,3.296,4.142,5.528,7.608,5.528h12.992l-10.512,7.64
				C251.476,241.813,250.318,245.417,251.392,248.704z"/>
			<path d="M88.192,232.128H63.056c-4.418-17.112-21.872-27.402-38.984-22.984S-3.33,231.016,1.088,248.128
				c4.418,17.112,21.872,27.402,38.984,22.984c11.272-2.91,20.074-11.712,22.984-22.984h25.136V232.128z M32.192,256.128
				c-8.837,0-16-7.163-16-16s7.163-16,16-16s16,7.163,16,16S41.028,256.128,32.192,256.128z"/>
			<path d="M127.056,341.952l-14.768,14.76c-12.559-7.085-28.271-5.137-38.72,4.8c-12.637,12.437-12.798,32.764-0.361,45.401
				c12.437,12.637,32.764,12.798,45.4,0.361c10.538-10.372,12.63-26.601,5.065-39.306l14.696-14.696L127.056,341.952z
				 M107.507,395.436c-0.001,0.001-0.002,0.002-0.003,0.003c-6.329,6.047-16.295,6.047-22.624,0
				c-6.249-6.247-6.251-16.378-0.003-22.627s16.378-6.251,22.627-0.003S113.755,389.187,107.507,395.436z"/>
			<path d="M324.736,313.36c15.855-18.234,25.348-41.129,27.048-65.232h32.408v-16h-32.408c-1.7-24.103-11.193-46.999-27.048-65.232
				l22.936-22.936l-11.312-11.312l-22.936,22.936c-18.233-15.855-41.129-25.348-65.232-27.048V96.128h-16v32.408
				c-24.103,1.7-46.998,11.193-65.232,27.048l-22.936-22.936l-11.312,11.312l22.936,22.936
				c-15.855,18.233-25.348,41.129-27.048,65.232H96.192v16H128.6c1.7,24.103,11.193,46.998,27.048,65.232l-22.936,22.936
				l11.312,11.312l22.936-22.936c18.234,15.855,41.129,25.348,65.232,27.048v32.408h16V351.72
				c24.103-1.7,46.999-11.193,65.232-27.048l22.936,22.936l11.312-11.312L324.736,313.36z M240.192,336.128
				c-53.019,0-96-42.981-96-96s42.981-96,96-96s96,42.981,96,96C336.134,293.123,293.187,336.07,240.192,336.128z"/>
			<path d="M353.328,138.304l14.696-14.696c15.193,8.96,34.772,3.907,43.732-11.285c7.402-12.551,5.37-28.521-4.94-38.819
				c-12.657-12.097-32.591-12.097-45.248,0c-10.364,10.267-12.369,26.287-4.856,38.792l-14.696,14.696L353.328,138.304z
				 M372.88,84.816c6.139-6.356,16.268-6.532,22.624-0.393c6.356,6.139,6.532,16.268,0.393,22.624
				c-0.129,0.133-0.26,0.265-0.393,0.393c-6.329,6.047-16.295,6.047-22.624,0C366.634,101.192,366.634,91.064,372.88,84.816z"/>
		</g>
	</g>
</g>
<g>
</g>
<g>
</g>
<g>
</g>
<g>
</g>
<g>
</g>
<g>
</g>
<g>
</g>
<g>
</g>
<g>
</g>
<g>
</g>
<g>
</g>
<g>
</g>
<g>
</g>
<g>
</g>
<g>
</g>
</svg>
