<svg xmlns="http://www.w3.org/2000/svg" width="15" height="15" viewBox="0 0 15 15">
  <g id="worker_1_" data-name="worker (1)" transform="translate(0 0)">
    <g id="Group_3" data-name="Group 3" transform="translate(8.848 0)">
      <g id="Group_2" data-name="Group 2">
        <path id="Path_26" data-name="Path 26" d="M306.248,15a.44.44,0,0,1-.435-.378l-.239-1.689h-.995l-.239,1.689a.439.439,0,0,1-.631.332,3.074,3.074,0,0,1-.489-5.205,1.061,1.061,0,0,0,.392-.85V6.1a1.061,1.061,0,0,0-.392-.85,3.074,3.074,0,0,1,.489-5.205.439.439,0,0,1,.631.332l.239,1.689h.995l.239-1.689a.439.439,0,0,1,.631-.332,3.074,3.074,0,0,1,.489,5.205,1.061,1.061,0,0,0-.392.85V8.9a1.061,1.061,0,0,0,.392.85,3.074,3.074,0,0,1-.489,5.205.439.439,0,0,1-.2.046Z" transform="translate(-302 0)"/>
      </g>
    </g>
    <g id="Group_4" data-name="Group 4" transform="translate(0 5.625)">
      <path id="Path_27" data-name="Path 27" d="M25.439,216.137h4.98a.439.439,0,0,0,0-.879h-.263a2.277,2.277,0,0,0-1.788-1.788v.689a.439.439,0,0,1-.879,0v-.689a2.277,2.277,0,0,0-1.788,1.788h-.263a.439.439,0,0,0,0,.879Z" transform="translate(-24.268 -212.841)"/>
      <path id="Path_28" data-name="Path 28" d="M5.927,403.823a2.853,2.853,0,0,1-4.53,0,3.367,3.367,0,0,0-1.4,2.73.439.439,0,0,0,.439.439H6.885a.439.439,0,0,0,.439-.439A3.367,3.367,0,0,0,5.927,403.823Z" transform="translate(0 -397.617)"/>
      <path id="Path_29" data-name="Path 29" d="M57.5,334.793a1.978,1.978,0,0,0,3.955,0V334.5H57.5Z" transform="translate(-55.815 -330.325)"/>
      <path id="Path_30" data-name="Path 30" d="M110.879,192.629v-.19a.439.439,0,0,0-.879,0v.19a2.264,2.264,0,0,1,.879,0Z" transform="translate(-106.777 -192)"/>
    </g>
  </g>
</svg>
