<svg xmlns="http://www.w3.org/2000/svg" width="15" height="15" viewBox="0 0 15 15">
  <g id="technician" transform="translate(-2 -4)">
    <path id="Path_16" data-name="Path 16" d="M31.25,19a.254.254,0,0,0-.25.259v1.81h.75a.794.794,0,0,1,.25.044V19.259A.254.254,0,0,0,31.75,19Z" transform="translate(-21.75 -11.121)"/>
    <path id="Path_17" data-name="Path 17" d="M25.25,19a.254.254,0,0,0-.25.259v1.81h1v-1.81A.254.254,0,0,0,25.75,19Z" transform="translate(-17.25 -11.121)"/>
    <rect id="Rectangle_1" data-name="Rectangle 1" width="1" height="3.103" rx="0.5" transform="translate(12.25 7.879)"/>
    <path id="Path_18" data-name="Path 18" d="M14.948,8.066a2.711,2.711,0,0,1,.195.331H15.9A3.018,3.018,0,0,1,18,6.654a2.925,2.925,0,0,1,2.605.708h.02a.73.73,0,0,1,.5.2.73.73,0,0,1,.5-.2h.5a.714.714,0,0,1,.28.057l.677-1.166L21.95,5.078l-1.218.755a.617.617,0,0,1-.317.091.628.628,0,0,1-.255-.054c-.005,0-.007,0-.013-.005a.642.642,0,0,1-.372-.442L19.432,4h-1.61L17.48,5.422a.642.642,0,0,1-.372.442c-.005,0-.008.005-.013.005a.609.609,0,0,1-.57-.036L15.3,5.078,14.17,6.253l.73,1.259A.679.679,0,0,1,14.948,8.066Z" transform="translate(-9.127)"/>
    <rect id="Rectangle_2" data-name="Rectangle 2" width="1" height="3.103" rx="0.5" transform="translate(10.75 7.879)"/>
    <path id="Path_19" data-name="Path 19" d="M6.075,21.1H5.1a1.728,1.728,0,0,0,1.225.517,1.705,1.705,0,0,0,1.1-.411,2.063,2.063,0,0,1,.36-.411,1.853,1.853,0,0,0,.157-.31.244.244,0,0,1,.23-.16h1.4V19.293h-1.4a.25.25,0,0,1-.233-.163A1.72,1.72,0,0,0,5.1,18.517h.975a.254.254,0,0,1,.25.259v2.069A.254.254,0,0,1,6.075,21.1Z" transform="translate(-2.325 -10.379)"/>
    <path id="Path_20" data-name="Path 20" d="M23.655,29.747c-.055-.1-.118-.2-.182-.292a.753.753,0,0,1-.722.579h-.5a.73.73,0,0,1-.5-.2.73.73,0,0,1-.5.2h-.5a.717.717,0,0,1-.375-.109,1.746,1.746,0,0,1-1.623,1.143H18.7a2.175,2.175,0,0,1,.79,1.231,3.074,3.074,0,0,1,0,1.415l-.485-.119a2.575,2.575,0,0,0,0-1.172,2.054,2.054,0,0,0-1.132-1.306l-.077-.049H17v-.517h1.75A1.272,1.272,0,0,0,20,29.258a.253.253,0,0,0-.07-.186A.236.236,0,0,0,19.75,29H16.267A1.547,1.547,0,0,0,15,30.517l.493,2.041a4.731,4.731,0,0,0,1.182,1.849.269.269,0,0,1,.075.186v2.165a.254.254,0,0,0,.25.259h4.5a.254.254,0,0,0,.25-.259v-2.09a.258.258,0,0,1,.085-.194,4.423,4.423,0,0,0,1.4-2.139Z" transform="translate(-9.75 -18.534)"/>
    <path id="Path_21" data-name="Path 21" d="M49,20.586a2.542,2.542,0,0,1,.635.833.262.262,0,0,1,.027.1,1.667,1.667,0,0,0,.588.106,1.728,1.728,0,0,0,1.225-.517H50.5a.254.254,0,0,1-.25-.259V18.776a.254.254,0,0,1,.25-.259h.975A1.7,1.7,0,0,0,49,18.548Z" transform="translate(-35.25 -10.379)"/>
    <path id="Path_22" data-name="Path 22" d="M52.5,46.328V44.259A.254.254,0,0,0,52.25,44H51v.517h1v2.069a.254.254,0,0,0,.25.259h1.5v-.517Z" transform="translate(-36.75 -29.655)"/>
    <path id="Path_23" data-name="Path 23" d="M47.25,53.259A.254.254,0,0,0,47,53H46v.517h.75v1.552a.254.254,0,0,0,.25.259h3V54.81H47.25Z" transform="translate(-33 -36.328)"/>
    <path id="Path_24" data-name="Path 24" d="M3.75,46.586V44.517h1V44H3.5a.254.254,0,0,0-.25.259v2.069H2v.517H3.5A.254.254,0,0,0,3.75,46.586Z" transform="translate(0 -29.655)"/>
    <path id="Path_25" data-name="Path 25" d="M4.75,53.259V54.81H2v.517H5a.254.254,0,0,0,.25-.259V53.517H6V53H5A.254.254,0,0,0,4.75,53.259Z" transform="translate(0 -36.328)"/>
  </g>
</svg>
